<svg width="308" height="53" viewBox="0 0 308 53" fill="none" xmlns="http://www.w3.org/2000/svg">
<path d="M307.535 4.03758C307.433 3.85091 307.165 3.9398 306.986 3.93548C306.531 3.95259 306.077 3.94244 305.622 3.9544C304.466 3.95732 303.31 4.09489 302.154 4.16986C300.937 4.28058 299.71 4.31396 298.502 4.54458C297.663 4.68897 296.895 5.08414 296.104 5.39641C294.497 6.03833 292.995 6.91825 291.653 8.02824C290.594 8.89411 289.779 9.38762 288.628 10.2955C287.792 11.026 286.936 11.7346 286.098 12.4623C285.208 13.2957 284.37 14.1825 283.489 15.0242C282.148 16.1588 280.694 17.1596 279.232 18.1267C278.194 18.7447 277.104 19.268 276.053 19.8622C275.37 20.2212 274.686 20.5901 274.11 21.1156C273.997 21.225 273.84 21.3568 273.725 21.5036C270.304 22.5387 266.816 23.3047 263.319 23.9694C261.928 24.2826 260.516 24.4329 259.11 24.626C258.361 24.7314 257.784 24.8068 257.212 24.8738C257.644 24.7007 258.003 24.5493 258.145 24.4863C260.531 23.5712 262.9 22.5593 265.099 21.222C265.846 20.674 266.562 20.1166 267.272 19.5245C267.37 19.7768 267.52 20.0033 267.737 20.1816C268.131 20.3994 268.701 20.4251 269.294 20.3108C269.362 20.3474 269.432 20.3812 269.506 20.41C270.187 20.6285 271.087 20.4232 271.557 19.8284C271.742 19.5372 271.776 19.194 271.858 18.8699C271.944 18.4926 272.001 18.0981 271.94 17.7195C271.935 17.6263 271.93 17.5336 271.925 17.441C272.17 17.4438 272.52 17.3609 272.555 17.2088C272.624 17.1795 272.691 17.1467 272.754 17.1105C273.202 16.8372 273.321 16.229 273.2 15.7668C273.121 15.5229 272.834 15.4952 272.608 15.5083C272.175 15.5354 271.776 15.7723 271.504 16.1158C271.496 16.124 271.489 16.1321 271.481 16.1402C271.218 15.9125 270.876 15.7963 270.513 15.76C270.499 15.756 270.487 15.7507 270.474 15.7471C270.333 15.6505 270.182 15.5685 270.024 15.5064C269.483 15.3436 268.882 15.5204 268.39 15.8016C267.961 16.03 267.7 16.4541 267.573 16.9202C267.544 16.9672 267.514 17.014 267.487 17.0628C267.372 17.2176 267.29 17.3791 267.253 17.5425C267.227 17.5965 267.204 17.6523 267.184 17.7106C267.103 18.0536 267.025 18.4823 267.107 18.8357C266.937 19.0023 266.728 19.1854 266.514 19.3687C265.772 19.9849 265.04 20.6236 264.245 21.1688C263.5 21.599 262.205 22.2967 261.149 22.7718C259.899 23.3324 259.202 23.6205 257.901 24.1297C256.937 24.5345 256.423 24.7622 255.568 25.0488C255.431 25.0625 255.29 25.0762 255.141 25.0908C252.733 25.3782 250.321 25.5088 247.907 25.6202C246.484 25.6981 245.062 25.6314 243.64 25.6428C242.666 25.636 241.69 25.6405 240.718 25.612C240.599 25.5898 240.479 25.5677 240.36 25.5455C241.103 25.4002 241.845 25.2465 242.587 25.1007C244.825 24.5596 247.08 24.0426 249.23 23.1716C251.73 22.2245 254.134 21.0287 256.545 19.8622C258.364 19.0178 260.182 18.1622 261.896 17.102C263.708 16.0064 265.376 14.6809 267.045 13.3759C268.628 12.1638 270.17 10.8957 271.518 9.41836C272.173 8.71356 272.832 8.01294 273.482 7.30327C273.989 6.67136 274.61 6.10635 274.894 5.3366C274.983 5.16815 275.101 5.00263 275.093 4.81095C275.106 4.70385 275.008 4.63166 274.951 4.55557C274.838 4.471 274.681 4.48783 274.545 4.51176C274.198 4.56907 273.95 4.83557 273.673 5.03406C273.243 5.348 272.844 5.70158 272.414 6.01455C270.833 7.06319 269.053 7.72988 267.322 8.45916C267.092 8.52439 266.853 8.54428 266.621 8.5938C266.233 8.68338 265.85 8.79939 265.464 8.89939L265.532 8.88131C264.181 9.23392 262.843 9.63897 261.502 10.0353C260.511 10.2787 259.543 10.6023 258.578 10.9416C257.659 11.2576 256.734 11.562 255.842 11.9587C253.015 13.0895 250.86 15.3477 248.747 17.4798C247.593 18.73 246.266 19.7952 244.992 20.916C244.511 21.3314 244.037 21.7656 243.488 22.0886C243.19 22.2601 242.883 22.3335 242.572 22.5142C241.727 22.9579 240.908 23.5172 240.049 23.8975C239.462 24.1248 238.82 24.324 238.205 24.5118C237.878 24.5886 237.549 24.6651 237.242 24.8106C237.086 24.8775 236.945 24.9759 236.84 25.0817C234.879 24.8854 232.911 24.7346 230.942 24.5888C229.418 24.4596 227.902 24.2723 226.378 24.1448C224.906 24.0498 224.135 24.1231 222.564 23.9916C222.042 23.9501 221.521 23.9013 221 23.8501C219.681 23.7025 218.363 23.5456 217.046 23.3829C216.283 23.3101 215.521 23.2347 214.757 23.1596C215.147 23.1592 215.536 23.1564 215.926 23.1509C217.352 23.1204 218.782 23.0029 220.208 22.896C222.332 22.6695 224.442 22.2472 226.515 21.6805C228.093 21.2116 229.694 20.8213 231.248 20.2641C232.404 19.8308 233.518 19.2833 234.617 18.7137C236.221 17.8893 237.82 17.0295 239.249 15.9112C241.044 14.5125 242.792 13.0186 244.288 11.2978C244.497 11.0512 244.668 10.7775 244.842 10.5073C244.874 10.4712 244.887 10.4314 244.882 10.388C244.861 10.1333 244.445 10.2381 244.269 10.249C243.825 10.2958 243.383 10.3634 242.941 10.4283C241.188 10.6918 239.433 10.9448 237.677 11.1772C237.057 11.1939 235.001 11.5244 233.911 11.9318C233.158 12.1666 232.392 12.3883 231.704 12.7976C230.688 13.3541 229.78 14.0825 228.82 14.7293C227.892 15.329 227.05 16.0542 226.13 16.6643C224.826 17.4621 223.506 18.2601 222.193 19.0283C220.718 19.7305 219.236 20.4502 217.716 20.979C216.462 21.3659 215.904 21.5353 214.717 21.7513C213.55 21.8779 212.378 21.9713 211.209 22.0019C210.492 22.0296 208.845 21.8923 207.738 22.0214C207.259 22.1234 206.695 22.1602 206.298 22.4797C205.283 22.4337 204.267 22.4052 203.248 22.4035C202.615 22.3228 201.978 22.2701 201.336 22.2513C201.7 22.218 202.063 22.1676 202.421 22.0754C203.658 21.7905 204.779 21.1425 205.904 20.5597C206.522 20.2571 207.14 19.9549 207.734 19.6046C207.799 19.5735 207.86 19.5367 207.921 19.4985C208.293 19.6788 208.723 19.74 209.138 19.6277C209.601 19.5146 210.075 19.293 210.361 18.8894C210.756 18.2395 210.95 17.3237 210.566 16.6661C210.558 16.6234 210.547 16.5817 210.535 16.5403C210.634 16.5509 210.741 16.5469 210.844 16.527C210.983 16.5395 211.183 16.4663 211.252 16.4001C211.315 16.353 211.327 16.2751 211.313 16.2044C211.313 16.2019 211.313 16.1993 211.313 16.1968C211.318 16.1843 211.326 16.1741 211.331 16.1609C211.341 15.9787 211.275 15.7895 211.177 15.6423C210.883 15.2085 210.25 15.5554 210.045 15.9692C209.75 15.8364 209.418 15.8229 209.085 15.8852C208.635 15.9019 208.188 16.0797 207.875 16.4142C207.552 16.6377 207.265 16.9269 207.123 17.2967C206.926 17.7887 206.762 18.5362 207.241 18.8591C207.259 18.9078 207.279 18.9557 207.301 19.0022C207.321 19.0442 207.346 19.082 207.374 19.1179C207.347 19.1425 207.318 19.1695 207.286 19.1989C206.687 19.5648 206.49 19.6623 205.683 20.0816C204.736 20.5889 203.723 21.2073 202.975 21.502C201.978 21.911 200.965 21.9181 199.811 22.1025C199.472 22.1647 199.135 22.2467 198.801 22.3454C198.134 22.411 197.468 22.5069 196.804 22.6192C196.245 22.6486 195.687 22.7034 195.129 22.7366C194.887 22.7448 194.646 22.7493 194.405 22.7538C195.401 22.4415 196.403 22.1441 197.341 21.6673C198.498 21.1034 199.55 20.3499 200.538 19.5217C201.304 18.9039 202.078 18.2911 202.756 17.5748C203.536 16.7505 204.236 15.861 204.913 14.9544C206.126 13.5823 207.285 12.1562 208.194 10.5674C208.563 9.91744 208.932 9.26744 209.3 8.61745C209.654 8.05536 210.024 7.48493 210.109 6.82047C210.321 5.30613 210.741 3.81308 210.868 2.29095C210.925 1.55848 210.762 0.848948 210.583 0.154026C210.394 -0.178691 209.657 0.100057 209.423 0.31176C209.326 0.388819 209.276 0.501209 209.283 0.620414C209.281 0.68259 209.281 0.744765 209.287 0.806524C209.289 0.825719 209.291 0.844219 209.292 0.860632C209.283 1.10196 209.23 1.34107 209.173 1.57725C209.034 2.16702 208.957 2.3331 208.557 2.81729C208.224 3.2076 207.855 3.5858 207.309 4.07458C206.219 5.01222 205.102 5.91732 204.043 6.89085C203.075 7.70665 202.219 8.66919 201.656 9.80546C201.252 10.5521 201.039 11.3681 200.729 12.1498C200.216 13.3826 199.551 15.2523 199.163 16.1816C198.821 16.8219 198.346 17.3853 197.977 18.0113C197.549 18.6962 197.129 19.4021 196.535 19.962C196.141 20.3278 195.754 20.7049 195.329 21.0355C195.086 21.2165 194.819 21.3586 194.556 21.5084C193.732 21.9716 192.91 22.4305 192.073 22.893C192.05 22.9031 192.028 22.9133 192.005 22.9233C190.943 23.0847 189.914 23.442 188.879 23.7394C187.534 24.1092 186.186 24.4696 184.908 25.0583C184.978 25.0303 185.048 25.0024 185.118 24.9744C184.124 25.3893 183.093 25.6905 182.092 26.085C180.862 26.6377 179.652 27.2713 178.517 28.0105C176.364 29.5021 174.268 31.0885 172.293 32.8143C171.612 33.4415 170.982 34.1197 170.328 34.7747C171.244 33.4807 172.202 32.2139 172.989 30.8412C173.685 29.78 174.56 28.8407 175.323 27.8253C176.232 26.5655 177.276 25.6186 178.542 24.3817C179.718 23.3307 181.792 21.8617 182.794 21.0779C184.628 19.6871 186.483 18.2982 188.124 16.6758C188.835 15.9243 189.453 15.0933 190.095 14.2848C190.708 13.3966 191.367 12.4964 191.694 11.4663C191.918 10.5876 191.789 9.7113 191.815 8.92541C191.924 7.53626 191.991 6.1261 191.759 4.7613C191.764 6.21777 191.483 7.67104 191.178 9.10345C191.044 9.93691 191.038 10.7919 190.743 11.6005C190.338 12.5642 189.389 13.7956 188.571 14.8011C187.955 15.5448 187.451 16.2226 186.977 16.6829C185.065 18.5197 182.918 20.0839 180.816 21.6887C180.011 22.3007 178.467 23.3922 177.391 24.3954C176.455 25.297 175.524 26.2082 174.676 27.1941C174.261 27.7292 173.857 28.2722 173.433 28.8011C172.949 29.4246 172.436 30.0272 171.979 30.6705C171.626 31.2736 171.263 31.8698 170.875 32.4528C170.101 33.5933 169.275 34.7051 168.522 35.8608C168.786 35.3083 169.052 34.7453 169.314 34.1572C170.275 32.3722 171.48 29.8832 172.657 27.9171C172.707 27.8342 172.757 27.7512 172.807 27.6683C172.662 27.859 172.517 28.0497 172.372 28.2407C171.489 29.4779 170.646 30.7401 169.871 32.0451C168.91 33.5501 168.069 35.1176 167.29 36.7172C167.838 35.281 168.364 33.8355 168.993 32.4312C169.571 31.2873 170.705 29.5395 171.496 28.1996C171.917 27.5189 172.305 26.8184 172.74 26.1463C173.335 25.3052 174.02 24.5294 174.673 23.7328C176.513 21.5929 178.882 19.6242 181.268 17.6477C182.291 16.7917 183.348 15.9746 184.354 15.0982C184.939 14.534 185.467 13.9138 186.062 13.3595C188.516 11.0447 190.394 8.41798 191.333 5.1847C191.364 5.09304 191.398 5.00207 191.43 4.91082C191.288 5.17135 191.157 5.4373 191.024 5.70228C190.496 6.75899 189.875 7.76924 189.192 8.73721C188.177 10.1664 186.963 11.4511 185.697 12.6633C185.288 13.0475 184.874 13.4272 184.479 13.826C184.01 14.3038 183.583 14.8247 183.067 15.2554C179.788 18.0118 176.326 20.6164 173.531 23.887C172.972 24.5862 172.384 25.2651 171.864 25.9937C171.255 26.912 170.752 27.8946 170.174 28.832C169.42 30.1244 168.587 31.3837 168.011 32.7643C167.272 34.7637 166.794 36.8365 166.19 38.8736C166.142 38.9698 166.094 39.0665 166.048 39.1634C165.839 39.4077 165.633 39.6544 165.429 39.903C165.31 40.0338 165.191 40.1646 165.072 40.2954C164.769 40.6326 164.504 41.0013 164.218 41.3521C163.753 41.9409 163.339 42.5671 162.897 43.1729C162.097 44.2868 161.326 45.4289 160.663 46.6258C159.985 47.9667 159.379 49.3469 158.901 50.7643C158.562 51.4662 158.229 52.1711 157.893 52.8738C158.134 52.4828 158.372 52.0896 158.609 51.6957C158.492 52.0945 158.383 52.4952 158.291 52.9C158.685 51.912 159.137 50.948 159.625 50.0009C160.172 49.0932 160.727 48.1905 161.316 47.3078C162.879 45.1599 164.494 43.0464 166.141 40.959C166.271 40.7982 166.402 40.6379 166.533 40.4773C166.761 40.3022 166.93 40.0438 167.097 39.792C167.569 39.2227 168.048 38.6573 168.534 38.098C169.573 37.3153 170.612 36.534 171.684 35.7995C172.37 35.3134 173.058 34.8168 173.819 34.4603C175.237 33.9443 175.867 33.8756 176.702 33.6344C179.395 32.9073 181.886 32.6052 184.292 32.923C186.148 32.9685 187.99 33.1503 189.794 33.528C190.694 33.6874 191.607 33.7842 192.497 33.9889C193.755 34.2372 195.015 34.4795 196.277 34.7127C197.353 34.836 198.431 34.9537 199.509 35.069C200.682 35.2106 201.83 35.3859 203.027 35.3215C204.193 35.2774 205.364 35.3293 206.528 35.1731C208.069 34.9013 209.53 34.2436 210.946 33.5665C211.99 33.0409 213.048 32.5443 214.048 31.9331C214.186 31.8499 214.326 31.7666 214.464 31.6822C214.521 31.6605 214.578 31.6367 214.634 31.6097C215.023 31.4305 215.339 31.135 215.664 30.8605C215.737 30.7899 215.837 30.7372 215.875 30.6395C215.971 30.4403 215.713 30.3884 215.559 30.4029C215.293 30.4079 215.082 30.5341 214.881 30.6847C214.881 30.6847 214.88 30.6847 214.88 30.6849C214.927 30.6481 214.909 30.662 214.879 30.6849C214.878 30.685 214.878 30.685 214.877 30.685C214.865 30.6944 214.859 30.6999 214.855 30.7034C214.831 30.7212 214.809 30.7381 214.808 30.7385C214.735 30.7922 214.664 30.8507 214.592 30.9092C214.545 30.9448 214.498 30.9795 214.449 31.0117C214.353 31.077 214.255 31.1391 214.157 31.202C213.652 31.197 213.064 31.2015 212.526 31.2365C211.476 31.2731 210.418 31.3757 209.373 31.3045C208.699 31.2286 208.125 31.0319 207.264 30.8527C205.803 30.5288 204.369 30.1001 202.988 29.545C202.466 29.3408 201.992 29.0378 201.467 28.8399C200.672 28.5375 199.852 28.3017 199.043 28.0405C197.468 27.566 195.898 27.0556 194.291 26.6852C193.623 26.6043 192.941 26.6555 192.266 26.6477C191.541 26.6469 190.817 26.6324 190.091 26.6776C188.086 26.7981 186.107 27.2458 184.176 27.8572C181.484 28.646 178.867 29.7576 176.451 31.2315C175.319 31.9164 174.25 32.7002 173.223 33.537C172.543 33.9693 171.935 34.5103 171.343 35.0641C172.81 33.5901 174.366 32.2105 176.055 30.9924C180.175 27.9564 184.94 25.9587 189.831 24.7292C191.376 24.3027 192.933 23.9203 194.504 23.6358C195.129 23.5986 195.922 23.5161 196.309 23.5081C196.305 23.5103 196.302 23.5124 196.298 23.5147C196.302 23.5124 196.306 23.5104 196.31 23.5081C196.39 23.5064 196.454 23.5078 196.494 23.5136C198.181 23.6256 199.355 23.5338 200.717 23.6337C202.263 23.6893 203.792 23.9096 205.344 23.8871C205.939 23.8882 206.471 23.8594 206.942 23.8465C207.039 23.8763 207.136 23.9055 207.233 23.9361C208.309 24.2654 209.399 24.5699 210.451 24.9633C212.077 25.5916 213.623 26.3823 215.164 27.182C216.564 27.8693 217.756 28.51 218.945 29.2469C219.65 29.6619 220.345 30.0961 220.981 30.6097C221.082 30.6995 221.186 30.7875 221.288 30.8765C220.986 31.075 220.717 31.3319 220.504 31.6098C220.097 32.2776 220.433 33.1681 221.047 33.5394C221.603 33.9745 222.232 34.3133 222.978 34.2575C223.876 34.2248 224.809 33.9727 225.61 33.5039C225.631 33.5384 225.658 33.5671 225.687 33.5925C225.725 33.6455 225.768 33.6942 225.816 33.7374C225.852 33.8295 225.905 33.913 225.982 33.9781C226.542 34.4055 227.66 33.9384 227.784 33.2275C227.826 32.9897 227.769 32.7262 227.559 32.5952C227.529 32.5729 227.498 32.5539 227.467 32.5346C227.435 32.4835 227.401 32.435 227.362 32.391C227.242 32.2484 227.085 32.1764 226.914 32.1538C227.096 31.4816 226.747 30.7984 226.018 30.5723C225.754 30.4814 225.481 30.4228 225.204 30.3879C224.362 30.019 223.327 30.0018 222.436 30.3165C222.43 30.3179 222.423 30.3201 222.415 30.3228C221.722 29.8028 220.906 29.3701 220.351 29.0445C218.55 27.921 216.64 26.9878 214.74 26.0379C213.244 25.2836 211.713 24.5858 210.104 24.0839C210.99 24.15 211.879 24.1928 212.77 24.2211C214.09 24.2131 215.693 24.2522 217.41 24.3806C218.148 24.4582 218.886 24.5388 219.624 24.6137C219.876 24.6478 220.127 24.6815 220.379 24.715C220.599 24.7412 220.817 24.7727 221.034 24.8071C221.826 24.9562 222.58 25.2362 223.356 25.4394C223.862 25.5784 224.391 25.6387 224.879 25.8346C225.563 26.0741 225.955 26.3933 226.636 26.8462C228.159 27.816 229.43 29.1015 230.622 30.4413C231.491 31.42 232.476 32.2847 233.379 33.2288C234.75 34.8319 236.109 36.4587 237.731 37.8177C238.632 38.5624 239.511 39.3526 240.558 39.8952C241.607 40.4207 242.714 40.8617 243.876 41.0994C245.153 41.3276 246.47 41.3293 247.753 41.5181C248.317 41.621 248.88 41.7503 249.416 41.9454C249.568 42.191 249.694 42.4785 250.136 42.4482C250.368 42.4277 250.617 42.3401 250.771 42.1525C250.802 42.1126 250.814 42.0686 250.804 42.0209C250.761 41.885 250.735 41.7261 250.614 41.637C250.489 41.5614 250.358 41.4958 250.225 41.4342C249.624 40.6394 248.807 39.6696 248.164 38.8164C246.861 37.167 245.58 35.4905 244.122 33.9743C242.266 32.1555 240.177 30.5819 237.964 29.21C235.435 27.678 232.572 26.7573 229.703 25.9966C228.067 25.5665 226.415 25.1953 224.739 24.9293C224.794 24.9307 224.849 24.9321 224.904 24.9335C225.427 24.9796 225.951 25.025 226.475 25.0691C227.066 25.1327 227.656 25.2016 228.248 25.2616C229.684 25.4454 231.131 25.5581 232.58 25.6478C233.822 25.8068 235.077 25.8707 236.322 26.0128C236.504 26.0278 236.685 26.0463 236.866 26.0659C236.838 26.0702 236.81 26.0749 236.782 26.0791C236.667 26.0634 236.551 26.0473 236.435 26.0328C235.874 25.9823 235.305 25.8707 234.738 25.9657C235.053 25.9283 235.361 25.994 235.666 26.0482C236.6 26.22 237.512 26.4728 238.43 26.7012C239.198 26.904 239.961 27.0244 240.716 27.2324C241.369 27.4238 241.982 27.7177 242.61 27.9707C243.546 28.4123 244.493 28.8343 245.421 29.2915C245.58 29.3486 245.896 29.5693 246.243 29.7409C245.43 30.2438 245.055 31.0482 245.639 31.8023C245.613 31.9729 245.603 32.1441 245.626 32.3141C245.711 32.7022 246.055 32.961 246.387 33.1384C247.142 33.5558 248.093 33.5302 248.919 33.2359C249.118 33.1729 249.324 33.0716 249.522 32.9425C250.037 33.2414 250.835 33.1427 251.348 32.7627C251.642 32.6756 251.941 32.5357 252.075 32.2543C252.137 32.0821 252.154 31.9332 252.138 31.805C252.138 31.8049 252.139 31.8047 252.14 31.8044C252.139 31.8046 252.138 31.8046 252.138 31.8046C252.096 31.4698 251.819 31.2855 251.459 31.2546C251.423 31.2147 251.384 31.1782 251.343 31.1453C251.412 31.0219 251.467 30.8925 251.502 30.7563C251.533 30.4487 251.4 30.1603 251.204 29.9269C251.041 29.326 250.535 28.8523 249.877 28.8214C249.443 28.7934 248.946 28.8267 248.483 28.8957C248.143 28.9168 247.805 28.988 247.489 29.1171C247.447 29.1306 247.406 29.1442 247.367 29.1581C247.072 29.0508 246.791 28.9086 246.504 28.7822C244.594 27.9771 242.717 26.9937 240.629 26.669C239.349 26.5 238.083 26.2574 236.804 26.0822C236.842 26.0788 236.88 26.0745 236.918 26.0712C238.391 26.2338 239.815 26.5316 241.276 26.7607C242.542 26.9604 245.016 26.8446 245.575 26.7936C247.415 26.806 248.744 26.9462 250.842 26.7327C251.508 26.6448 252.178 26.6483 252.844 26.5559C253.21 26.5142 253.553 26.4712 253.895 26.4264C253.911 26.4406 253.931 26.4543 253.956 26.4672C254.184 26.5074 254.416 26.4805 254.648 26.4399C254.955 26.4381 255.217 26.433 255.661 26.4747C256.093 26.5413 256.221 26.624 256.815 26.7178C257.385 26.7753 258.046 26.8077 258.879 26.8248C260.433 26.8394 261.642 26.7429 262.872 27.1713C264.227 27.5975 265.827 28.1462 266.753 28.7738C267.319 29.1275 267.734 29.6649 268.275 30.05C269.044 30.5624 269.875 31.0109 270.745 31.3403C271.949 31.6932 273.224 31.7393 274.47 31.8986C275.765 31.9606 277.064 32.1625 278.369 31.9976C280.951 31.6486 283.078 31.0889 285.398 30.917C286.25 30.9381 287.175 30.6942 287.343 29.9981C287.395 29.94 287.4 29.8475 287.343 29.7984C287.085 29.6329 286.837 29.4518 286.567 29.3061C285.412 28.6881 284.159 28.2651 282.931 27.8008C280.226 26.8455 277.475 25.9912 274.631 25.4754C273.371 25.2189 272.089 25.0748 270.814 24.8947C269.699 24.7361 268.577 24.6101 267.444 24.574C266.834 24.5411 266.225 24.5301 265.615 24.5357C265.79 24.4881 265.964 24.4382 266.138 24.3842C266.643 24.2219 267.172 23.9764 267.628 23.8121C268.609 23.5342 269.61 23.336 270.597 23.0815C271.233 22.9328 271.859 22.7453 272.473 22.5123C272.547 22.4861 272.62 22.4564 272.693 22.4255C273.187 22.2836 273.68 22.1376 274.171 21.9854C274.497 21.9352 274.804 21.9018 275.084 21.8416C276.287 21.6084 277.479 21.3042 278.689 21.1135C278.956 21.0751 279.222 21.037 279.489 20.9988C280.755 20.8218 282.028 20.8366 283.296 20.6944C284.625 20.5274 285.95 20.2285 287.228 19.7927C288.688 19.2529 290.104 18.5905 291.558 18.033C292.575 17.6132 293.614 17.2403 294.59 16.7206C296.533 15.6537 298.241 14.1594 299.504 12.3302C300.836 10.404 302.266 8.51799 304.002 6.92757C304.673 6.3271 305.306 5.67961 306.027 5.13908C306.436 4.81958 306.924 4.62985 307.339 4.32161C307.436 4.25735 307.556 4.16304 307.535 4.03758ZM172.145 34.9506C172.424 34.7337 172.703 34.5161 172.98 34.2963C173.029 34.2577 173.078 34.22 173.127 34.1816C173.425 33.9702 173.734 33.7745 174.07 33.6071C174.9 33.2234 175.884 32.7216 176.64 32.395C177.408 32.1136 178.245 31.9232 179.138 31.6996C181.578 31.1248 183.876 30.7326 186.321 30.6064C188.059 30.5374 189.803 30.4119 191.537 30.4644C192.647 30.5523 193.731 30.7911 194.825 30.9653C194.863 30.9718 194.901 30.9779 194.938 30.9846C194.903 30.974 194.867 30.963 194.832 30.9523C194.551 30.8672 194.27 30.7825 193.989 30.6981C193.388 30.5256 192.791 30.3352 192.175 30.2096C191.312 30.0369 190.421 30.0421 189.539 30.0129C188.141 29.9748 186.739 29.9565 185.338 30.0664C183.73 30.2023 182.131 30.4844 180.546 30.8245C179.194 31.1144 177.839 31.4396 176.524 31.8911C176.333 31.9656 176.144 32.0472 175.957 32.1323C176.596 31.7128 177.247 31.3134 177.913 30.9387C180.046 29.743 182.329 28.8585 184.662 28.2023C186.514 27.6291 188.429 27.2642 190.348 27.2304C191.441 27.2474 192.546 27.182 193.631 27.2824C193.974 27.3417 194.923 27.6477 195.567 27.8309C197.22 28.3151 198.872 28.8097 200.491 29.3889C201.153 29.6398 201.747 30.0273 202.417 30.2612C204.366 31.024 206.426 31.4993 208.482 31.9324C209.651 32.053 210.841 31.9373 212.019 31.8993C212.363 31.8599 212.714 31.8684 213.064 31.8688C212.891 31.9701 212.718 32.0711 212.546 32.1726C211.138 32.825 208.44 34.434 206.36 34.5869C205.034 34.6355 203.705 34.6656 202.382 34.6355C200.719 34.4499 199.06 34.2267 197.394 34.046C195.392 33.7554 193.44 33.2218 191.437 32.931C190.217 32.7533 189.025 32.4377 187.788 32.3463C186.926 32.2315 186.052 32.2173 185.18 32.178C184.216 32.0917 183.253 31.9821 182.278 32.0405C179.677 32.1577 177.111 32.8037 174.625 33.6397C173.702 33.9081 172.888 34.3959 172.124 34.9683C172.131 34.9623 172.138 34.9565 172.145 34.9506ZM169.849 36.8656C169.476 37.1962 169.106 37.531 168.737 37.8661C168.877 37.7071 169.019 37.5505 169.159 37.3927C169.64 36.9979 170.125 36.6078 170.609 36.2161C170.355 36.4352 170.102 36.6537 169.849 36.8656ZM181.337 27.2912C181.76 27.0777 182.215 26.866 182.734 26.6386C182.795 26.6156 182.857 26.5932 182.919 26.5718C182.387 26.8009 181.859 27.0397 181.337 27.2912ZM193.533 22.7759C193.201 22.7887 192.87 22.8091 192.539 22.8472C194.485 21.9254 196.417 20.968 198.29 19.902C200.16 18.6827 201.91 17.1985 203.232 15.3857C203.805 14.5589 204.172 13.6216 204.612 12.7263C204.941 12.035 205.219 11.3202 205.627 10.6669C204.894 11.6034 204.341 12.659 203.716 13.6648C202.893 15.1847 201.782 16.4171 200.478 17.5388C199.42 18.4643 198.429 19.2466 197.251 19.9713C197.571 19.6846 197.874 19.3797 198.136 19.0364C198.507 18.5716 198.83 18.0729 199.171 17.5868C199.51 17.0998 199.901 16.6415 200.181 16.1186C200.567 15.3127 200.847 14.4643 201.185 13.6392C201.463 12.9184 201.784 12.2132 202.059 11.491C202.627 9.65608 203.475 8.24676 204.865 7.0707C205.936 6.0713 207.064 5.13699 208.175 4.18433C208.649 3.74131 209.137 3.29203 209.553 2.78975C209.525 3.15279 209.466 3.53183 209.38 3.96024C209.238 4.70997 209.093 5.45942 208.954 6.20956C208.865 6.7117 208.831 7.22635 208.656 7.71305C208.577 7.99416 208.239 8.42508 207.984 8.90969C207.436 9.87738 206.911 10.8576 206.301 11.7897C205.559 12.9521 204.649 13.9978 203.768 15.058C203.361 15.6177 202.958 16.1797 202.516 16.7142C201.724 17.6979 200.913 18.4398 199.787 19.353C198.913 20.1073 197.94 20.8527 196.997 21.3607C196.021 21.9103 195.027 22.1979 193.984 22.6016C193.837 22.6587 193.686 22.7168 193.533 22.7759ZM217.932 21.457C219.588 20.8705 221.257 20.1016 222.84 19.3218C224.336 18.4312 225.857 17.5769 227.315 16.6227C228.206 15.9351 229.123 15.2844 230.052 14.651C230.791 14.1174 231.601 13.5161 232.357 13.0936C232.866 12.7994 233.426 12.6578 234.019 12.463C234.733 12.2391 234.692 12.2395 235.379 12.0769C235.69 12.0176 236.002 11.9626 236.313 11.9053C238.135 11.715 239.95 11.4376 241.766 11.1757C242.182 11.1238 242.912 11.0075 243.547 10.9242C243.346 11.2333 243.105 11.5138 242.858 11.7877C241.602 13.1086 239.357 15.1654 237.507 16.4321C236.454 17.1533 235.328 17.7548 234.2 18.3427C233.213 18.8587 232.216 19.362 231.183 19.7715C229.652 20.3382 228.069 20.7243 226.511 21.1932C224.947 21.6304 222.879 22.0843 221.065 22.3028C219.23 22.4986 217.388 22.5923 215.55 22.6489C216.726 22.4744 217.885 22.1727 219.038 21.8612C220.534 21.4763 222.02 21.0464 223.497 20.5843C225.686 19.8551 227.815 18.9272 229.96 18.0646C230.306 17.9246 231.03 17.6406 231.496 17.4509C231.146 17.5634 230.796 17.6763 230.446 17.7898C228.893 18.295 227.356 18.8542 225.809 19.3808C223.134 20.3422 220.115 21.1318 217.551 21.8025C216.628 22.0498 215.695 22.1936 214.756 22.2826C215.83 22.0911 216.887 21.7823 217.932 21.457ZM231.779 27.2421C233.371 27.7899 234.95 28.3881 236.424 29.1885C237.682 29.8845 239.346 31.0331 240.653 32.0708C241.732 32.9363 242.785 33.8408 243.722 34.8581C244.986 36.2737 246.154 37.7714 247.317 39.2705C247.754 39.8355 248.19 40.4007 248.634 40.96C248.404 40.9177 248.173 40.8822 247.945 40.8498C246.779 40.7241 245.594 40.6838 244.445 40.4615C243.34 40.1848 241.388 39.4589 240.346 38.5979C239.107 37.6316 237.907 36.6102 236.835 35.4606C235.999 34.5712 235.221 33.6288 234.425 32.7041C234.036 32.2552 233.578 31.8745 233.151 31.4625C232.424 30.7319 231.707 29.9917 231.016 29.2273C230.605 28.7886 230.179 28.3625 229.733 27.9589C232.584 29.452 235.316 31.4586 238.142 33.2591C239.38 34.1343 240.657 34.9555 241.875 35.8577C241.906 35.8786 242.081 36.0164 241.933 35.8859C241.183 35.1562 240.38 34.4862 239.579 33.8127C236.242 31.0583 232.684 28.5141 228.721 26.6911C228.127 26.4182 227.526 26.1533 226.919 25.9027C226.669 25.7447 226.411 25.598 226.142 25.4739C228.044 25.9952 229.916 26.6114 231.779 27.2421ZM239.361 25.3733C240.053 25.154 240.73 24.8665 241.398 24.5909C242.834 23.9612 244.291 23.3875 245.74 22.7901C246.524 22.4498 247.342 22.2011 248.115 21.8307C249.183 21.3069 250.193 20.6686 251.209 20.0465C253.495 18.6087 255.753 17.1234 257.999 15.6206C258.249 15.4651 258.499 15.3092 258.748 15.153C258.342 15.3692 257.931 15.5767 257.534 15.8111C254.355 17.604 251.261 19.5507 248.092 21.3607C247.388 21.7498 246.622 21.984 245.884 22.2896C244.027 23.044 242.174 23.811 240.329 24.5961C239.637 24.8574 238.925 25.1131 238.191 25.1757C238.055 25.1915 237.929 25.1612 237.807 25.1132C237.835 25.1053 237.864 25.0974 237.897 25.0913C238.962 24.8128 240.04 24.4998 241.032 23.9968C241.759 23.6068 242.463 23.1745 243.195 22.7946C243.53 22.6432 243.893 22.5121 244.226 22.2954C245.211 21.6681 246.04 20.8292 246.935 20.0828C248.434 18.8627 249.745 17.4418 251.119 16.0858C252.279 14.9278 253.516 13.8253 254.928 12.9873C255.765 12.5309 256.637 12.157 257.524 11.8435C258.899 11.3695 260.264 10.8555 261.672 10.506C263.265 10.0282 265.27 9.42713 266.62 9.10192C267.382 9.01637 268.072 8.6525 268.781 8.36763C270.032 7.85089 271.27 7.29437 272.445 6.60974C272.933 6.3328 273.38 5.99327 273.821 5.64581C273.706 5.99549 273.362 6.36257 273.016 6.77526C272.541 7.36239 272.208 7.6901 271.618 8.33077C270.526 9.50418 269.446 10.7003 268.204 11.7182C266.307 13.2517 264.865 14.4017 262.985 15.7686C260.014 17.9248 256.601 19.2762 253.354 20.9152C251.555 21.7518 250.253 22.3501 248.534 22.9993C247.21 23.5 245.85 23.8836 244.492 24.2653C243.258 24.6062 242.44 24.838 241.248 25.1137C240.787 25.2302 240.324 25.3445 239.862 25.4557C239.696 25.4265 239.529 25.3992 239.361 25.3733ZM264.195 24.4229C264.621 24.3411 265.046 24.2565 265.47 24.1704C264.751 24.3563 264.065 24.5089 263.392 24.6286C263.284 24.6364 263.175 24.6438 263.066 24.6524C263.443 24.5774 263.819 24.5002 264.195 24.4229ZM268.767 25.2367C271.58 25.5852 274.392 25.977 277.115 26.7171C278.957 27.2248 280.769 27.8275 282.557 28.4813C283.6 28.871 285.041 29.427 285.753 29.8476C285.93 29.9542 286.098 30.0742 286.27 30.1894C286.28 30.1961 286.29 30.2026 286.3 30.2091C286.282 30.246 286.265 30.2831 286.251 30.3137C286.18 30.3172 286.095 30.319 286.034 30.3218C285.302 30.3327 284.573 30.4722 283.842 30.5444C282.319 30.7442 280.297 31.1742 279.044 31.3414C277.75 31.537 276.465 31.3095 275.182 31.2329C273.937 31.0601 272.646 30.9854 271.749 30.6921C271.173 30.4964 270.656 30.1752 270.115 29.9076C270.063 29.8839 269.489 29.5448 269.206 29.3003C268.758 28.905 268.35 28.4561 267.832 28.1469C266.979 27.6153 266.043 27.2286 265.087 26.9059C264.2 26.6199 263.322 26.2816 262.383 26.1777C260.793 26.045 259.385 26.1805 258.092 26.0784C258.581 25.9831 259.07 25.8874 259.566 25.8702C261.774 25.7991 263.949 26.1647 266.142 26.2868C267.56 26.3526 268.904 26.7594 270.271 27.0666C271.19 27.277 272.147 27.2877 273.094 27.278C273.596 27.2794 274.097 27.2318 274.599 27.1962C274.242 27.1905 273.885 27.1973 273.529 27.1802C272.532 27.117 271.522 27.0493 270.578 26.7377C269.817 26.5032 269.063 26.2441 268.292 26.0425C267.659 25.8958 267.008 25.8218 266.36 25.7497C264.674 25.6006 262.989 25.3853 261.292 25.3333C261.682 25.2942 262.071 25.2447 262.459 25.1861C264.568 25.023 266.679 24.9996 268.767 25.2367ZM304.044 6.05892C302.496 7.40509 301.099 8.90858 299.858 10.5395C298.905 11.7627 297.992 13.21 297.089 14.0728C296.17 15.0096 295.082 15.7706 293.94 16.4032C292.624 17.0517 291.241 17.5384 289.888 18.096C288.075 18.8628 286.532 19.5628 284.557 19.8996C283.157 20.1904 281.733 20.1159 280.326 20.3057C279.524 20.3966 278.727 20.5317 277.935 20.691C280.045 19.8735 282.105 18.9135 284.127 17.8843C287.84 16.009 291.435 13.8455 294.698 11.2319C294.936 11.0447 295.173 10.8568 295.411 10.669C295.133 10.8477 294.856 11.0264 294.578 11.2057C291.288 13.3658 287.845 15.2735 284.365 17.0903C281.876 18.3707 279.344 19.5804 276.717 20.5199C275.751 20.8654 274.778 21.1835 273.8 21.4806C273.924 21.3521 274.077 21.2415 274.204 21.1361C274.895 20.5876 275.705 20.25 276.489 19.8727C277.592 19.3324 278.726 18.8538 279.796 18.2454C281.333 17.3073 282.844 16.3035 284.226 15.1413C285.131 14.2944 285.983 13.3925 286.892 12.5479C287.724 11.8278 288.575 11.1272 289.406 10.4046C290.31 9.69349 291.431 8.96088 292.532 8.06746C293.669 7.12537 295.065 6.33308 296.465 5.77906C297.076 5.54649 297.666 5.22615 298.307 5.10472C299.483 4.87981 300.677 4.86492 301.862 4.75392C303.245 4.63583 304.627 4.52789 306.01 4.51969C305.301 4.95645 304.649 5.47833 304.044 6.05892Z" fill="#B1C5AA" fill-opacity="0.6"/>
<path d="M0.248071 4.03758C0.349924 3.85091 0.617615 3.9398 0.796859 3.93548C1.25164 3.95259 1.70623 3.94244 2.16119 3.9544C3.31702 3.95732 4.47325 4.09489 5.62908 4.16986C6.84636 4.28058 8.073 4.31396 9.28125 4.54458C10.1201 4.68897 10.8884 5.08414 11.6794 5.39641C13.286 6.03833 14.7883 6.91825 16.1303 8.02824C17.1894 8.89411 18.0036 9.38762 19.1551 10.2955C19.9914 11.026 20.8468 11.7346 21.6849 12.4623C22.575 13.2957 23.4127 14.1825 24.294 15.0242C25.6352 16.1588 27.0891 17.1596 28.5511 18.1267C29.5892 18.7447 30.6789 19.268 31.73 19.8622C32.4128 20.2212 33.0969 20.5901 33.6729 21.1156C33.7855 21.225 33.943 21.3568 34.0576 21.5036C37.4789 22.5387 40.9666 23.3047 44.4636 23.9694C45.8552 24.2826 47.2667 24.4329 48.6731 24.626C49.4218 24.7314 49.999 24.8068 50.5706 24.8738C50.1391 24.7007 49.78 24.5493 49.6383 24.4863C47.2521 23.5712 44.8826 22.5593 42.6843 21.222C41.9374 20.674 41.2214 20.1166 40.5107 19.5245C40.4128 19.7768 40.2629 20.0033 40.0458 20.1816C39.6521 20.3994 39.0824 20.4251 38.4887 20.3108C38.4205 20.3474 38.3506 20.3812 38.2775 20.41C37.5963 20.6285 36.6962 20.4232 36.2264 19.8284C36.0413 19.5372 36.0069 19.194 35.9246 18.8699C35.8387 18.4926 35.7822 18.0981 35.843 17.7195C35.8477 17.6263 35.8531 17.5336 35.8579 17.441C35.6127 17.4438 35.2625 17.3609 35.2282 17.2088C35.1586 17.1795 35.0917 17.1467 35.0293 17.1105C34.5813 16.8372 34.4621 16.229 34.5833 15.7668C34.6622 15.5229 34.9486 15.4952 35.1751 15.5083C35.6084 15.5354 36.0074 15.7723 36.279 16.1158C36.2872 16.124 36.294 16.1321 36.3019 16.1402C36.5651 15.9125 36.9073 15.7963 37.2704 15.76C37.2835 15.756 37.2963 15.7507 37.3094 15.7471C37.4504 15.6505 37.6009 15.5685 37.7593 15.5064C38.2999 15.3436 38.9013 15.5204 39.3926 15.8016C39.8218 16.03 40.0833 16.4541 40.2099 16.9202C40.2395 16.9672 40.2693 17.014 40.2958 17.0628C40.4108 17.2176 40.4931 17.3791 40.5304 17.5425C40.5562 17.5965 40.5794 17.6523 40.5987 17.7106C40.6796 18.0536 40.7579 18.4823 40.6762 18.8357C40.8463 19.0023 41.0548 19.1854 41.2691 19.3687C42.0107 19.9849 42.7428 20.6236 43.5375 21.1688C44.283 21.599 45.5782 22.2967 46.6341 22.7718C47.8838 23.3324 48.5805 23.6205 49.8821 24.1297C50.8463 24.5345 51.3599 24.7622 52.215 25.0488C52.352 25.0625 52.4925 25.0762 52.642 25.0908C55.0502 25.3782 57.4616 25.5088 59.8755 25.6202C61.2993 25.6981 62.7209 25.6314 64.1434 25.6428C65.117 25.636 66.0925 25.6405 67.0652 25.612C67.1844 25.5898 67.3035 25.5677 67.4227 25.5455C66.68 25.4002 65.9384 25.2465 65.1958 25.1007C62.9583 24.5596 60.7033 24.0426 58.5527 23.1716C56.053 22.2245 53.6487 21.0287 51.2381 19.8622C49.4186 19.0178 47.6011 18.1622 45.8873 17.102C44.0747 16.0064 42.4072 14.6809 40.7384 13.3759C39.1547 12.1638 37.6135 10.8957 36.2654 9.41836C35.6104 8.71356 34.9508 8.01294 34.3012 7.30327C33.7943 6.67136 33.1732 6.10635 32.8888 5.3366C32.7999 5.16815 32.6819 5.00263 32.6902 4.81095C32.6769 4.70385 32.7746 4.63166 32.8317 4.55557C32.9446 4.471 33.1023 4.48783 33.2379 4.51176C33.5847 4.56907 33.8325 4.83557 34.1097 5.03406C34.5395 5.348 34.9394 5.70158 35.3694 6.01455C36.9501 7.06319 38.7304 7.72988 40.461 8.45916C40.6907 8.52439 40.9296 8.54428 41.1623 8.5938C41.5503 8.68338 41.933 8.79939 42.3189 8.89939L42.2509 8.88131C43.602 9.23392 44.9403 9.63897 46.2809 10.0353C47.2715 10.2787 48.2395 10.6023 49.2049 10.9416C50.1243 11.2576 51.0488 11.562 51.9406 11.9587C54.7682 13.0895 56.9226 15.3477 59.0361 17.4798C60.1897 18.73 61.5167 19.7952 62.7912 20.916C63.2723 21.3314 63.7461 21.7656 64.2953 22.0886C64.5934 22.2601 64.9001 22.3335 65.2109 22.5142C66.0559 22.9579 66.8745 23.5172 67.7339 23.8975C68.3211 24.1248 68.9625 24.324 69.5776 24.5118C69.9047 24.5886 70.2338 24.6651 70.541 24.8106C70.6971 24.8775 70.8383 24.9759 70.9425 25.0817C72.9042 24.8854 74.8722 24.7346 76.8407 24.5888C78.3647 24.4596 79.8808 24.2723 81.405 24.1448C82.877 24.0498 83.6478 24.1231 85.2188 23.9916C85.7411 23.9501 86.2622 23.9013 86.7829 23.8501C88.1021 23.7025 89.4198 23.5456 90.7369 23.3829C91.4997 23.3101 92.2624 23.2347 93.0255 23.1596C92.6361 23.1592 92.2466 23.1564 91.8573 23.1509C90.4307 23.1204 89.0008 23.0029 87.5747 22.896C85.4507 22.6695 83.3414 22.2472 81.2678 21.6805C79.6895 21.2116 78.0888 20.8213 76.5349 20.2641C75.3785 19.8308 74.2649 19.2833 73.1656 18.7137C71.5623 17.8893 69.9633 17.0295 68.534 15.9112C66.7387 14.5125 64.9913 13.0186 63.4945 11.2978C63.2863 11.0512 63.1152 10.7775 62.941 10.5073C62.909 10.4712 62.8957 10.4314 62.9011 10.388C62.922 10.1333 63.3376 10.2381 63.514 10.249C63.9579 10.2958 64.4001 10.3634 64.8423 10.4283C66.5954 10.6918 68.3496 10.9448 70.1056 11.1772C70.7264 11.1939 72.7821 11.5244 73.8721 11.9318C74.6254 12.1666 75.3914 12.3883 76.0793 12.7976C77.0952 13.3541 78.0033 14.0825 78.9627 14.7293C79.8914 15.329 80.7326 16.0542 81.6527 16.6643C82.9574 17.4621 84.2769 18.2601 85.5904 19.0283C87.0651 19.7305 88.5468 20.4502 90.0666 20.979C91.321 21.3659 91.8789 21.5353 93.066 21.7513C94.2326 21.8779 95.4046 21.9713 96.5735 22.0019C97.2909 22.0296 98.9378 21.8923 100.045 22.0214C100.524 22.1234 101.088 22.1602 101.485 22.4797C102.5 22.4337 103.516 22.4052 104.535 22.4035C105.167 22.3228 105.805 22.2701 106.447 22.2513C106.083 22.218 105.72 22.1676 105.362 22.0754C104.125 21.7905 103.004 21.1425 101.879 20.5597C101.261 20.2571 100.643 19.9549 100.049 19.6046C99.9839 19.5735 99.9225 19.5367 99.8622 19.4985C99.4902 19.6788 99.0602 19.74 98.6454 19.6277C98.1822 19.5146 97.7077 19.293 97.4222 18.8894C97.027 18.2395 96.833 17.3237 97.2165 16.6661C97.2246 16.6234 97.2358 16.5817 97.2481 16.5403C97.1488 16.5509 97.0424 16.5469 96.939 16.527C96.8001 16.5395 96.5999 16.4663 96.5306 16.4001C96.4675 16.353 96.4557 16.2751 96.4695 16.2044C96.4699 16.2019 96.47 16.1993 96.4704 16.1968C96.4648 16.1843 96.4566 16.1741 96.4519 16.1609C96.4416 15.9787 96.5075 15.7895 96.6064 15.6423C96.8996 15.2085 97.5332 15.5554 97.7381 15.9692C98.0326 15.8364 98.3653 15.8229 98.6978 15.8852C99.1477 15.9019 99.5954 16.0797 99.9081 16.4142C100.231 16.6377 100.518 16.9269 100.66 17.2967C100.857 17.7887 101.021 18.5362 100.542 18.8591C100.524 18.9078 100.504 18.9557 100.482 19.0022C100.462 19.0442 100.437 19.082 100.409 19.1179C100.436 19.1425 100.465 19.1695 100.497 19.1989C101.096 19.5648 101.293 19.6623 102.1 20.0816C103.047 20.5889 104.06 21.2073 104.808 21.502C105.805 21.911 106.818 21.9181 107.971 22.1025C108.311 22.1647 108.648 22.2467 108.982 22.3454C109.649 22.411 110.315 22.5069 110.979 22.6192C111.538 22.6486 112.096 22.7034 112.654 22.7366C112.895 22.7448 113.137 22.7493 113.378 22.7538C112.382 22.4415 111.38 22.1441 110.442 21.6673C109.285 21.1034 108.233 20.3499 107.245 19.5217C106.479 18.9039 105.704 18.2911 105.027 17.5748C104.247 16.7505 103.547 15.861 102.869 14.9544C101.657 13.5823 100.498 12.1562 99.5886 10.5674C99.2198 9.91744 98.8513 9.26744 98.4825 8.61745C98.1291 8.05536 97.7589 7.48493 97.674 6.82047C97.4618 5.30613 97.0419 3.81308 96.9146 2.29095C96.8582 1.55848 97.0212 0.848948 97.1997 0.154026C97.3894 -0.178691 98.1263 0.100057 98.3603 0.31176C98.457 0.388819 98.5071 0.501209 98.5003 0.620414C98.5024 0.68259 98.5015 0.744765 98.4962 0.806524C98.4937 0.825719 98.4924 0.844219 98.4914 0.860632C98.4999 1.10196 98.5533 1.34107 98.6099 1.57725C98.7486 2.16702 98.8263 2.3331 99.2261 2.81729C99.5586 3.2076 99.9278 3.5858 100.474 4.07458C101.564 5.01222 102.681 5.91732 103.74 6.89085C104.708 7.70665 105.564 8.66919 106.127 9.80546C106.531 10.5521 106.744 11.3681 107.054 12.1498C107.567 13.3826 108.232 15.2523 108.62 16.1816C108.962 16.8219 109.437 17.3853 109.806 18.0113C110.234 18.6962 110.654 19.4021 111.248 19.962C111.642 20.3278 112.029 20.7049 112.454 21.0355C112.697 21.2165 112.964 21.3586 113.226 21.5084C114.051 21.9716 114.873 22.4305 115.71 22.893C115.733 22.9031 115.755 22.9133 115.778 22.9233C116.84 23.0847 117.869 23.442 118.904 23.7394C120.248 24.1092 121.597 24.4696 122.875 25.0583C122.805 25.0303 122.735 25.0024 122.665 24.9744C123.659 25.3893 124.69 25.6905 125.691 26.085C126.921 26.6377 128.131 27.2713 129.266 28.0105C131.419 29.5021 133.515 31.0885 135.49 32.8143C136.171 33.4415 136.801 34.1197 137.455 34.7747C136.539 33.4807 135.581 32.2139 134.794 30.8412C134.098 29.78 133.223 28.8407 132.46 27.8253C131.551 26.5655 130.507 25.6186 129.241 24.3817C128.065 23.3307 125.991 21.8617 124.989 21.0779C123.155 19.6871 121.3 18.2982 119.659 16.6758C118.948 15.9243 118.33 15.0933 117.688 14.2848C117.075 13.3966 116.416 12.4964 116.089 11.4663C115.865 10.5876 115.994 9.7113 115.968 8.92541C115.859 7.53626 115.792 6.1261 116.024 4.7613C116.019 6.21777 116.3 7.67104 116.605 9.10345C116.739 9.93691 116.745 10.7919 117.04 11.6005C117.445 12.5642 118.394 13.7956 119.212 14.8011C119.828 15.5448 120.332 16.2226 120.806 16.6829C122.718 18.5197 124.865 20.0839 126.967 21.6887C127.772 22.3007 129.316 23.3922 130.392 24.3954C131.328 25.297 132.259 26.2082 133.107 27.1941C133.522 27.7292 133.926 28.2722 134.35 28.8011C134.834 29.4246 135.347 30.0272 135.804 30.6705C136.157 31.2736 136.52 31.8698 136.908 32.4528C137.682 33.5933 138.508 34.7051 139.26 35.8608C138.997 35.3083 138.731 34.7453 138.469 34.1572C137.508 32.3722 136.303 29.8832 135.126 27.9171C135.076 27.8342 135.026 27.7512 134.976 27.6683C135.121 27.859 135.266 28.0497 135.411 28.2407C136.294 29.4779 137.137 30.7401 137.912 32.0451C138.873 33.5501 139.714 35.1176 140.493 36.7172C139.944 35.281 139.419 33.8355 138.79 32.4312C138.212 31.2873 137.078 29.5395 136.287 28.1996C135.866 27.5189 135.478 26.8184 135.043 26.1463C134.448 25.3052 133.763 24.5294 133.11 23.7328C131.269 21.5929 128.901 19.6242 126.515 17.6477C125.492 16.7917 124.435 15.9746 123.429 15.0982C122.844 14.534 122.316 13.9138 121.721 13.3595C119.267 11.0447 117.389 8.41798 116.45 5.1847C116.419 5.09304 116.385 5.00207 116.353 4.91082C116.495 5.17135 116.626 5.4373 116.759 5.70228C117.287 6.75899 117.908 7.76924 118.591 8.73721C119.606 10.1664 120.82 11.4511 122.086 12.6633C122.495 13.0475 122.909 13.4272 123.304 13.826C123.773 14.3038 124.2 14.8247 124.716 15.2554C127.995 18.0118 131.457 20.6164 134.252 23.887C134.811 24.5862 135.399 25.2651 135.919 25.9937C136.528 26.912 137.031 27.8946 137.609 28.832C138.363 30.1244 139.196 31.3837 139.772 32.7643C140.51 34.7637 140.989 36.8365 141.593 38.8736C141.641 38.9698 141.688 39.0665 141.735 39.1634C141.944 39.4077 142.15 39.6544 142.354 39.903C142.473 40.0338 142.592 40.1646 142.711 40.2954C143.014 40.6326 143.279 41.0013 143.565 41.3521C144.03 41.9409 144.444 42.5671 144.886 43.1729C145.686 44.2868 146.457 45.4289 147.12 46.6258C147.798 47.9667 148.404 49.3469 148.882 50.7643C149.221 51.4662 149.554 52.1711 149.89 52.8738C149.649 52.4828 149.411 52.0896 149.174 51.6957C149.291 52.0945 149.4 52.4952 149.492 52.9C149.098 51.912 148.646 50.948 148.158 50.0009C147.611 49.0932 147.056 48.1905 146.467 47.3078C144.904 45.1599 143.289 43.0464 141.642 40.959C141.512 40.7982 141.381 40.6379 141.25 40.4773C141.022 40.3022 140.853 40.0438 140.686 39.792C140.214 39.2227 139.735 38.6573 139.249 38.098C138.21 37.3153 137.171 36.534 136.099 35.7995C135.413 35.3134 134.725 34.8168 133.964 34.4603C132.546 33.9443 131.915 33.8756 131.081 33.6344C128.388 32.9073 125.897 32.6052 123.491 32.923C121.635 32.9685 119.793 33.1503 117.989 33.528C117.089 33.6874 116.176 33.7842 115.286 33.9889C114.028 34.2372 112.768 34.4795 111.506 34.7127C110.43 34.836 109.352 34.9537 108.274 35.069C107.101 35.2106 105.953 35.3859 104.756 35.3215C103.59 35.2774 102.419 35.3293 101.255 35.1731C99.714 34.9013 98.2533 34.2436 96.8367 33.5665C95.7934 33.0409 94.7351 32.5443 93.7354 31.9331C93.5965 31.8499 93.4574 31.7666 93.3189 31.6822C93.2618 31.6605 93.2053 31.6367 93.149 31.6097C92.76 31.4305 92.4441 31.135 92.1188 30.8605C92.0456 30.7899 91.9459 30.7372 91.9083 30.6395C91.8123 30.4403 92.0702 30.3884 92.224 30.4029C92.4898 30.4079 92.701 30.5341 92.9018 30.6847C92.9023 30.6847 92.9029 30.6847 92.9034 30.6849C92.8556 30.6481 92.8739 30.662 92.9039 30.6849C92.9046 30.685 92.9054 30.685 92.906 30.685C92.9175 30.6944 92.9241 30.6999 92.9282 30.7034C92.9517 30.7212 92.974 30.7381 92.9745 30.7385C93.0478 30.7922 93.1194 30.8507 93.191 30.9092C93.2378 30.9448 93.2852 30.9795 93.3337 31.0117C93.43 31.077 93.5282 31.1391 93.6259 31.202C94.1312 31.197 94.7193 31.2015 95.2567 31.2365C96.3071 31.2731 97.3647 31.3757 98.4104 31.3045C99.0843 31.2286 99.6578 31.0319 100.519 30.8527C101.98 30.5288 103.414 30.1001 104.795 29.545C105.317 29.3408 105.791 29.0378 106.316 28.8399C107.111 28.5375 107.93 28.3017 108.74 28.0405C110.315 27.566 111.885 27.0556 113.492 26.6852C114.16 26.6043 114.842 26.6555 115.517 26.6477C116.242 26.6469 116.966 26.6324 117.692 26.6776C119.697 26.7981 121.676 27.2458 123.607 27.8572C126.299 28.646 128.916 29.7576 131.332 31.2315C132.464 31.9164 133.533 32.7002 134.56 33.537C135.24 33.9693 135.848 34.5103 136.44 35.0641C134.973 33.5901 133.417 32.2105 131.728 30.9924C127.608 27.9564 122.843 25.9587 117.952 24.7292C116.406 24.3027 114.85 23.9203 113.279 23.6358C112.654 23.5986 111.861 23.5161 111.474 23.5081C111.478 23.5103 111.481 23.5124 111.485 23.5147C111.481 23.5124 111.477 23.5104 111.473 23.5081C111.393 23.5064 111.329 23.5078 111.289 23.5136C109.602 23.6256 108.428 23.5338 107.066 23.6337C105.52 23.6893 103.991 23.9096 102.439 23.8871C101.844 23.8882 101.312 23.8594 100.841 23.8465C100.744 23.8763 100.647 23.9055 100.55 23.9361C99.4735 24.2654 98.3841 24.5699 97.3317 24.9633C95.7061 25.5916 94.1597 26.3823 92.6193 27.182C91.2194 27.8693 90.0271 28.51 88.8381 29.2469C88.1329 29.6619 87.438 30.0961 86.8022 30.6097C86.7005 30.6995 86.5972 30.7875 86.4946 30.8765C86.7969 31.075 87.0657 31.3319 87.2794 31.6098C87.6858 32.2776 87.3499 33.1681 86.7359 33.5394C86.1797 33.9745 85.5508 34.3133 84.8046 34.2575C83.9067 34.2248 82.9738 33.9727 82.1734 33.5039C82.1518 33.5384 82.1251 33.5671 82.096 33.5925C82.058 33.6455 82.0145 33.6942 81.9673 33.7374C81.9313 33.8295 81.8775 33.913 81.8007 33.9781C81.2411 34.4055 80.1232 33.9384 79.9986 33.2275C79.9574 32.9897 80.0141 32.7262 80.2238 32.5952C80.2535 32.5729 80.2851 32.5539 80.3163 32.5346C80.3475 32.4835 80.382 32.435 80.4214 32.391C80.5414 32.2484 80.6984 32.1764 80.8688 32.1538C80.6866 31.4816 81.0364 30.7984 81.7651 30.5723C82.0289 30.4814 82.3017 30.4228 82.579 30.3879C83.4213 30.019 84.4555 30.0018 85.3472 30.3165C85.3529 30.3179 85.36 30.3201 85.368 30.3228C86.0605 29.8028 86.8765 29.3701 87.4324 29.0445C89.2328 27.921 91.1427 26.9878 93.043 26.0379C94.5388 25.2836 96.07 24.5858 97.679 24.0839C96.793 24.15 95.9042 24.1928 95.0132 24.2211C93.6927 24.2131 92.0895 24.2522 90.3725 24.3806C89.6346 24.4582 88.8973 24.5388 88.1592 24.6137C87.9074 24.6478 87.6557 24.6815 87.4039 24.715C87.1844 24.7412 86.9661 24.7727 86.7485 24.8071C85.9568 24.9562 85.2027 25.2362 84.4268 25.4394C83.9207 25.5784 83.3921 25.6387 82.9039 25.8346C82.2199 26.0741 81.8276 26.3933 81.1474 26.8462C79.6242 27.816 78.3532 29.1015 77.161 30.4413C76.2916 31.42 75.3066 32.2847 74.4035 33.2288C73.033 34.8319 71.6735 36.4587 70.0515 37.8177C69.1512 38.5624 68.2719 39.3526 67.2245 39.8952C66.176 40.4207 65.0692 40.8617 63.9069 41.0994C62.63 41.3276 61.3133 41.3293 60.03 41.5181C59.4662 41.621 58.9027 41.7503 58.3667 41.9454C58.2154 42.191 58.0887 42.4785 57.6468 42.4482C57.4148 42.4277 57.1656 42.3401 57.0121 42.1525C56.9806 42.1126 56.9694 42.0686 56.9786 42.0209C57.0218 41.885 57.0482 41.7261 57.1688 41.637C57.2943 41.5614 57.4252 41.4958 57.5583 41.4342C58.1587 40.6394 58.9755 39.6696 59.6185 38.8164C60.9219 37.167 62.2026 35.4905 63.6606 33.9743C65.5168 32.1555 67.6063 30.5819 69.8186 29.21C72.3479 27.678 75.2106 26.7573 78.08 25.9966C79.7155 25.5665 81.3683 25.1953 83.0438 24.9293C82.989 24.9307 82.9341 24.9321 82.8794 24.9335C82.3556 24.9796 81.8317 25.025 81.3078 25.0691C80.7167 25.1327 80.1265 25.2016 79.5349 25.2616C78.0986 25.4454 76.6518 25.5581 75.2028 25.6478C73.9611 25.8068 72.706 25.8707 71.4614 26.0128C71.2789 26.0278 71.0976 26.0463 70.9167 26.0659C70.9447 26.0702 70.9726 26.0749 71.0007 26.0791C71.1162 26.0634 71.2318 26.0473 71.3476 26.0328C71.9088 25.9823 72.4777 25.8707 73.0453 25.9657C72.7299 25.9283 72.4219 25.994 72.1166 26.0482C71.1832 26.22 70.271 26.4728 69.3529 26.7012C68.5854 26.904 67.8223 27.0244 67.0672 27.2324C66.4141 27.4238 65.8013 27.7177 65.1734 27.9707C64.2373 28.4123 63.2897 28.8343 62.3617 29.2915C62.2032 29.3486 61.8872 29.5693 61.5401 29.7409C62.3525 30.2438 62.7279 31.0482 62.144 31.8023C62.1699 31.9729 62.1804 32.1441 62.1569 32.3141C62.0718 32.7022 61.7283 32.961 61.3964 33.1384C60.6407 33.5558 59.6898 33.5302 58.8644 33.2359C58.6648 33.1729 58.4587 33.0716 58.2605 32.9425C57.7455 33.2414 56.9482 33.1427 56.4349 32.7627C56.1409 32.6756 55.8421 32.5357 55.7079 32.2543C55.6459 32.0821 55.6293 31.9332 55.6453 31.805C55.6446 31.8049 55.644 31.8047 55.6433 31.8044C55.644 31.8046 55.6448 31.8046 55.6455 31.8046C55.6873 31.4698 55.9639 31.2855 56.3237 31.2546C56.3603 31.2147 56.399 31.1782 56.4395 31.1453C56.3712 31.0219 56.316 30.8925 56.2806 30.7563C56.2499 30.4487 56.3833 30.1603 56.5786 29.9269C56.7423 29.326 57.2479 28.8523 57.9055 28.8214C58.3402 28.7934 58.8367 28.8267 59.3 28.8957C59.64 28.9168 59.978 28.988 60.294 29.1171C60.3361 29.1306 60.3772 29.1442 60.4159 29.1581C60.7109 29.0508 60.9924 28.9086 61.2785 28.7822C63.1893 27.9771 65.066 26.9937 67.1539 26.669C68.4342 26.5 69.7003 26.2574 70.9791 26.0822C70.9409 26.0788 70.9028 26.0745 70.8645 26.0712C69.3924 26.2338 67.9684 26.5316 66.5072 26.7607C65.2408 26.9604 62.7667 26.8446 62.2083 26.7936C60.3679 26.806 59.0393 26.9462 56.9412 26.7327C56.2752 26.6448 55.6054 26.6483 54.9394 26.5559C54.5733 26.5142 54.2296 26.4712 53.8884 26.4264C53.8721 26.4406 53.8519 26.4543 53.8269 26.4672C53.5985 26.5074 53.3671 26.4805 53.1347 26.4399C52.8275 26.4381 52.5657 26.433 52.1222 26.4747C51.6897 26.5413 51.5621 26.624 50.9675 26.7178C50.3983 26.7753 49.7367 26.8077 48.904 26.8248C47.3498 26.8394 46.1414 26.7429 44.9114 27.1713C43.5558 27.5975 41.9562 28.1462 41.0303 28.7738C40.464 29.1275 40.0486 29.6649 39.5078 30.05C38.7386 30.5624 37.9082 31.0109 37.0383 31.3403C35.8342 31.6932 34.5593 31.7393 33.3134 31.8986C32.0177 31.9606 30.7189 32.1625 29.4141 31.9976C26.8323 31.6486 24.7047 31.0889 22.3845 30.917C21.5329 30.9381 20.6081 30.6942 20.4398 29.9981C20.3884 29.94 20.3827 29.8475 20.4401 29.7984C20.6978 29.6329 20.9455 29.4518 21.2159 29.3061C22.3714 28.6881 23.6243 28.2651 24.8517 27.8008C27.557 26.8455 30.308 25.9912 33.1525 25.4754C34.4117 25.2189 35.6937 25.0748 36.9685 24.8947C38.0842 24.7361 39.206 24.6101 40.3385 24.574C40.9485 24.5411 41.558 24.5301 42.1675 24.5357C41.9927 24.4881 41.8185 24.4382 41.6453 24.3842C41.1403 24.2219 40.6105 23.9764 40.1551 23.8121C39.1741 23.5342 38.1729 23.336 37.1858 23.0815C36.5498 22.9328 35.9235 22.7453 35.3098 22.5123C35.2356 22.4861 35.1626 22.4564 35.0901 22.4255C34.5961 22.2836 34.1032 22.1376 33.6119 21.9854C33.2855 21.9352 32.9789 21.9018 32.6988 21.8416C31.4956 21.6084 30.3035 21.3042 29.0941 21.1135C28.8274 21.0751 28.5608 21.037 28.2941 20.9988C27.0279 20.8218 25.755 20.8366 24.487 20.6944C23.158 20.5274 21.8334 20.2285 20.5549 19.7927C19.0945 19.2529 17.6789 18.5905 16.2246 18.033C15.2075 17.6132 14.1685 17.2403 13.193 16.7206C11.2504 15.6537 9.54232 14.1594 8.27874 12.3302C6.94663 10.404 5.51704 8.51799 3.78075 6.92757C3.10983 6.3271 2.47716 5.67961 1.75571 5.13908C1.34744 4.81958 0.858886 4.62985 0.44422 4.32161C0.346563 4.25735 0.226632 4.16304 0.248071 4.03758ZM135.638 34.9506C135.359 34.7337 135.08 34.5161 134.803 34.2963C134.754 34.2577 134.705 34.22 134.656 34.1816C134.358 33.9702 134.049 33.7745 133.713 33.6071C132.883 33.2234 131.899 32.7216 131.143 32.395C130.375 32.1136 129.538 31.9232 128.645 31.6996C126.205 31.1248 123.906 30.7326 121.462 30.6064C119.724 30.5374 117.979 30.4119 116.246 30.4644C115.136 30.5523 114.052 30.7911 112.958 30.9653C112.92 30.9718 112.882 30.9779 112.845 30.9846C112.88 30.974 112.916 30.963 112.951 30.9523C113.232 30.8672 113.513 30.7825 113.794 30.6981C114.395 30.5256 114.992 30.3352 115.608 30.2096C116.471 30.0369 117.362 30.0421 118.244 30.0129C119.642 29.9748 121.044 29.9565 122.445 30.0664C124.053 30.2023 125.652 30.4844 127.237 30.8245C128.589 31.1144 129.944 31.4396 131.259 31.8911C131.45 31.9656 131.639 32.0472 131.826 32.1323C131.187 31.7128 130.535 31.3134 129.87 30.9387C127.737 29.743 125.454 28.8585 123.121 28.2023C121.269 27.6291 119.354 27.2642 117.435 27.2304C116.342 27.2474 115.237 27.182 114.151 27.2824C113.809 27.3417 112.86 27.6477 112.216 27.8309C110.563 28.3151 108.911 28.8097 107.292 29.3889C106.63 29.6398 106.036 30.0273 105.366 30.2612C103.417 31.024 101.357 31.4993 99.3006 31.9324C98.1316 32.053 96.9424 31.9373 95.7643 31.8993C95.42 31.8599 95.0686 31.8684 94.7186 31.8688C94.8915 31.9701 95.0646 32.0711 95.237 32.1726C96.6453 32.825 99.3429 34.434 101.423 34.5869C102.749 34.6355 104.078 34.6656 105.401 34.6355C107.064 34.4499 108.723 34.2267 110.389 34.046C112.391 33.7554 114.343 33.2218 116.346 32.931C117.566 32.7533 118.758 32.4377 119.994 32.3463C120.857 32.2315 121.731 32.2173 122.603 32.178C123.566 32.0917 124.53 31.9821 125.505 32.0405C128.106 32.1577 130.672 32.8037 133.158 33.6397C134.081 33.9081 134.895 34.3959 135.659 34.9683C135.652 34.9623 135.645 34.9565 135.638 34.9506ZM137.934 36.8656C138.307 37.1962 138.677 37.531 139.045 37.8661C138.906 37.7071 138.764 37.5505 138.624 37.3927C138.143 36.9979 137.657 36.6078 137.174 36.2161C137.428 36.4352 137.681 36.6537 137.934 36.8656ZM126.446 27.2912C126.023 27.0777 125.568 26.866 125.049 26.6386C124.988 26.6156 124.926 26.5932 124.864 26.5718C125.396 26.8009 125.924 27.0397 126.446 27.2912ZM114.25 22.7759C114.582 22.7887 114.913 22.8091 115.244 22.8472C113.298 21.9254 111.366 20.968 109.493 19.902C107.623 18.6827 105.873 17.1985 104.551 15.3857C103.978 14.5589 103.611 13.6216 103.171 12.7263C102.842 12.035 102.564 11.3202 102.155 10.6669C102.889 11.6034 103.442 12.659 104.067 13.6648C104.89 15.1847 106.001 16.4171 107.305 17.5388C108.363 18.4643 109.354 19.2466 110.532 19.9713C110.212 19.6846 109.909 19.3797 109.647 19.0364C109.276 18.5716 108.953 18.0729 108.612 17.5868C108.273 17.0998 107.882 16.6415 107.602 16.1186C107.216 15.3127 106.936 14.4643 106.598 13.6392C106.32 12.9184 105.999 12.2132 105.724 11.491C105.156 9.65608 104.308 8.24676 102.918 7.0707C101.847 6.0713 100.719 5.13699 99.6076 4.18433C99.1341 3.74131 98.6461 3.29203 98.2299 2.78975C98.258 3.15279 98.3174 3.53183 98.403 3.96024C98.5449 4.70997 98.6897 5.45942 98.8289 6.20956C98.918 6.7117 98.9523 7.22635 99.1268 7.71305C99.2063 7.99416 99.5438 8.42508 99.7992 8.90969C100.346 9.87738 100.872 10.8576 101.482 11.7897C102.224 12.9521 103.134 13.9978 104.015 15.058C104.422 15.6177 104.825 16.1797 105.266 16.7142C106.059 17.6979 106.87 18.4398 107.996 19.353C108.87 20.1073 109.843 20.8527 110.786 21.3607C111.762 21.9103 112.756 22.1979 113.799 22.6016C113.946 22.6587 114.097 22.7168 114.25 22.7759ZM89.8508 21.457C88.1946 20.8705 86.5262 20.1016 84.9431 19.3218C83.4474 18.4312 81.926 17.5769 80.4677 16.6227C79.5767 15.9351 78.6602 15.2844 77.7311 14.651C76.9923 14.1174 76.1815 13.5161 75.4262 13.0936C74.9173 12.7994 74.3574 12.6578 73.7643 12.463C73.0497 12.2391 73.0913 12.2395 72.4036 12.0769C72.0927 12.0176 71.7813 11.9626 71.4702 11.9053C69.6484 11.715 67.8332 11.4376 66.0174 11.1757C65.6011 11.1238 64.8706 11.0075 64.2362 10.9242C64.4369 11.2333 64.678 11.5138 64.9248 11.7877C66.1814 13.1086 68.4258 15.1654 70.2755 16.4321C71.3292 17.1533 72.4546 17.7548 73.5825 18.3427C74.5698 18.8587 75.5665 19.362 76.5998 19.7715C78.1307 20.3382 79.7138 20.7243 81.272 21.1932C82.8361 21.6304 84.9044 22.0843 86.718 22.3028C88.5532 22.4986 90.3945 22.5923 92.2332 22.6489C91.0566 22.4744 89.8975 22.1727 88.745 21.8612C87.2487 21.4763 85.7634 21.0464 84.2859 20.5843C82.0966 19.8551 79.9678 18.9272 77.8229 18.0646C77.4774 17.9246 76.7529 17.6406 76.287 17.4509C76.637 17.5634 76.9871 17.6763 77.3368 17.7898C78.8902 18.295 80.4274 18.8542 81.9743 19.3808C84.6487 20.3422 87.6684 21.1318 90.2316 21.8025C91.1545 22.0498 92.0883 22.1936 93.0266 22.2826C91.9529 22.0911 90.8962 21.7823 89.8508 21.457ZM76.0041 27.2421C74.4123 27.7899 72.8333 28.3881 71.3587 29.1885C70.1007 29.8845 68.4367 31.0331 67.1296 32.0708C66.0513 32.9363 64.9977 33.8408 64.0606 34.8581C62.7969 36.2737 61.6293 37.7714 60.4658 39.2705C60.0293 39.8355 59.5928 40.4007 59.1492 40.96C59.379 40.9177 59.6095 40.8822 59.8375 40.8498C61.0041 40.7241 62.1891 40.6838 63.3385 40.4615C64.4428 40.1848 66.395 39.4589 67.4366 38.5979C68.6761 37.6316 69.8759 36.6102 70.9482 35.4606C71.7838 34.5712 72.562 33.6288 73.3581 32.7041C73.7472 32.2552 74.2054 31.8745 74.6318 31.4625C75.3587 30.7319 76.0756 29.9917 76.7671 29.2273C77.178 28.7886 77.6041 28.3625 78.05 27.9589C75.1992 29.452 72.4667 31.4586 69.6412 33.2591C68.403 34.1343 67.126 34.9555 65.9078 35.8577C65.8772 35.8786 65.7016 36.0164 65.8497 35.8859C66.5996 35.1562 67.4032 34.4862 68.2039 33.8127C71.5405 31.0583 75.0986 28.5141 79.0615 26.6911C79.6562 26.4182 80.2567 26.1533 80.8636 25.9027C81.1143 25.7447 81.3715 25.598 81.6408 25.4739C79.7394 25.9952 77.867 26.6114 76.0041 27.2421ZM68.4217 25.3733C67.7301 25.154 67.0532 24.8665 66.3853 24.5909C64.9493 23.9612 63.4919 23.3875 62.0433 22.7901C61.2592 22.4498 60.4406 22.2011 59.6684 21.8307C58.6 21.3069 57.5902 20.6686 56.5744 20.0465C54.2879 18.6087 52.0301 17.1234 49.7841 15.6206C49.5341 15.4651 49.2843 15.3092 49.0346 15.153C49.441 15.3692 49.8517 15.5767 50.2485 15.8111C53.4277 17.604 56.5223 19.5507 59.6909 21.3607C60.3947 21.7498 61.161 21.984 61.8986 22.2896C63.756 23.044 65.6086 23.811 67.4544 24.5961C68.1461 24.8574 68.8583 25.1131 69.5915 25.1757C69.7277 25.1915 69.8543 25.1612 69.9755 25.1132C69.9481 25.1053 69.9191 25.0974 69.8855 25.0913C68.8205 24.8128 67.7428 24.4998 66.7507 23.9968C66.0243 23.6068 65.3197 23.1745 64.5883 22.7946C64.2525 22.6432 63.8896 22.5121 63.557 22.2954C62.5723 21.6681 61.7425 20.8292 60.8481 20.0828C59.3485 18.8627 58.0377 17.4418 56.6644 16.0858C55.5041 14.9278 54.2671 13.8253 52.8553 12.9873C52.0178 12.5309 51.1459 12.157 50.2589 11.8435C48.8839 11.3695 47.5192 10.8555 46.1106 10.506C44.5181 10.0282 42.5134 9.42713 41.1625 9.10192C40.4008 9.01637 39.7108 8.6525 39.0022 8.36763C37.7514 7.85089 36.5127 7.29437 35.3378 6.60974C34.8495 6.3328 34.4033 5.99327 33.9623 5.64581C34.0765 5.99549 34.4212 6.36257 34.7668 6.77526C35.2421 7.36239 35.5754 7.6901 36.1653 8.33077C37.2566 9.50418 38.3371 10.7003 39.5793 11.7182C41.4757 13.2517 42.9178 14.4017 44.7977 15.7686C47.7687 17.9248 51.1823 19.2762 54.4293 20.9152C56.2282 21.7518 57.5295 22.3501 59.2492 22.9993C60.5731 23.5 61.933 23.8836 63.2906 24.2653C64.525 24.6062 65.3425 24.838 66.5345 25.1137C66.9964 25.2302 67.4585 25.3445 67.921 25.4557C68.0873 25.4265 68.2544 25.3992 68.4217 25.3733ZM43.5875 24.4229C43.1622 24.3411 42.7373 24.2565 42.3125 24.1704C43.0316 24.3563 43.7182 24.5089 44.3908 24.6286C44.4994 24.6364 44.6081 24.6438 44.7167 24.6524C44.34 24.5774 43.9638 24.5002 43.5875 24.4229ZM39.0156 25.2367C36.2034 25.5852 33.391 25.977 30.668 26.7171C28.8263 27.2248 27.0143 27.8275 25.2256 28.4813C24.1831 28.871 22.7421 29.427 22.0299 29.8476C21.8528 29.9542 21.6846 30.0742 21.5133 30.1894C21.5034 30.1961 21.4933 30.2026 21.4834 30.2091C21.5006 30.246 21.5177 30.2831 21.5316 30.3137C21.6029 30.3172 21.6883 30.319 21.7489 30.3218C22.4809 30.3327 23.2104 30.4722 23.9408 30.5444C25.4636 30.7442 27.4861 31.1742 28.7385 31.3414C30.0326 31.537 31.3179 31.3095 32.6009 31.2329C33.8461 31.0601 35.1371 30.9854 36.0335 30.6921C36.61 30.4964 37.1271 30.1752 37.6684 29.9076C37.7197 29.8839 38.2943 29.5448 38.577 29.3003C39.0253 28.905 39.4331 28.4561 39.9514 28.1469C40.8036 27.6153 41.7403 27.2286 42.6961 26.9059C43.5828 26.6199 44.4609 26.2816 45.4004 26.1777C46.9899 26.045 48.3975 26.1805 49.6909 26.0784C49.2019 25.9831 48.7128 25.8874 48.2167 25.8702C46.0092 25.7991 43.8336 26.1647 41.6411 26.2868C40.2226 26.3526 38.8786 26.7594 37.5119 27.0666C36.5932 27.277 35.6364 27.2877 34.6887 27.278C34.1873 27.2794 33.6857 27.2318 33.1844 27.1962C33.5406 27.1905 33.8978 27.1973 34.2535 27.1802C35.2505 27.117 36.2606 27.0493 37.2052 26.7377C37.966 26.5032 38.7196 26.2441 39.4912 26.0425C40.1243 25.8958 40.7745 25.8218 41.423 25.7497C43.1093 25.6006 44.794 25.3853 46.4915 25.3333C46.1014 25.2942 45.712 25.2447 45.3235 25.1861C43.2148 25.023 41.1041 24.9996 39.0156 25.2367ZM3.73916 6.05892C5.28733 7.40509 6.68385 8.90858 7.92467 10.5395C8.87793 11.7627 9.79088 13.21 10.6942 14.0728C11.6133 15.0096 12.7014 15.7706 13.8425 16.4032C15.1588 17.0517 16.542 17.5384 17.8947 18.096C19.7084 18.8628 21.251 19.5628 23.2263 19.8996C24.6263 20.1904 26.0497 20.1159 27.4574 20.3057C28.2592 20.3966 29.0555 20.5317 29.8484 20.691C27.7375 19.8735 25.6785 18.9135 23.6555 17.8843C19.9425 16.009 16.3481 13.8455 13.085 11.2319C12.8472 11.0447 12.6096 10.8568 12.3724 10.669C12.6499 10.8477 12.9273 11.0264 13.2045 11.2057C16.4945 13.3658 19.9384 15.2735 23.4183 17.0903C25.9066 18.3707 28.4391 19.5804 31.0661 20.5199C32.0318 20.8654 33.0046 21.1835 33.9827 21.4806C33.8589 21.3521 33.706 21.2415 33.5786 21.1361C32.8881 20.5876 32.0783 20.25 31.2942 19.8727C30.1912 19.3324 29.0568 18.8538 27.9865 18.2454C26.4504 17.3073 24.9387 16.3035 23.5569 15.1413C22.6522 14.2944 21.7995 13.3925 20.8913 12.5479C20.0585 11.8278 19.2081 11.1272 18.3769 10.4046C17.4732 9.69349 16.3515 8.96088 15.2511 8.06746C14.1143 7.12537 12.718 6.33308 11.3177 5.77906C10.7065 5.54649 10.1174 5.22615 9.47551 5.10472C8.30017 4.87981 7.10559 4.86492 5.92116 4.75392C4.53843 4.63583 3.15631 4.52789 1.77312 4.51969C2.48235 4.95645 3.13404 5.47833 3.73916 6.05892Z" fill="#B1C5AA" fill-opacity="0.6"/>
</svg>
