<svg width="73" height="101" viewBox="0 0 73 101" fill="none" xmlns="http://www.w3.org/2000/svg">
<path d="M84.1827 99.8824C82.9241 96.7676 81.4964 93.7238 79.9633 90.7351C77.9535 86.7572 75.9508 82.7685 73.4118 79.0947C72.1887 77.2628 70.8319 75.5223 69.5536 73.7283C67.5823 70.9342 65.4914 68.2366 63.2915 65.6195C59.6348 61.1673 55.9948 56.6977 52.2654 52.3055C53.2023 51.9552 54.1153 51.5451 54.9611 51.005C54.0726 51.5001 53.1303 51.8809 52.1594 52.1797C52.155 52.1744 52.1506 52.1692 52.1461 52.1637C52.1923 52.049 52.236 51.9335 52.2809 51.8182C53.9228 50.2571 55.5049 47.7916 56.155 46.2886C56.9617 44.364 58.0422 42.5583 58.6897 40.5681C59.3138 38.8227 59.4623 36.9713 59.7018 35.146C59.9585 33.6059 60.3676 32.0931 60.5323 30.5377C60.6303 29.4151 60.5386 28.2846 60.4444 27.1641C60.3095 25.7828 60.0135 24.0073 59.7567 22.4096C59.8696 22.3667 59.9817 22.3209 60.0917 22.2684C61.3613 21.6565 62.6917 20.6463 63.0153 19.2029C63.0904 17.4588 62.1485 15.7951 61.0029 14.5375C60.5033 14.0855 59.9481 13.5705 59.2605 13.4686C57.8343 13.3142 56.5271 14.1827 55.5717 15.1649C55.5367 15.186 55.5001 15.2061 55.4657 15.2278C55.0246 15.4851 54.6813 15.8496 54.4313 16.2725C53.9347 16.8939 53.7108 17.568 53.9394 18.2827C53.9462 18.4844 53.9665 18.6853 54.0042 18.8821C54.2784 20.1485 55.3247 20.94 56.2871 21.7094C56.9383 26.1931 58.1233 29.7765 57.0261 34.3105C56.4506 37.2189 56.5856 40.259 55.5549 43.0731C55.4985 43.2254 55.3795 43.5489 55.3263 43.6939C54.8525 44.9182 54.3218 46.6917 54.0447 47.4671C53.5523 48.6905 52.8838 49.8326 52.1696 50.9372C52.0501 51.1092 51.9265 51.2838 51.7971 51.4561C51.8503 50.824 51.888 50.1901 51.9163 49.5568C52.1174 44.7781 52.1865 39.9473 51.3615 35.2169C50.9436 32.6439 50.2149 30.1377 49.344 27.6833C47.8276 23.2378 45.9149 18.8953 43.2928 14.9841C43.0027 14.5399 42.7037 14.1014 42.3992 13.6669C43.1295 13.5274 43.8284 13.2351 44.4191 12.7953C45.2446 12.1532 46.0039 11.0737 45.5546 9.99701C45.116 9.1574 44.6218 8.314 43.8337 7.76364C43.6432 7.56839 43.4337 7.39168 43.2083 7.23727C43.1294 7.17416 43.048 7.11451 42.9584 7.06596C42.9285 7.04982 42.8967 7.0395 42.8658 7.02549C42.5364 6.84461 42.1854 6.70919 41.8251 6.63493C41.4846 6.57559 41.1388 6.56116 40.7938 6.58235C39.6503 6.54683 38.366 6.85247 37.8147 7.72389C37.6602 7.84173 37.5123 7.96697 37.3729 8.0985C36.6946 8.83367 36.4879 9.97152 36.8088 10.9201C36.8477 11.3561 37.0835 11.7905 37.5982 12.3456C38.0589 12.8049 38.6168 13.0904 39.2146 13.2387C40.0343 13.6635 40.9781 13.824 41.9012 13.7382C42.3324 14.7472 42.7393 15.7667 43.1643 16.7784C44.5525 20.3803 45.7257 24.0589 46.7805 27.7705C47.6444 30.6816 48.5595 33.5796 49.251 36.5378C50.1197 40.2488 50.5813 44.0396 51.0489 47.8168C51.1766 48.9915 51.3449 50.1651 51.4517 51.3425C50.0896 49.749 48.7144 48.1671 47.3202 46.6018C45.5711 44.6465 43.818 42.6889 42.0383 40.7571C41.8078 38.3893 41.5571 36.0232 41.3117 33.6567C41.0639 30.7735 40.7937 27.8929 40.3902 25.0258C40.0548 22.7546 39.6295 20.4953 39.2712 18.2283C38.7357 16.1821 37.9398 14.2123 37.1181 12.2667C36.0318 9.6137 34.446 7.16915 32.5348 5.03282C32.6787 4.60782 32.7158 4.14422 32.6006 3.64948C32.52 2.78848 32.0168 2.06792 31.4147 1.47709C30.9173 0.972325 30.3881 0.475121 29.7103 0.230509C28.2335 -0.079746 26.5966 -0.155094 25.2032 0.505563C24.2846 0.948853 23.2386 1.54253 22.986 2.60936C22.7277 3.78574 23.3465 4.89427 23.852 5.91496C24.1658 6.66256 24.6772 7.39113 25.5218 7.55055C26.2066 7.67827 26.9137 7.64012 27.5974 7.4755C28.2291 7.70138 28.9114 7.74836 29.5805 7.52392C29.827 7.44974 30.0767 7.35196 30.3222 7.23659C30.9739 7.99956 31.5624 8.79475 32.144 9.60567C34.0877 12.4187 35.4669 15.5837 36.6027 18.7965C37.1776 21.0492 37.5255 23.3595 38.1198 25.6116C38.5937 27.8235 39.0384 30.0411 39.4877 32.2579C38.3598 29.5544 37.0837 26.9092 35.8946 24.2328C35.2056 22.6591 34.4665 21.1076 33.489 19.6898C33.5374 19.5351 33.4957 19.3991 33.3206 19.3162C33.7814 19.0215 34.1898 18.6501 34.5057 18.2253C35.0508 17.383 35.0807 16.1736 34.5354 15.3217C33.946 14.4828 32.9838 14.0421 32.0558 13.6841C31.2612 13.3628 30.4373 13.024 29.5641 13.0826C27.9415 13.1313 25.8808 13.8426 25.5731 15.651C25.2998 18.1267 27.854 19.779 29.9632 20.3401C30.371 20.4453 30.7923 20.5954 31.2152 20.6684C31.2188 20.6734 31.2206 20.678 31.2245 20.6829C32.0939 21.9209 32.8558 23.2258 33.5309 24.5788C35.193 27.6398 36.9358 30.6548 38.6986 33.6581C39.73 35.5746 40.5192 37.6184 41.0832 39.7201C37.8945 36.3034 34.5904 33.0002 30.9899 30.0135C26.8474 26.4184 22.1942 23.4894 17.8468 20.1571C17.2621 19.7189 16.6844 19.2719 16.1111 18.8191C15.3675 17.8978 14.5545 17.0077 13.6967 16.1567C14.752 15.1856 15.1085 13.5363 14.8299 12.1512C14.5064 11.4295 13.8151 10.7729 13.1401 10.3686C11.4691 9.39614 9.11061 9.50696 7.73722 10.9355C7.46682 11.2636 7.32016 11.6629 7.20373 12.0741C7.19966 12.0777 7.19526 12.0813 7.19118 12.085C6.77661 12.466 6.72397 12.9482 6.87078 13.4257C6.85627 13.7776 6.94671 14.1391 7.06088 14.4704C8.0907 16.9077 10.7828 17.9099 13.1032 16.5918C13.4047 16.9001 13.7168 17.1978 14.0361 17.488C16.47 20.1923 19.2278 22.5911 21.9883 24.9518C26.1249 28.334 30.2211 31.7704 34.0754 35.4732C31.3408 34.1096 28.5977 32.7634 25.851 31.4258C23.8525 30.6321 22.512 29.6197 20.2989 28.9516C17.6451 28.1484 14.8167 28.2145 12.0757 28.3302C10.4849 28.4652 8.83736 28.6189 7.29615 29.0724C7.1334 28.8833 6.96113 28.7045 6.7786 28.5454C5.51195 27.7413 3.85178 28.0315 2.64426 28.8628C2.01586 29.0009 1.41545 29.2677 0.905441 29.6599C0.204384 30.2032 -0.0299026 31.0094 0.0375055 31.8334C-0.038344 32.2707 -0.00107855 32.7398 0.165773 33.2531C0.451172 34.0899 0.681703 35.1231 1.49076 35.607C2.93103 36.2612 4.59606 35.6961 5.80256 34.6986C5.95103 34.6465 6.08496 34.5974 6.25442 34.558C6.46512 34.4884 6.78357 34.3615 6.89317 34.1459C7.17752 33.9726 7.43254 33.7605 7.61482 33.466C7.7098 33.3175 7.73145 33.1605 7.6797 32.9943C7.67322 32.9671 7.66792 32.9398 7.66167 32.9124C8.00152 32.5516 8.24507 32.1114 8.32406 31.6135C8.33556 31.0963 8.20133 30.5909 7.98024 30.1202C9.58515 29.7475 11.73 29.5981 13.6638 29.5957C15.9805 29.5769 17.9733 29.7772 20.1552 30.5913C21.3953 31.0594 22.7025 31.7763 24.6155 32.4094C28.1467 33.8453 31.692 35.2464 35.2499 36.616C35.3022 36.6678 35.3559 36.7182 35.4081 36.7701C36.2737 37.6576 37.1283 38.5554 37.9787 39.4573C36.1246 38.5376 34.272 37.5841 32.3244 36.7992C30.6326 36.2275 28.8416 36.0751 27.1025 35.7058C26.0312 35.5209 24.703 35.2167 23.3339 35.018C23.1529 34.7129 22.9008 34.416 22.5505 34.1278C21.2298 33.4203 19.6215 32.924 18.1335 33.3073C17.3965 33.5171 16.7304 33.9006 16.1067 34.338C15.6326 34.6742 15.1981 35.1139 15.0395 35.688C14.6984 36.7867 14.8966 37.9653 15.4655 38.9531C15.8497 39.8891 16.6027 40.6692 17.5183 41.0964C19.6013 42.3106 22.3398 41.2969 23.655 39.4193C24.1368 38.5586 24.1958 37.4636 23.9097 36.5045C24.8056 36.6328 25.7306 36.7811 26.8172 36.9221C27.9627 37.0601 29.0923 37.1532 30.1629 37.341C31.6369 37.5628 33.0128 38.1587 34.4064 38.6616C35.8362 39.1863 37.2615 39.7253 38.6997 40.2252C39.2075 40.7685 39.7085 41.3182 40.2113 41.8659C40.0431 42.077 39.8757 42.2886 39.7156 42.5056C39.185 43.2205 38.7805 43.8393 38.3617 44.3233C36.9951 46.0839 35.2295 47.6186 33.6387 48.621C33.0888 48.9681 32.409 49.4486 31.7777 49.8996C31.4928 49.7168 31.211 49.5292 30.9363 49.3303C30.546 49.0502 30.1846 48.7869 29.8461 48.5276C30.1445 48.1675 30.4067 47.7762 30.6151 47.3528C30.8607 46.8649 31.0864 46.3235 30.9605 45.7685C30.7208 44.9364 30.4691 43.9967 29.7685 43.4299C29.5082 43.2588 29.2304 43.1095 28.9441 42.9765C28.6698 42.706 28.3678 42.4661 28.0271 42.2809C26.8828 41.6353 25.5396 42.1508 24.4092 42.5711C22.9993 43.1244 21.5426 44.0792 21.284 45.6879C21.2677 46.131 21.2291 46.5914 21.2199 47.0498C21.196 47.2958 21.2026 47.5425 21.2386 47.7865L21.2391 47.79C21.2411 47.8039 21.2412 47.8179 21.2434 47.8317C21.2919 48.3559 21.4201 48.8633 21.7119 49.3238C21.8858 49.6445 22.0856 49.9608 22.3572 50.2077C22.5122 50.3201 22.6835 50.4002 22.8596 50.4674C22.9086 50.492 22.9557 50.519 23.0088 50.5383C23.0473 50.5462 23.0857 50.5497 23.1244 50.5563C23.335 50.6136 23.5511 50.6533 23.7668 50.6775C24.9962 50.8438 26.2718 50.7469 27.4314 50.2955C27.4514 50.2877 27.4702 50.2772 27.49 50.2689C28.0381 50.6744 28.6102 51.0425 29.1939 51.3921C28.1113 51.7026 26.7186 51.9592 25.562 52.1821C24.6395 52.367 23.7114 52.4969 22.7796 52.5934C21.8152 52.5337 20.8513 52.4565 19.8873 52.4001C19.2161 52.3679 18.5459 52.4356 17.8769 52.4816C17.8585 52.4818 17.845 52.4823 17.8221 52.4827C17.3231 52.4997 16.8243 52.4159 16.3135 52.2426C16.3481 52.1718 16.3825 52.1005 16.4135 52.0268C16.4503 51.7888 17.4728 49.6699 16.615 48.6665C15.2489 46.6816 13.5588 46.2487 11.3369 47.088C10.9191 47.2734 10.4736 47.5142 10.083 47.815C9.92354 47.7715 9.76319 47.7377 9.60248 47.7255C9.22279 47.7572 8.75223 47.9422 8.61398 48.3246C8.62847 48.5588 8.9714 48.7492 9.16482 48.9104C9.0877 49.0831 9.0345 49.267 9.00795 49.4621C8.59987 49.697 8.23242 49.9702 7.93452 50.2841C7.53704 50.7429 7.41421 51.3557 7.47706 51.9607C7.4245 52.1979 7.38985 52.4421 7.38072 52.6935C7.36965 53.1624 7.59223 53.5628 7.92429 53.8809C8.46579 54.3824 9.10896 54.7774 9.7616 55.1171C11.3229 55.9744 13.2523 55.2841 14.5022 54.1442C14.5034 54.1435 14.5045 54.1429 14.5057 54.1422C15.0102 54.2709 15.5289 54.3399 16.0593 54.3299C17.7531 54.2514 17.7347 54.1725 19.5113 54.3313C22.5935 54.5928 25.7453 54.4372 28.6914 53.4409C29.4847 53.1703 30.2361 52.8034 30.9726 52.4058C31.2318 52.5495 31.491 52.6933 31.7496 52.8387C33.2558 53.7656 34.8487 54.5577 36.6082 54.8491C39.5492 55.5465 42.6097 55.3937 45.5635 54.8714C46.609 54.6718 47.6574 54.4508 48.662 54.0955C49.1987 53.8731 49.7058 53.5919 50.2034 53.2938C50.4202 53.5523 50.6375 53.8101 50.8536 54.069C50.4643 54.6885 50.0691 55.3045 49.6795 55.9242C49.096 56.7208 48.5184 57.7449 47.8683 58.3672C45.8104 60.0064 44.1695 61.4617 41.8675 62.5409C39.1622 63.7807 36.3664 64.8558 33.4373 64.5424C32.3452 64.486 31.3675 64.3059 30.313 64.094C30.2631 63.9204 30.1966 63.7436 30.0996 63.5697C29.5435 62.7666 28.6584 62.184 27.6987 62C27.1174 61.8036 26.4786 61.8599 25.8618 62.0676C24.991 62.2407 24.1475 62.5854 23.4446 63.1141C23.0096 63.2824 22.5991 63.508 22.2353 63.7794C21.4083 64.4418 20.9796 65.6148 21.2481 66.6519C21.3717 66.9375 21.5438 67.2055 21.7476 67.4485C21.7625 67.5106 21.7778 67.5728 21.7973 67.6341C22.1523 68.2869 22.8294 68.6642 23.3371 69.1851C23.8533 69.6436 24.5123 69.6808 25.1508 69.5355C25.7432 69.6057 26.3644 69.5262 26.9692 69.3136C28.2209 68.8998 29.488 68.2436 30.2479 67.1295C30.4363 66.8647 30.5406 66.596 30.5885 66.327C31.6047 66.4445 32.6367 66.5035 33.6207 66.4403C37.1577 66.1835 40.5305 64.754 43.5616 62.9795C45.5964 61.7862 47.2916 60.1228 48.9489 58.4649C49.6477 57.6531 50.0242 56.6161 50.5486 55.6896C50.7483 55.2672 50.9491 54.8452 51.1476 54.4226C53.2821 56.9807 55.3944 59.5572 57.4951 62.14C60.3932 65.7733 63.3804 69.224 65.8504 72.6973C67.5913 75.1446 69.4205 77.5316 71.1067 80.0164C73.2991 83.2492 75.3736 86.5558 77.4931 89.8365C79.651 93.1096 81.8864 96.332 83.9667 99.6558C84.0843 99.8417 84.2022 100.027 84.3197 100.213C84.2731 100.103 84.2279 99.9928 84.1827 99.8824ZM36.1767 48.038C37.9724 46.5916 39.3998 44.7447 40.3762 42.6542C40.4414 42.5241 40.5095 42.3954 40.579 42.2672C40.646 42.3404 40.7138 42.4129 40.7808 42.4862C40.2018 43.6683 39.509 44.7932 38.7634 45.8818C38.573 46.0668 38.3821 46.2509 38.1956 46.4361C37.1743 47.3948 36.079 48.2738 34.9318 49.0768C34.5432 49.3378 34.0769 49.6164 33.5747 49.8958C34.4625 49.3041 35.3437 48.7024 36.1767 48.038ZM48.658 53.7992C47.4942 54.0885 46.1748 54.2102 45.0311 54.281C42.6102 54.3958 40.3611 54.2332 38.0496 53.4374C36.5398 52.9941 35.8807 52.575 34.4615 51.5905C34.15 51.3744 33.8312 51.1703 33.5096 50.9704C35.0343 50.0527 36.4517 48.966 37.6835 47.6743C38.7312 46.5165 39.9273 45.3345 40.5115 43.8634C40.7074 43.5059 40.8822 43.1376 41.0331 42.7596C44.1004 46.1307 47.0817 49.5814 50.0151 53.0722C50.0113 53.0942 50.0134 53.1156 50.0307 53.132C50.0492 53.1505 50.0712 53.1607 50.0948 53.1668C50.1023 53.1758 50.1099 53.1848 50.1174 53.1938C49.6418 53.4214 49.1601 53.6357 48.658 53.7992Z" fill="#B1C5AA" fill-opacity="0.24"/>
</svg>
