<svg width="211" height="452" viewBox="0 0 211 452" fill="none" xmlns="http://www.w3.org/2000/svg">
<path d="M258.043 134.471C257.15 134.77 256.414 135.481 256.029 136.335C255.685 137.144 255.654 138.048 255.291 138.862C254.554 141.047 253.733 143.204 252.744 145.288C250.678 150.007 248.195 154.526 245.866 159.119C243.143 164.841 240.434 170.57 237.716 176.294C231.622 189.795 224.999 203.065 219.377 216.772C216.146 224.499 214.18 232.65 212.203 240.762C209.689 250.419 208.74 260.363 208.115 270.292C207.419 283.954 206.504 297.664 207.956 311.305C209.428 323.823 211.419 336.271 212.846 348.795C214.108 359.172 215.26 369.59 217.912 379.725C219.359 385.758 221.196 391.692 222.667 397.716C223.287 400.522 223.843 403.34 224.388 406.16C224.445 406.849 224.504 407.538 224.564 408.226C223.929 406.447 223.28 404.672 222.608 402.905C220.551 397.615 218.235 392.424 216.082 387.171C213.226 380.097 210.047 373.139 207.74 365.859C206.051 360.982 204.541 356.052 203.157 351.081C202.08 347.819 200.866 344.602 199.74 341.357C196.353 333.208 193.083 325.012 189.854 316.8C189.755 316.296 189.661 315.791 189.573 315.285C188.877 310.682 186.724 306.491 185.503 302.025C183.547 293.745 185.189 286.548 185.633 278.26C185.761 275.253 185.795 272.225 186.402 269.264C187.306 265.926 187.841 264.247 189.407 261.095C190.479 259.162 191.754 257.339 192.717 255.345C194.014 252.457 195.143 249.493 196.206 246.512C198.988 238.036 199.933 229.095 201.745 220.39C201.898 213.887 201.304 207.37 201.33 200.862C201.318 196.288 201.939 189.974 202.274 184.585C202.425 179.415 202.066 174.221 201.108 169.137C200.754 167.109 200.217 165.116 199.467 163.198C198.997 162.04 198.53 160.707 197.374 160.079C195.382 159.153 193.333 160.044 191.883 161.523C190.701 162.512 189.567 163.612 188.882 165.012C187.917 167.086 187.117 169.273 186.619 171.507C186.351 172.975 186.497 174.463 186.584 175.94C186.814 180.678 187.366 185.399 187.495 190.142C187.488 193.328 187.346 197.668 185.632 201.198C183.14 205.112 180.666 209.089 178.788 213.344C177.232 217.809 176.236 222.451 174.682 226.923C173.902 229.663 172.219 233.738 171.252 237.359C170.285 241.316 170.34 245.4 170.588 249.435C170.736 254.335 171.146 259.221 171.319 264.12C171.461 267.729 172.329 271.255 172.978 274.794C173.352 277.146 174.415 279.284 175.32 281.462C175.963 283.056 176.604 284.65 177.249 286.243C177.087 285.874 176.925 285.506 176.765 285.137C172.935 277.758 168.547 269.626 165.449 262.697C161.929 254.54 159.272 246.041 156.081 237.753C152.175 227.173 147.958 216.71 144.094 206.114C143.791 205.273 143.483 204.434 143.174 203.595C143.115 203.128 143.055 202.661 143.002 202.194C142.866 198.792 142.614 195.395 142.37 191.999C142.108 189.55 142.021 187.087 141.692 184.643C141.53 183.17 141.281 181.707 141.061 180.24C141.018 174.484 141.29 168.741 142.272 163.053C143.246 158.189 145.088 153.822 146.856 149.131C147.024 148.677 147.19 148.223 147.357 147.769C147.358 147.773 147.359 147.777 147.36 147.78C147.359 147.776 147.359 147.77 147.358 147.765C148.721 144.069 150.078 140.371 151.436 136.674C151.657 136.049 151.88 135.449 152.106 134.859C153.038 134.027 154.081 133.304 155.26 132.914C157.38 132.256 159.784 133.397 161.748 132.106C163.706 130.855 164.234 128.399 163.954 126.225C163.856 124.991 163.889 123.634 163.033 122.64C161.732 120.944 160.278 121.306 158.669 122.346C157.514 123.027 156.619 124.038 155.783 125.069C154.722 126.287 153.695 127.542 152.802 128.89C150.137 132.845 148.841 137.462 147.197 141.886C147.107 142.133 147.018 142.38 146.929 142.628C146.516 136.368 146.534 130.068 147.134 123.824C149.772 121.719 152.612 119.756 154.356 116.781C156.021 114.26 156.932 109.946 153.786 108.188C149.843 106.73 146.913 111.787 145.921 114.932C143.725 124.466 144.284 134.493 146.427 144.015C145.934 145.386 145.441 146.757 144.943 148.127C144.994 147.387 145.038 146.647 145.058 145.906C145.023 141.931 144.568 137.976 144.062 134.038C143.581 130.569 143.343 126.969 141.916 123.728C141.067 121.774 139.061 119.914 136.791 120.374C134.74 121.019 133.192 122.875 132.371 124.804C130.726 129.881 132.589 133.261 136.397 136.582C139.128 139.107 141.833 141.74 143.907 144.845C143.992 145.334 144.072 145.823 144.146 146.314C144.275 147.393 144.349 148.478 144.416 149.564C143.927 150.898 143.432 152.23 142.923 153.556C141.483 157.547 139.981 161.58 139.429 165.806C138.35 174.407 139.188 183.057 140.508 191.603C140.545 193.524 140.679 195.441 140.877 197.353C140.462 196.214 140.052 195.074 139.654 193.93C138.121 188.283 136.359 182.691 134.97 177.007C130.536 158.449 127.304 139.635 124.487 120.768C123.757 116.313 123.14 111.843 122.579 107.365C125.273 98.6959 128.227 89.8232 133.126 82.5729C134.46 80.6556 136.899 78.2388 138.967 76.0565C140.224 76.9256 141.721 77.4899 143.257 77.2069C144.884 76.947 146.073 75.2726 146.055 73.6734C146.013 72.3644 145.189 70.4417 143.579 71.1418C141.575 71.8937 139.674 73.419 137.872 75.1391C137.82 75.1187 137.802 75.1217 137.844 75.1662C137.546 75.4512 137.252 75.7446 136.96 76.0372C137.189 75.7267 137.417 75.4167 137.645 75.105C138.616 73.7552 139.835 72.5848 140.794 70.7208C141.967 68.5953 142.411 66.1177 142.164 63.7123C142.071 62.4712 142.042 60.9193 140.905 60.1474C139.108 59.5447 137.432 61.6774 137.025 63.235C136.726 64.4058 136.719 66.2082 138.064 66.7001C138.684 66.9277 139.347 66.8016 139.932 66.5185C139.836 67.9172 139.559 69.2784 139.102 70.4429C138.463 72.0288 137.78 72.9277 136.835 74.1889C135.678 76.0076 134.503 77.8263 133.409 79.6886C131.984 81.1984 130.772 82.8758 129.72 84.6547C130.846 82.5889 131.885 80.478 132.894 78.3521C133.855 76.2219 134.772 74.0183 134.604 71.6365C134.575 70.5954 134.566 69.5185 134.173 68.5385C133.654 67.3776 133.048 66.1761 132.155 65.2598C130.873 64.0162 129.323 64.7443 127.96 65.4319C125.774 66.6842 124.375 69.2184 124.18 71.6951C124.178 73.9579 125.522 75.5047 127.87 74.8031C128.829 74.3808 129.293 73.4672 129.759 72.6186C130.891 73.3654 131.885 74.4362 132.385 75.6801C132.448 76.2633 131.97 76.9974 131.868 77.616C131.813 77.8827 131.761 78.1509 131.711 78.4187C131.761 78.2949 131.809 78.1705 131.859 78.0467C131.773 78.3238 131.689 78.5841 131.614 78.8118C130.768 81.1933 129.946 83.5817 129.002 85.9262C127.755 88.2467 126.748 90.7068 125.875 93.1734C124.278 97.5431 123.303 102.082 122.494 106.651C122.349 105.483 122.206 104.315 122.067 103.147C121.741 96.8865 121.394 90.6279 121.252 84.3602C121.042 77.0835 120.663 69.8097 120.172 62.5471C119.566 56.3231 118.586 50.1239 117.189 44.0285C116.176 39.9246 114.876 35.8992 113.347 31.9598C113.479 28.2439 114.192 24.5672 115.07 20.9592C115.557 19.0335 116.295 16.7553 117.155 15.2157C117.83 14.1259 118.254 13.614 119.192 12.8191C119.285 12.749 119.319 12.7216 119.321 12.7184C120.51 11.866 122.03 12.0695 123.689 13.494C125.821 15.4998 126.247 16.8186 125.379 18.4177C124.606 19.6916 124.503 19.8773 123.608 20.8054C123.562 20.8493 123.527 20.8843 123.501 20.9103C123.453 20.9549 123.406 21.0002 123.358 21.043C123.346 21.0536 123.333 21.063 123.322 21.0736C122.68 21.2171 122.54 21.2588 121.641 20.811C120.242 20.2143 118.846 18.8167 119.035 16.8088C119.129 15.7699 119.573 14.7939 120.11 13.9119C120.375 13.5524 120.856 13.5017 121.251 13.3636C121.65 13.2315 123.17 12.7435 122.099 12.9958C121.365 13.1392 120.484 13.0738 119.886 13.6311C118.627 14.9672 117.639 16.697 117.451 18.545C117.323 20.1083 117.989 21.7335 119.305 22.6231C120.112 23.4167 121.247 23.7176 122.338 23.39C125.141 22.5205 129.404 17.4967 129.023 14.451C128.733 12.4881 127.119 10.8695 125.427 9.95866C121.484 7.87414 117.415 11.6893 115.479 14.8973C113.478 18.5805 113.17 22.9264 112.997 27.0383C112.926 28.5286 112.987 30.0139 113.162 31.4909C111.028 26.0689 108.462 20.8114 105.599 15.7426C103.83 11.7127 102.601 7.43721 104.287 3.80198C104.644 3.01688 104.83 2.76246 105.262 2.24146C105.747 2.29574 106.723 2.72919 107.169 3.17751C108.366 4.24546 108.734 5.12199 108.798 6.7331C108.755 7.45381 108.759 8.37387 108.358 8.90325C108.04 8.96918 107.71 8.90403 107.417 8.77296C106.347 8.30748 105.665 7.23304 105.478 6.10777C105.377 7.3577 105.717 8.7468 106.769 9.5252C107.434 10.0661 108.384 9.87658 108.948 9.27967C110.162 8.15886 110.518 6.38785 110.585 4.79972C110.648 3.00745 109.666 1.23653 108.083 0.37962C105.092 -1.33698 102.277 3.18537 101.516 5.5998C100.732 7.86413 100.989 10.136 101.739 12.2977C100.975 11.5393 100.149 10.8411 99.2459 10.2262C98.0707 9.41458 96.6596 8.76695 95.1987 8.96605C93.597 9.22905 92.0623 10.3873 91.6505 11.9982C91.0461 14.1658 92.3428 16.4319 94.121 17.6329C95.5508 18.3323 97.1712 17.3186 98.3235 16.4822C99.1801 15.823 99.7104 14.8525 100.062 13.8463C102.416 15.7121 104.502 18.1092 106.367 20.6127C106.705 21.1393 107.042 21.6666 107.384 22.1908C111.376 33.2452 114.554 44.6196 116.299 56.2481C117.113 61.0944 117.49 65.9879 117.743 70.8906C117.524 69.3347 117.19 67.7882 116.893 66.2542C115.536 59.8064 113.176 53.5372 109.878 47.8326C108.668 46.1295 107.466 44.3589 105.965 42.9008C105.002 42.1605 103.964 41.5207 102.885 40.9582C102.229 40.1679 101.57 39.3806 100.901 38.6004C99.3694 36.803 97.8713 34.9609 96.8917 32.7934C95.9523 31.176 94.3922 26.2919 95.2338 25.8987C96.0344 25.1202 95.3673 25.4628 96.497 25.1112C97.3174 24.8478 98.6684 25.647 99.4465 26.3861C100.161 27.0162 100.631 27.9769 100.527 28.9414C100.307 30.2871 99.4902 31.6346 98.1437 32.0807C99.3918 31.8909 100.254 30.8793 100.896 29.8699C102.198 28.0632 101.827 25.6318 100.129 24.2221C98.989 22.9519 97.3013 22.9711 95.8686 23.7299C94.4866 24.5505 93.1078 25.7707 92.6278 27.348C92.3099 29.211 92.8468 31.0261 93.6686 32.7204C91.5671 30.6864 89.1449 29.0622 86.2506 28.2732C83.1579 27.3942 79.8554 30.4724 80.5637 33.6107C81.5805 37.3898 88.7786 37.4296 88.9881 33.1724C88.9928 32.9089 88.9637 32.6498 88.918 32.3934C91.9895 33.9996 94.6706 36.2759 97.3227 38.6948C95.8077 38.2192 94.2555 37.9574 92.6845 38.4354C88.9456 39.467 87.299 43.912 89.3566 47.1649C91.2648 50.1873 93.8576 50.0475 96.3488 47.7711C97.6451 46.5857 98.5063 45.0569 99.5572 43.7288C101.649 44.8611 102.922 45.5253 104.561 47.6342C106.813 50.015 108.61 52.7503 110.167 55.6241C111.74 58.3221 113.191 61.0972 114.378 63.9881C115.763 67.5689 117.465 71.1454 117.942 74.9851C117.944 74.9586 117.943 74.9326 117.945 74.9063C118.29 81.388 118.437 87.8773 118.678 94.3635C118.861 97.9364 119.044 101.509 119.226 105.082C119.933 111.046 120.712 116.999 121.682 122.926C122.294 127.072 122.941 131.212 123.614 135.347C123.601 135.319 123.592 135.289 123.579 135.26C122.684 133.212 122.146 131.005 120.754 129.208C120.531 128.854 120.278 128.524 120.016 128.201C119.31 126.387 118.561 124.589 117.74 122.818C114.994 116.634 111.71 110.612 107.312 105.437C104.631 102.406 101.521 99.4162 97.5901 98.1477C97.5234 98.1311 97.4564 98.1187 97.3897 98.1032C95.8144 96.3743 94.2976 94.5911 92.8453 92.7554C89.7035 88.7178 86.6786 84.7672 85.4461 80.2918C85.0352 78.5796 84.9859 77.251 85.2671 76.1151C87.6639 75.9743 92.2424 81.9481 93.2945 86.7605C94.2643 89.457 95.5879 92.01 96.5284 94.7207C96.8074 95.4604 97.096 96.1961 97.396 96.9271C97.3141 96.4817 97.2258 96.037 97.1486 95.5905C96.6991 92.6028 96.003 89.6717 95.2432 86.751C94.9557 85.6672 94.9189 84.5393 94.6449 83.4538C94.2412 81.6144 93.5086 79.8678 92.6472 78.1989C91.5427 76.331 90.1455 74.2417 88.0282 73.4659C86.3139 73.1365 84.5422 74.0215 83.3702 75.238C80.2807 79.0955 82.7008 84.4771 85.1857 88.008C87.3129 90.8847 89.7497 93.5155 92.3929 95.9301C87.7561 92.8545 83.0238 89.9197 78.0071 87.506C75.2628 86.1301 72.3415 84.4824 69.159 84.8948C64.3213 85.6871 63.5649 91.2871 66.9083 94.3598C70.5939 97.8835 76.1945 97.5692 80.9185 97.0516C83.8097 96.6906 86.707 96.3489 89.6075 96.0685C90.8095 96.6187 92.0128 97.1655 93.2166 97.7097C90.5531 97.8074 87.8992 98.526 85.5058 99.6643C82.7595 100.988 80.4729 104.595 82.1631 107.518C83.1243 109.291 84.6924 111.057 86.9036 110.805C90.125 110.462 92.3611 107.599 95.3924 106.654C91.5388 107.433 87.1917 112.806 84.3969 107.384C83.0035 105.229 83.3808 103.142 84.561 101.856C84.5811 101.836 84.6036 101.816 84.6269 101.799C84.9207 101.586 84.8694 101.65 85.4087 101.392C96.0681 97.4067 102.212 104.331 108.761 113.309C109.574 114.448 110.364 115.603 111.135 116.77C112.597 120.083 114.034 123.427 115.625 126.74C115.799 127.188 116.571 129.008 117.359 129.819C117.922 130.578 119.279 132.888 119.349 133.011C120.459 136.058 121.442 137.832 122.566 140.526C123.947 144.506 125.566 148.422 126.519 152.532C126.552 152.648 126.594 152.76 126.631 152.875C128.214 161.561 130.082 170.185 132.099 178.782C133.513 184.613 135.327 190.346 136.898 196.138C137.067 196.608 137.241 197.078 137.411 197.548C133.084 190.283 128.71 183.037 123.349 176.485C120.086 172.836 116.166 169.84 112.445 166.678C109.523 164.258 106.52 161.845 103.372 159.662C101.438 157.133 99.6092 154.525 97.7144 151.964C95.288 148.428 92.6176 144.832 91.7111 140.556C91.3623 138.851 91.8675 137.045 92.4359 135.517C92.5301 135.56 92.6233 135.609 92.711 135.662C94.7023 137.542 96.8152 141.84 98.1507 144.917C99.3172 147.992 100.042 151.221 101.201 154.297C100.676 151.116 100.413 147.882 99.7405 144.725C98.8045 141.057 97.3818 137.383 95.1862 134.282C94.0957 132.99 92.3299 133.047 91.2995 134.386C90.5715 135.335 90.2023 136.518 89.8778 137.656C89.2337 139.654 89.2648 141.767 90.1373 143.691C91.5005 147.251 93.9715 150.217 96.433 153.073C98.0265 154.815 99.6183 156.56 101.262 158.253C99.8922 157.373 98.4934 156.543 97.0602 155.781C92.5196 152.247 88.0314 148.647 83.5817 145C79.9174 141.819 75.948 138.874 72.8598 135.106C71.1487 132.815 69.7425 129.225 69.8358 127.158C70.1731 127.239 70.4969 127.372 70.8081 127.522C72.829 128.423 74.5236 130.468 76.1281 132.603C78.465 135.926 80.4221 139.507 82.9721 142.683C84.587 144.611 86.2445 146.528 88.1201 148.21C90.0886 149.918 92.3333 151.268 94.3485 152.916C94.6784 153.202 93.6767 152.16 93.5889 152.046C92.1313 150.556 90.5736 149.164 89.1704 147.621C86.8255 144.882 84.8162 141.862 82.9692 138.772C81.1261 135.626 79.6357 132.259 77.4775 129.307C76.3073 127.718 75.0052 126.192 73.2153 125.283C72.4302 124.832 71.5019 124.501 70.5946 124.738C69.1289 125.212 67.9191 126.457 67.3243 127.859C66.7175 130.276 67.9385 132.782 68.9555 134.931C70.073 137.273 71.9028 139.117 73.8384 140.801C75.8875 142.649 78.0984 144.303 80.315 145.942C83.6582 148.392 87.0881 150.723 90.5813 152.957C90.2868 152.857 89.9943 152.752 89.6968 152.659C85.8413 151.606 81.5096 150.318 77.645 151.962C76.3995 152.523 75.226 153.523 74.8963 154.895C74.6708 156.376 74.7205 158.192 75.868 159.295C76.7662 160.174 78.0672 160.214 79.243 160.372C82.2089 160.794 85.1547 160.27 88.0808 159.8C93.0663 159.148 97.7815 161.192 102.387 162.876C104.502 164.396 106.593 166.031 108.784 167.76C112.827 171.196 117.094 174.411 120.758 178.264C127.217 185.672 132.8 193.78 138.855 201.515C144.908 218.044 151.398 234.409 157.45 250.939C159.107 255.509 160.695 260.114 162.697 264.549C166.221 272.335 170.335 279.833 174.278 287.409C176.044 291.524 178.998 297.86 180.996 302.767C181.276 303.481 181.556 304.194 181.836 304.908C182.139 305.787 182.438 306.666 182.693 307.556C183.718 310.753 184.588 313.999 185.628 317.191C186.494 319.758 187.495 322.279 188.767 324.674C189.005 324.889 189.333 324.816 189.619 324.705C192.918 332.98 196.558 341.12 199.453 349.548C199.879 350.673 200.258 351.813 200.616 352.959C198.22 348.587 195.526 344.377 192.694 340.273C187.043 331.954 181.308 323.493 173.679 316.832C170.657 314.301 167.298 312.163 164.554 309.309C161.027 305.969 158.144 302.061 155.127 298.275C150.173 292.018 144.462 286.433 139.293 280.361C136.951 277.62 134.998 274.561 132.447 271.993C130.954 270.344 129.209 268.959 127.638 267.391C125.69 265.451 123.803 263.448 122.011 261.362C115.251 253.651 109.954 244.841 104.026 236.508C101.514 232.923 98.4181 229.809 95.659 226.422C91.8603 221.753 88.4321 216.79 84.5547 212.179C80.6866 207.685 76.7958 203.21 72.9116 198.731C67.8764 192.627 62.9582 186.428 57.8728 180.365C51.7304 173.164 46.1984 165.478 40.199 158.162C33.172 148.983 24.8238 140.975 16.6256 132.86C11.8243 127.972 6.75097 121.955 4.27216 116.229C4.17551 115.986 4.09331 115.741 4.01805 115.494C3.72475 113.161 3.56988 110.804 3.19131 108.487C3.13318 107.962 3.05743 107.44 2.94704 106.924C2.81906 106.398 2.67083 105.878 2.50302 105.364C2.48944 105.25 2.43357 105.173 2.33652 105.132C1.94858 104.892 1.4531 105.216 1.10921 105.417C0.578981 105.799 -0.0114678 106.351 5.92997e-05 107.047C0.598987 109.182 0.831004 111.375 1.0261 113.575C1.04129 113.763 1.0579 113.95 1.07565 114.137C1.22758 115.889 1.37393 117.641 1.68026 119.37C2.4996 124.395 3.82091 129.325 5.3671 134.171C8.42565 143.181 11.861 152.064 15.3664 160.909C19.741 172.098 24.2841 183.254 30.0343 193.821C36.0716 205.39 43.636 216.04 51.0893 226.722C57.012 235.19 62.8425 243.777 69.7874 251.459C84.794 267.318 102.991 279.72 121.124 291.713C126.766 295.389 132.409 299.069 138.195 302.516C146.565 307.22 155.101 311.619 163.724 315.84C160.169 313.341 156.576 310.896 152.959 308.482C153.839 308.927 154.714 309.381 155.572 309.865C157.358 310.725 159.213 311.464 160.882 312.545C164.183 314.64 167.606 317.524 170.737 320.165C172.909 321.877 175.087 323.584 177.288 325.261C180.04 328.357 182.563 331.663 185.006 335.004C189.694 341.944 194.666 348.732 198.572 356.159C202.387 363.251 205.115 370.566 208.125 378.455C211.808 387.538 215.598 396.58 219.225 405.686C222.258 413.819 225.509 421.865 228.788 429.902C230.872 434.908 232.805 439.982 235.178 444.861C236.061 446.597 236.902 448.354 237.869 450.046C238.067 450.4 238.264 450.755 238.46 451.109C238.547 451.204 238.653 451.248 238.776 451.242C239.757 451.255 240.624 450.397 241.068 449.581C241.329 449.132 241.028 448.673 240.887 448.238C240.509 447.171 240.094 446.117 239.662 445.07C238.236 441.6 236.646 438.198 235.291 434.698C233.267 429.347 231.58 423.87 230.12 418.34C228.993 413.836 228.139 409.272 227.272 404.711C226.947 400.278 226.682 395.839 226.119 391.43C225.27 386.036 223.986 380.704 223.423 375.269C222.751 367.574 223.108 361.161 224.526 353.415C225.302 348.796 226.225 344.176 226.446 339.489C226.464 334.237 226.397 330.719 226.61 325.526C226.621 323.473 227.054 321.453 227.177 319.407C227.323 314.219 227.177 310.675 227.643 305.334C228.581 296.191 230.694 289.025 233.979 281.154C236.516 275.402 239.527 269.87 242.324 264.242C246.421 254.294 250.605 244.323 253.23 233.867C254.145 229.954 254.92 226.009 255.621 222.053C256.23 218.359 256.732 214.634 257.786 211.031C259.68 203.977 263.431 196.138 265.482 187.941C266.429 184.026 267.175 180.023 267.198 175.986C266.97 164.665 262.71 154.002 260.922 142.922C260.561 140.953 260.19 138.987 259.792 137.027C259.631 136.227 259.471 135.427 259.312 134.627C259.141 134.077 258.45 134.277 258.043 134.471ZM191.003 216.666C190.39 220.167 189.605 223.64 188.664 227.068C188.121 229 187.463 230.911 186.483 232.669C185.167 234.544 184.015 236.531 183.293 238.716C181.336 244.139 179.983 249.737 178.746 255.359C177.908 259.496 177.223 263.677 177.102 267.903C176.879 272.452 177.417 276.981 177.881 281.497C177.602 280.701 177.317 279.906 177.02 279.115C176.12 276.912 175.375 274.664 175.055 272.297C174.318 268.45 173.573 264.592 173.57 260.659C173.389 255.906 173.049 251.161 172.951 246.404C172.703 242.856 172.856 239.712 173.762 235.9C174.873 232.147 176.352 228.506 177.459 224.747C178.245 222.26 179.049 219.778 179.701 217.252C180.265 215.21 180.763 213.132 181.736 211.235C183.393 207.935 184.53 206.062 186.29 203.135C187.114 201.925 187.973 200.725 188.466 199.334C191.231 191.661 189.51 183.388 189.175 175.468C189.095 173.754 188.893 172.105 189.037 170.939C189.18 169.364 189.814 167.898 190.326 166.418C190.793 165.025 191.404 163.635 192.647 162.765C192.903 162.519 193.221 162.278 193.442 162.075C194.308 162.004 194.027 161.982 194.836 162.165C196.942 162.615 198.171 168.704 198.675 171.537C199.529 176.212 199.806 182.076 199.65 186.005C199.418 189.838 198.959 193.655 198.771 197.493C198.244 205.205 198.948 214.574 198.859 221.32C198.175 225.185 197.3 229.027 196.65 232.905C195.567 238.933 194.453 245.007 192.104 250.694C191.317 252.66 190.58 254.653 189.65 256.558C188.767 258.243 187.688 259.819 186.769 261.486C185.264 264.199 184.352 267.178 183.47 270.136C182.458 274.806 182.871 278.537 182.465 282.892C182.226 285.66 181.981 288.431 181.849 291.205C181.237 287.05 180.674 282.889 180.312 278.7C179.978 275.204 179.543 271.707 179.598 268.188C179.508 261.782 181.317 253.542 182.984 246.554C183.984 243.065 184.872 239.523 186.164 236.126C186.727 234.555 187.817 233.268 188.52 231.77C189.971 228.667 190.531 225.246 191.072 221.89C191.745 217.771 192.019 213.6 192.132 209.431C192.138 209.259 192.143 209.088 192.15 208.917C191.797 211.504 191.475 214.096 191.003 216.666ZM156.445 126.842C157.596 125.403 159.042 123.451 159.63 123.77C160.877 124.218 161.592 125.336 161.734 127.01C161.888 128 162.125 129.002 161.956 130.006C161.903 130.411 161.796 130.732 161.59 131.012C161.552 131.059 161.537 131.079 161.532 131.088C161.527 131.093 161.518 131.102 161.505 131.116C160.51 131.553 159.389 131.584 158.317 131.6C157.084 131.7 155.829 131.983 154.741 132.586C153.824 133.131 152.981 133.801 152.224 134.557C153.324 131.732 154.553 129.258 156.445 126.842ZM148.025 117.021C148.229 115.837 148.605 113.854 148.853 113.188C149.094 112.315 150.145 110.723 150.31 110.476C150.329 110.458 150.349 110.441 150.368 110.424C151.349 110.196 152 110.414 152.967 111.629C154.493 113.765 153.113 117.141 151.383 119.298C150.119 120.86 148.578 122.156 147.159 123.572C147.375 121.38 147.658 119.194 148.025 117.021ZM138.962 136.183C136.261 133.126 133.742 129.901 134.423 126.397C134.654 124.783 134.77 123.983 135.448 123.109C135.494 123.051 135.552 122.983 135.603 122.93C135.606 122.927 135.608 122.926 135.611 122.922C136.164 122.928 137.723 123.518 138.478 124.705C140.468 127.382 140.948 131.521 141.856 135.248C142.471 137.967 143.121 140.683 143.647 143.421C143.59 143.299 143.536 143.176 143.475 143.055C142.263 140.589 140.652 138.342 138.962 136.183ZM142.992 72.8828C143.09 72.9015 143.185 72.9289 143.276 72.9685C143.3 72.98 143.324 72.9912 143.348 73.0026C143.418 73.0182 143.44 73.0311 143.414 73.0407C143.66 73.2481 143.847 73.54 144.011 73.8215C144.279 74.3633 144.497 75.0248 144.297 75.6049C144.313 75.5769 144.304 75.601 144.271 75.6781C144.255 75.7555 144.144 75.9551 144.143 75.9722C144.142 75.9747 144.142 75.974 144.14 75.9765C142.594 76.6365 140.808 76.3564 139.259 75.755C140.207 74.7951 141.9 73.2138 142.992 72.8828ZM138.119 65.5364C137.827 64.4655 138.107 63.2996 138.615 62.3358C138.698 62.1884 138.894 61.8825 138.946 61.8424C138.949 61.8392 138.95 61.8383 138.953 61.8351C139.456 61.9093 139.58 62.5151 139.745 62.85C139.953 63.9841 140.01 65.1893 139.941 66.3725C139.212 66.5243 138.408 66.2944 138.119 65.5364ZM129.839 72.4701C129.853 72.445 129.866 72.4199 129.879 72.395C129.862 72.4191 129.842 72.4413 129.825 72.4645C129.627 72.3985 129.429 72.3437 129.233 72.3004C129.398 72.3917 129.561 72.4905 129.722 72.5951C129.558 72.8047 129.388 73.0098 129.223 73.2199C128.948 73.6356 128.6 74.0202 128.133 74.2187C127.788 74.2893 127.413 74.2214 127.087 74.0972C126.214 73.8414 125.848 72.9547 125.783 72.1159C125.647 70.8629 126.024 69.7085 126.648 68.6418C126.656 68.6252 126.662 68.6144 126.666 68.6062C126.833 68.3107 126.996 68.0137 127.19 67.7354C127.32 67.5823 127.459 67.4366 127.596 67.2885C127.622 67.2618 127.635 67.2482 127.651 67.231C127.652 67.2301 127.652 67.2308 127.653 67.2297C127.666 67.2231 127.679 67.2165 127.699 67.2058C127.893 67.1019 128.248 66.9843 128.766 66.8333C128.773 66.8323 128.776 66.8319 128.784 66.831C128.85 66.8251 128.926 66.8239 128.984 66.8237C129.114 66.8522 129.239 66.9042 129.356 66.9677C129.656 66.9961 130.602 68.2532 131.053 69.024C131.833 70.1786 132.059 70.5937 132.317 71.9839C132.432 72.8364 132.547 73.6949 132.576 74.5557C132 73.5605 130.938 72.8411 129.839 72.4701ZM95.7036 16.6519C94.8892 16.2505 94.359 15.1815 93.9497 14.3969C93.6826 13.691 93.4838 12.9445 93.4878 12.1854C93.5278 11.7877 93.5816 11.3733 93.7169 11.0227C93.7362 11.0164 93.7552 11.0092 93.7748 11.0035C94.1978 10.8652 95.0443 10.9873 95.6823 11.2188C97.2254 11.8529 98.6686 12.7508 100.025 13.8219C99.1835 15.3996 97.6271 17.0531 95.7036 16.6519ZM85.2731 34.8632C82.9882 34.1902 82.2321 31.9109 82.977 30.5081C83.0946 30.4968 83.2478 30.4898 83.4467 30.4848C83.5442 30.4869 83.6412 30.4962 83.7381 30.5054C83.7577 30.5082 83.7674 30.5093 83.7925 30.5129C85.4405 30.8655 86.9634 31.4236 88.3998 32.1284C88.3863 34.1148 88.0797 35.7756 85.2731 34.8632ZM95.0314 47.8863C92.3827 48.9762 90.9576 45.2646 90.9381 43.3622C90.8906 42.9 91.0672 41.6678 91.3842 41.0595C91.4162 41.0508 91.4464 41.0434 91.4712 41.0403C91.9136 40.9785 92.8409 40.9075 93.2596 41.0799C95.3953 41.7757 97.4682 42.6762 99.4714 43.6898C98.0285 45.1371 96.8952 46.9626 95.0314 47.8863ZM73.1618 94.6723C70.1894 93.6832 67.3783 90.2885 67.8495 87.796C67.8608 87.7399 67.8686 87.6968 67.8776 87.6515C68.727 87.5851 69.5634 87.733 70.736 88.0345C76.9384 90.2666 82.9362 93.0148 88.9335 95.7615C83.6577 95.4758 78.2572 96.3318 73.1618 94.6723ZM98.216 160.422C96.5432 159.469 94.6924 158.927 92.8298 158.475C89.4643 157.744 86.065 158.852 82.6824 158.507C80.3766 158.214 77.9282 158.05 77.5763 156.19C77.3848 155.061 77.346 154.714 77.4705 153.946C80.8389 152.988 88.687 154.986 93.5336 157.497C95.8629 158.628 98.0107 159.901 100.093 161.289C99.4707 160.992 98.8463 160.701 98.216 160.422ZM79.1314 255.735C69.7557 247.183 62.4564 236.733 55.2668 226.357C49.5506 218.046 43.6294 209.859 38.3695 201.247C31.1853 189.342 25.7525 177.77 20.6846 164.995C16.5715 154.667 12.0516 143.184 8.57119 133.478C7.59877 130.608 6.70483 127.708 5.93448 124.777C6.30218 125.29 6.6727 125.8 7.04379 126.306C7.11251 126.398 7.18479 126.486 7.25377 126.577C10.5907 133.37 14.1902 140.032 17.8039 146.68C19.5476 150.091 21.3462 153.472 23.1495 156.851C24.8104 160.172 26.4365 163.515 28.4459 166.644C31.1373 171.044 34.3517 175.088 37.3714 179.262C40.19 183.082 42.9209 186.967 45.6557 190.847C48.4902 195.002 51.5388 199.001 54.3997 203.137C57.2246 207.63 59.8669 212.258 63.1009 216.477C66.6747 221.101 70.6702 225.375 74.5378 229.75C78.1232 233.956 81.6773 238.19 85.2932 242.37C88.6547 246.142 91.8566 250.035 94.8533 254.103C97.7455 258.015 100.613 261.937 103.816 265.605C107.365 269.548 111.081 273.343 114.627 277.29C117.516 280.364 120.031 283.82 123.22 286.595C127.437 289.968 131.744 293.225 135.944 296.618C137.117 297.626 138.286 298.64 139.467 299.64C118.634 286.138 97.6212 272.822 79.1314 255.735ZM153.793 305.988C151.372 304.671 149.437 303.829 147.472 302.381C142.764 299.007 138.639 294.916 134.043 291.399C130.825 288.736 127.381 286.338 124.292 283.524C121.739 280.868 119.433 277.982 116.963 275.248C112.051 269.783 106.828 264.595 102.26 258.829C99.1169 254.544 95.9456 250.28 92.6979 246.074C87.8355 240.457 82.9969 234.819 78.2269 229.122C72.8918 222.825 66.9155 217.018 62.4038 210.066C60.3287 206.986 58.4814 203.759 56.4329 200.664C51.3927 193.683 46.401 186.668 41.386 179.668C37.588 174.434 33.4885 169.401 30.1278 163.865C27.407 159.489 25.399 154.725 22.6874 150.34C18.4207 142.844 13.547 135.724 8.79782 128.529C11.8153 132.22 15.1659 135.623 18.5536 138.978C24.1308 144.545 29.7529 150.125 34.6575 156.302C39.8519 162.715 44.8919 169.248 49.8624 175.834C53.3514 180.152 56.8824 184.437 60.394 188.736C67.4731 197.821 74.9673 206.564 82.465 215.302C85.3303 218.975 88.2293 222.623 90.9187 226.427C93.1873 229.302 95.5945 232.061 97.9906 234.829C104.672 242.99 109.758 252.33 116.463 260.479C119.174 263.859 122.075 267.086 125.167 270.122C127.617 272.354 130.058 274.605 132.143 277.192C136.864 283.573 142.389 289.275 147.796 295.069C149.652 297.305 151.558 299.502 153.385 301.763C155.329 304.219 157.222 306.733 159.371 309.015C157.489 308.047 155.666 306.975 153.793 305.988ZM259.458 152.631C261.983 163.48 265.457 174.333 263.082 184.81C261.576 193.915 257.738 201.147 254.812 210.367C252.422 217.375 251.846 224.805 250.136 231.982C248.195 240.931 245.821 247.357 242.483 255.814C241.267 259.037 239.898 262.199 238.589 265.385C236.725 269.054 234.86 272.722 233.022 276.405C230.069 282.162 227.72 288.226 226.034 294.471C223.65 302.997 223.254 311.866 223.352 320.667C223.331 321.37 223.293 322.072 223.225 322.771C223.098 324.159 222.9 325.543 222.882 326.938C222.765 331.798 222.913 336.654 222.97 341.511C222.708 347.573 220.843 355.749 220.146 363.382C219.99 360.912 219.85 358.441 219.693 355.97C218.528 340.58 217.445 323.63 217.96 308.938C218.292 304.204 218.526 299.463 218.777 294.726C219.758 289.024 220.517 283.286 221.211 277.541C221.586 274.164 222.161 270.81 222.847 267.485C223.267 266.12 223.756 264.776 224.036 263.371C225.089 258.403 226.037 253.393 227.614 248.556C229.683 242.585 231.52 236.54 233.918 230.688C236.761 224.319 239.808 218.01 241.564 211.228C242.782 207.263 244.259 203.375 245.357 199.374C246.236 195.958 246.533 192.425 247.359 188.999C248.403 184.562 250.482 180.411 251.233 175.898C251.737 173.376 251.771 170.786 252.331 168.276C253.045 165.3 254.22 162.455 254.985 159.49C255.574 156.56 256.369 153.672 256.821 150.716C257.073 148.559 257.574 146.433 257.835 144.282C258.317 147.078 258.79 149.876 259.458 152.631ZM257.263 141.067C257.217 142.158 257.162 143.249 257.061 144.336C256.035 148.612 255.118 152.926 253.886 157.154C253.241 159.533 252.709 161.59 251.988 163.469C250.949 166.441 249.741 169.408 249.496 172.578C249.21 175.191 248.852 177.821 248.101 180.347C247.073 183.752 245.679 187.046 244.879 190.517C244.135 193.72 243.817 197.009 243.023 200.203C242.051 203.885 240.703 207.457 239.551 211.085C238.772 213.45 238.178 215.873 237.312 218.21C235.727 222.539 233.72 226.695 231.825 230.893C230.032 235.387 228.383 239.929 226.944 244.548C225.975 247.477 224.872 250.366 224.121 253.362C222.724 258.302 222.176 263.453 220.548 268.324C219.035 274.911 218.573 281.685 217.605 288.366C217.28 291.776 216.286 295.099 216.313 298.539C216.091 304.657 215.507 310.756 215.565 316.883C215.504 325.727 215.939 334.574 216.486 343.399C217.527 351.75 218.388 360.149 219.88 368.433C219.878 369.004 219.886 369.568 219.907 370.123C219.955 371.937 220.025 373.751 220.154 375.562C219.615 373.292 219.111 371.013 218.666 368.721C216.642 357.571 215.634 346.261 214.134 335.033C212.32 321.343 209.759 307.649 209.935 293.793C209.855 287.034 210.252 280.991 210.597 273.905C210.93 266.837 211.414 259.766 212.321 252.745C213.571 243.825 215.942 235.103 218.274 226.415C222.223 213.221 228.628 200.929 234.308 188.424C238.973 178.195 243.748 168.016 248.627 157.887C251.564 152.1 254.771 146.405 257.131 140.358C257.176 140.594 257.219 140.831 257.263 141.067Z" fill="#B1C5AA" fill-opacity="0.24"/>
</svg>
