<svg width="320" height="373" viewBox="0 0 320 373" fill="none" xmlns="http://www.w3.org/2000/svg">
<path d="M83.9502 80.9865C83.9827 80.9912 84.0146 80.9991 84.0468 81.0045C84.029 81.0029 83.9883 80.9946 83.9479 80.9867C83.9489 80.9863 83.9502 80.9865 83.9502 80.9865Z" fill="#B1C5AA" fill-opacity="0.24"/>
<path d="M61.9591 242.406C61.9941 242.398 62.0296 242.392 62.065 242.385C62.0374 242.392 62.0013 242.399 61.9568 242.408C61.9568 242.408 61.9583 242.407 61.9591 242.406Z" fill="#B1C5AA" fill-opacity="0.24"/>
<path d="M166.445 230.731C166.471 230.739 166.496 230.747 166.522 230.755C166.514 230.759 166.471 230.749 166.414 230.726C166.426 230.728 166.436 230.729 166.445 230.731Z" fill="#B1C5AA" fill-opacity="0.24"/>
<path d="M51.8139 344.675C51.8112 344.67 51.8104 344.668 51.8082 344.663C51.7912 344.615 51.7768 344.566 51.7614 344.518C51.7757 344.534 51.7957 344.582 51.8139 344.675Z" fill="#B1C5AA" fill-opacity="0.24"/>
<path d="M0.0497789 261.752C-0.178455 261.656 -0.404982 261.558 -0.634933 261.468C-6.21704 259.995 -11.8743 258.699 -17.5727 257.749C-22.4743 257.177 -27.2829 255.911 -31.9713 254.396C-34.9781 253.194 -37.522 251.042 -39.9107 248.902C-41.3039 247.496 -42.6432 245.518 -42.3414 243.454C-41.8744 241.131 -40.0236 239.054 -37.7594 238.345C-33.5754 237.122 -29.2755 238.831 -25.2084 239.803C-19.3748 241.407 -14.3211 244.944 -9.66229 248.695C-8.49976 249.592 -7.38305 250.538 -6.30287 251.521C-8.67185 247.673 -10.25 243.421 -11.9012 239.222C-11.8765 239.423 -11.8529 239.623 -11.8207 239.824C-12.0345 239.382 -12.2667 238.643 -12.4697 237.796C-12.5985 237.475 -12.7253 237.153 -12.8569 236.834C-14.1432 233.652 -15.3946 230.456 -16.6164 227.249C-18.1764 224.768 -19.7704 222.178 -21.2457 219.704C-23.5363 215.642 -25.5686 211.436 -27.5724 207.227C-24.5304 211.26 -21.7434 215.497 -19.3331 219.935C-19.7971 218.656 -20.2611 217.378 -20.714 216.095C-18.2111 220.565 -15.6957 225.029 -13.2212 229.515C-13.3414 226.488 -13.4915 223.462 -14.1167 220.493C-14.9035 216.803 -16.5205 213.359 -17.7425 209.804C-18.9178 206.51 -19.7892 203.008 -20.9511 200.531C-23.4703 195.24 -26.6297 193.005 -30.8305 192.169C-30.9744 192.14 -31.1199 192.118 -31.265 192.095C-31.2751 192.099 -31.2859 192.102 -31.296 192.106C-31.3218 192.116 -31.3476 192.127 -31.3733 192.137C-31.5665 192.249 -32.0951 192.545 -32.2403 192.668C-33.6322 193.662 -34.1039 195.422 -33.9058 199.258C-33.616 204.238 -32.1332 208.217 -30.3646 212.308C-28.9151 215.757 -26.9383 218.945 -24.6969 221.932C-21.4108 226.406 -17.9652 230.764 -14.3926 235.013C-18.7115 231.192 -22.8602 227.175 -26.7926 222.956C-29.5296 220.054 -32.0597 216.934 -33.9366 213.398C-36.6322 208.439 -38.9675 202.957 -38.6396 197.202C-38.5803 196.012 -38.4564 194.771 -37.9051 193.696C-36.7376 191.756 -34.6063 190.497 -32.416 190.064C-29.4887 189.547 -26.5483 190.594 -23.8796 191.712C-18.2375 194.403 -15.8321 200.666 -14.5035 206.391C-12.891 212.75 -10.2825 219.059 -11.0592 225.744C-11.1607 227.904 -11.4881 230.059 -11.7402 232.215C-11.0685 233.446 -10.3963 234.677 -9.73428 235.913C-7.62346 239.816 -5.77199 243.856 -3.58473 247.718C-2.86845 248.829 -2.15888 249.946 -1.45167 251.064C-1.46016 250.724 -1.46639 250.383 -1.45303 250.041C-0.976826 246.448 0.0316233 242.933 1.30318 239.544C3.53826 233.986 6.19686 227.912 11.5032 224.665C14.13 223.304 17.3418 224.131 19.5677 225.901C22.6753 228.564 23.9879 232.887 24.0576 236.874C23.2993 242.627 14.5817 247.979 10.2876 251.478C7.70063 253.475 5.29791 255.716 2.70923 257.709C7.73073 265.768 12.7686 273.825 18.5734 281.337C19.0618 281.935 19.5553 282.513 20.0528 283.081C19.934 282.594 19.8248 282.105 19.7305 281.613C19.3657 278.523 19.2178 275.402 19.2247 272.29C19.2804 265.245 20.5489 257.604 25.6645 252.379C28.5299 249.18 32.8088 248.345 36.9113 249.035C41.9224 249.653 45.9846 252.654 46.4977 257.92C46.6901 259.711 45.8108 261.332 44.9781 262.848C44.0914 264.596 43.0622 266.268 41.9899 267.908C40.2727 270.761 38.0035 273.195 35.4471 275.314C31.3396 279.007 26.8429 282.261 22.8487 286.076C26.7095 289.956 30.9355 293.22 35.9333 296.623C41.0922 300.104 46.5089 303.173 51.838 306.381C54.5622 308.079 57.2309 309.867 59.9068 311.642C57.5151 308.555 55.2749 305.352 53.1932 302.042C51.3099 299.027 49.5678 295.892 48.3631 292.538C47.5095 290.098 47.0464 287.544 46.6059 285.003C46.1846 282.607 45.8208 280.084 46.5159 277.706C47.6106 274.194 51.1714 272.424 54.6114 273.798C59.8011 275.926 63.0355 280.91 64.5762 286.124C65.7482 289.84 66.7033 293.626 67.4161 297.456C67.983 300.06 67.5212 302.762 67.5149 305.406C67.3493 307.258 67.757 309.08 67.8827 310.921C68.0711 312.839 68.1354 314.774 67.9738 316.696C67.9678 316.812 67.9577 316.927 67.9477 317.043C75.3618 322.159 82.6577 327.451 90.1447 332.457C93.3883 334.489 96.6316 336.522 99.8797 338.547C93.6787 332.085 87.6903 324.568 86.2241 316.458C85.7521 313.447 85.7047 310.089 87.2209 307.357C88.1212 306.068 89.2934 304.894 90.6775 304.207C83.4182 302.33 76.1698 299.316 71.3146 293.398C69.862 291.695 69.1673 288.954 70.8371 287.162C72.2847 285.702 73.929 284.423 75.6105 283.239C83.4106 278.7 93.3822 281.441 101.467 283.884C114.081 287.34 124.094 295.95 132.02 306.076C133.732 308.348 135.608 310.59 137.028 313.065C137.518 313.313 138 313.575 138.448 313.889C138.68 314.082 138.898 314.291 139.114 314.502C134.714 304.905 130.233 295.346 125.721 285.802C123.512 281.777 121.293 277.757 119.076 273.736C118.847 273.542 118.628 273.318 118.381 273.083C116.2 271.148 115.023 269.575 113.201 268.217C110.764 266.333 109.084 265.808 105.721 264.793C103.029 264.06 102.236 263.696 99.6808 263.335C97.1745 263.046 91.0887 262.383 87.4191 261.486C83.0449 260.334 78.9198 258.438 74.7084 256.821C72.0839 255.967 69.4569 255.121 66.8411 254.24C63.8973 253.245 60.893 252.149 58.5786 249.994C57.0206 248.592 55.7503 246.45 55.9547 244.301C56.5372 241.816 59.2402 240.514 61.5999 240.286C70.4267 239.899 79.2129 242.09 87.1399 245.921C93.7125 249.098 100.343 252.338 105.842 257.229C108.411 259.449 110.821 261.851 113.073 264.391C113.522 264.631 113.959 264.89 114.387 265.163C110.45 258.024 106.118 251.098 102.582 243.747C102.437 243.447 102.301 243.144 102.159 242.843C101.033 242.739 100.049 242.31 100.805 241.366C100.964 241.243 101.138 241.141 101.319 241.05C100.298 238.845 99.3156 236.623 98.3559 234.391C96.5114 232.755 94.6837 231.1 92.9259 229.373C90.4027 226.673 87.9619 223.892 84.9396 221.726C83.0233 220.303 81.0124 218.998 79.2073 217.431C75.8328 214.456 72.778 211.281 68.7151 208.721C68.066 208.341 67.419 207.958 66.7761 207.568C67.516 207.894 68.2576 208.214 68.9997 208.534C73.4769 210.578 77.3391 213.684 81.1503 216.747C83.5721 218.633 86.2479 220.181 88.5304 222.247C90.8433 224.177 92.5541 226.661 94.3891 229.021C95.4999 230.374 96.6376 231.705 97.7782 233.035C97.1815 231.63 96.5899 230.224 96.0081 228.812C91.9899 224.281 87.567 220.14 83.005 216.149C76.2443 210.154 69.2171 204.412 61.3679 199.89C59.5475 198.824 57.0641 197.043 55.7139 196.402C53.8808 195.581 52.6772 195.482 50.4434 195.082C44.5474 194.126 30.7111 193.439 29.1027 197.513C29.4425 204.363 38.5893 209.408 45.7576 212.299C51.4604 214.65 57.0754 217.224 62.8542 219.385C71.0382 222.449 79.8177 223.534 88.0389 227.628C92.3457 229.513 95.7219 232.843 98.6466 236.445C94.9601 232.911 90.8123 229.818 85.9319 228.163C79.2525 225.613 72.6643 224.55 65.4866 222.714C60.1674 221.385 55.1535 219.14 50.1259 216.997C41.6407 213.089 28.6436 209.493 25.1658 199.923C24.2395 197.45 25.0748 196.269 27.212 194.963C31.2729 192.549 36.2101 192.513 40.8015 192.338C46.7339 192.393 52.8861 192.658 58.5119 194.685C61.8138 196.313 64.7581 198.586 67.948 200.423C73.8527 204.027 78.9456 208.777 83.8211 213.645C87.8857 217.768 91.7905 222.064 95.1675 226.758C93.5082 222.697 91.8789 218.622 90.2044 214.568C87.0281 206.748 84.6564 198.624 81.8374 190.671C80.7647 187.58 79.7339 184.476 78.7248 181.365C78.2944 180.925 77.8482 180.502 77.3942 180.088C77.9185 180.913 78.4323 181.742 78.9376 182.572C77.6742 181.106 76.406 179.64 75.1251 178.185C73.8479 177.204 72.507 176.304 71.123 175.475C69.2114 174.242 67.3703 172.888 65.3801 171.782C61.5542 170.34 57.5079 169.493 53.6695 168.052C49.2918 166.374 45.0686 164.339 40.9457 162.11C38.0229 160.677 31.5227 157.717 27.6373 155.195C25.608 153.913 23.6663 152.501 21.6932 151.137C20.5227 150.369 19.2751 149.674 18.3454 148.604C17.4645 147.609 16.9342 146.376 16.3219 145.211C15.9539 144.447 15.5654 143.651 15.5087 142.793C15.4459 141.453 16.7434 140.559 17.8199 140.029C18.1675 139.86 19.3483 139.368 19.3621 139.362C19.3884 139.351 19.4127 139.34 19.424 139.334C20.6112 138.771 21.8573 138.306 23.174 138.186C24.7062 138.054 26.2389 138.287 27.7733 138.287C32.7183 138.391 37.6818 139.329 42.1628 141.471C58.5225 148.434 70.3675 162.833 77.8554 178.667C75.5317 171.405 73.3126 164.108 71.0042 156.841C67.4168 143.013 63.6671 129.227 60.397 115.322C59.6723 114.618 58.9678 113.893 58.3349 113.1C57.1742 111.804 56.2817 110.287 55.0671 109.041C52.2184 106.685 48.6814 105.602 45.6784 103.478C43.1863 101.658 40.9069 99.5594 38.4068 97.7467C35.477 95.6472 32.5645 93.4845 30.1854 90.752C28.1909 88.5641 26.1656 86.4086 23.9616 84.4281C22.508 83.0271 20.9602 81.647 19.9304 79.8899C19.221 78.3659 18.711 76.6105 18.8481 74.9223C19.7837 71.3716 24.5633 72.9544 27.0131 73.7942C29.8673 74.8661 32.4052 76.5816 34.9227 78.2697C37.9422 80.2725 41.011 82.2459 43.6349 84.7655C46.3213 87.4607 48.4262 90.6711 50.7794 93.6487C53.6886 97.7756 55.6603 102.483 58.0337 106.925C58.3152 107.452 58.58 107.987 58.8419 108.523C58.7088 107.924 58.5689 107.327 58.4384 106.727C55.3482 93.6866 52.7051 80.5109 51.2797 67.1859C50.1617 65.0104 49.126 62.7963 48.0835 60.5827C46.2755 57.0417 44.2249 53.6116 42.8033 49.8888C41.856 47.724 40.7582 45.6317 40.0921 43.3541C39.3457 41.2139 38.5149 38.9901 38.8714 36.6868C38.9235 35.6602 39.4102 34.7135 40.3311 34.2113C42.1542 33.125 44.5078 33.52 46.2476 34.5927C49.0678 36.476 51.0169 39.5165 52.0596 42.7053C52.4879 44.1738 52.5137 45.72 52.66 47.2334C53.2545 53.2721 52.4129 59.3104 52.2513 65.3499C55.4176 78.9026 59.1986 92.3052 62.2284 105.894C63.5776 112.074 65.0475 118.224 66.58 124.358C66.4378 120.315 66.5831 116.264 66.6235 112.217C66.6682 109.094 66.7391 105.939 67.4706 102.887C68.9968 97.2565 70.2147 91.2724 74.0946 86.7103C75.1944 85.3279 76.4613 84.0932 77.7132 82.851C78.6751 81.8468 79.5654 80.7098 80.8372 80.0804C83.0333 79.0989 85.9679 78.9186 87.9517 80.4544C94.34 85.822 92.7589 92.55 88.4473 98.6662C86.2412 101.919 84.1704 105.275 81.7084 108.344C80.3287 110.008 78.9334 111.67 77.4113 113.206C75.2689 115.293 72.9091 117.27 71.7201 120.099C70.1587 123.509 69.0232 127.11 68.2034 130.769C70.3977 139.324 72.6809 147.858 74.9063 156.406C77.7235 165.363 80.4899 174.339 83.3767 183.274C83.9156 184.866 84.4789 186.524 85.0553 188.217C83.3093 176.541 82.1984 164.6 85.9851 153.253C87.7393 147.956 89.9067 142.55 93.6333 138.319C95.6959 136.26 99.1114 134.771 101.839 136.402C104.781 138.195 105.686 141.825 106.282 145C106.814 148.159 106.828 151.368 105.883 154.451C105.156 158.151 104.044 161.757 102.605 165.242C100.567 170.552 98.1941 175.711 95.4055 180.671C93.4549 184.282 91.0837 187.68 89.4897 191.474C88.7546 193.27 88.3302 195.148 88.0713 197.059C89.6867 201.792 91.2628 206.415 92.5753 210.319C95.6063 217.703 98.5531 225.122 101.614 232.494C100.415 227.056 99.91 221.496 100.57 215.91C100.732 208.886 101.553 201.839 103.788 195.149C105.273 191.407 107.468 187.892 110.209 184.943C111.987 183.295 112.617 182.946 114.177 181.889C115.938 180.548 118.161 179.785 120.381 180.13C122.916 180.547 124.688 182.692 125.459 185.06C125.339 181.916 125.632 178.898 126.582 176.156C127.51 173.7 130.51 172.8 132.726 174.122C137.783 177.049 139.287 184.254 140.114 189.622C141.383 197.956 140.6 206.52 138.001 214.529C137.564 215.837 137.166 217.174 136.68 218.473C136.793 219.452 136.904 220.432 137.019 221.41C137.021 221.435 137.024 221.461 137.027 221.486C137.203 220.944 137.38 220.403 137.562 219.863C139.208 215.334 141.05 210.876 142.582 206.304C145.565 197.766 148.79 189.315 151.972 180.849C151.903 180.493 151.835 180.156 151.778 179.875C151.165 176.29 149.949 174.164 148.237 170.846C146.305 166.702 144.592 162.461 142.626 158.332C140.842 154.542 138.512 151.013 136.918 147.137C135.215 142.415 133.597 137.297 134.775 132.262C135.462 128.837 138.212 126.275 141.838 127.282C144.392 127.927 146.94 128.866 148.858 130.742C155.001 136.48 155.711 145.621 156.203 153.54C156.579 158.903 156.511 164.274 156.222 169.636C157.197 167.056 158.125 164.46 158.885 161.806C160.623 155.984 161.904 151.226 162.647 145.665C163.254 140.588 163.545 135.474 163.638 130.356C163.21 128.931 162.776 127.508 162.341 126.085C161.085 122.47 159.598 117.949 158.466 115.008C157.63 113.183 156.632 111.436 155.759 109.628C154.25 106.523 152.503 103.52 151.389 100.24C149.619 94.6537 146.586 83.7364 154.071 81.2372C158.244 80.1111 161.819 83.0488 164.481 85.9142C167.8 89.465 170.724 93.4862 172.288 98.1305C174.491 104.356 173.531 111.058 172.026 117.326C170.761 122.534 169.144 127.655 167.382 132.717C167.754 137.367 167.862 142.048 167.362 146.69C166.497 153.565 164.43 160.243 162.174 166.782C163.963 163.543 165.851 160.36 167.858 157.249C169.55 154.613 171.343 152.037 173.306 149.595C175.056 147.415 176.852 145.197 179.207 143.641C186.462 139.251 190.875 140.624 192.679 149.196C193.963 156.608 189.244 164.003 183.049 167.76C178.841 170.003 174.544 172.109 170.234 174.147C166.598 175.538 162.927 176.934 159.768 179.263C158.618 180.247 157.437 181.203 156.304 182.209C152.83 191.275 149.391 200.355 146.153 209.508C145.127 212.484 143.882 215.381 142.775 218.327C143.191 217.819 143.613 217.314 144.036 216.814C145.306 211.986 147.938 207.73 150.848 203.722C153.321 200.299 156.06 197.055 159.274 194.302C161.992 191.818 164.926 189.382 168.659 188.718C170.624 188.346 172.689 188 174.66 188.509C177.521 189.313 179.689 191.817 180.659 194.559C182.466 199.133 181.853 204.398 177.785 207.533C173.621 210.367 168.821 211.272 163.855 213.086C158.036 214.56 152.292 216.871 146.859 220.28C142.839 222.327 141.009 226.576 139.03 230.375C140.073 227.571 140.786 224.543 142.732 222.19C144.156 220.501 146.096 219.332 147.914 218.11C150.14 216.701 152.452 215.426 154.869 214.375C158.708 212.692 162.808 211.719 166.711 210.197C169.858 209.15 172.475 208.285 174.624 206.907C177.96 204.386 178.813 200.304 177.441 195.8C176.822 193.004 173.908 190.004 172.394 189.895C171.055 189.775 168.763 190.222 167.132 190.971C165.42 191.759 164.185 192.922 162.657 194.082C158.01 197.614 154.016 201.904 150.395 206.462C147.814 209.615 145.594 213.012 144.053 216.793C144.666 216.067 145.281 215.346 145.881 214.619C149.198 210.82 152.756 207.238 156.462 203.819C153.363 207.759 150.272 211.715 146.89 215.418C145.313 217.199 143.598 218.865 141.963 220.597C141.924 220.71 141.88 220.82 141.842 220.933C139.958 226.367 138.265 232.775 137.366 237.512C135.314 247.339 135.095 257.391 135.625 267.383C138.155 260.827 140.935 254.371 143.726 247.922C145.971 242.388 148.983 236.983 153.909 233.409C157.451 230.646 162 229.51 166.392 229.02C170.477 228.896 173.912 232.117 176.078 235.295C178.026 238.051 177.924 240.529 176.295 243.414C174.248 247 169.039 249.709 166.426 251.501C162.071 254.793 157.427 257.648 152.564 260.124C148.951 262.285 144.942 264.099 142.207 267.405C140.889 269.164 139.823 271.095 138.773 273.021C138.068 274.359 137.354 275.776 136.047 276.596C136.52 284.945 137.368 293.267 138.715 301.527C139.017 303.41 139.361 305.286 139.724 307.158C140.617 309.092 141.499 311.031 142.378 312.971C144.04 308.256 146.222 303.728 148.754 299.409C151.798 294.598 154.957 289.406 159.967 286.429C162.454 285.043 165.21 284.277 167.888 283.361C170.575 282.403 173.447 281.608 176.313 282.127C181.261 283.304 189.964 285.211 192.171 290.252C193.781 293.26 191.573 296.408 189.571 298.612C188.303 299.893 186.762 300.85 185.293 301.883C183.76 302.984 182.279 304.177 180.594 305.043C177.723 306.465 174.647 307.413 171.635 308.484C165.922 310.57 158.071 312.682 153.173 313.889C150.115 314.771 147.054 315.646 144.016 316.593C145.494 319.875 146.969 323.159 148.46 326.436C150.635 330.641 152.82 334.842 154.991 339.05C157.825 344.487 160.606 349.953 163.376 355.426C164.229 354.841 165.087 354.264 165.952 353.696C169.575 347.489 174.571 342.166 179.716 337.179C184.698 332.355 190.953 327.406 198.295 328.046C203.844 328.744 210.946 330.06 212.842 336.166C213.523 338.031 212.934 340.079 212.165 341.826C210.839 344.827 208.19 346.913 205.506 348.657C202.812 350.492 199.705 351.564 196.701 352.77C194.581 353.635 192.435 354.444 190.239 355.095C184.752 356.789 178.991 357.14 173.307 357.671C170.509 357.883 167.72 358.164 164.936 358.502C169.722 367.976 174.485 377.461 179.388 386.871C180.429 384.381 182.26 382.226 184.01 380.169C187.591 376.081 191.979 372.707 197.056 370.704C202.953 368.15 209.36 366.659 215.794 366.544C220.27 366.494 228.347 367.786 230.922 371.771C231.676 372.968 231.83 374.417 231.032 375.637C227.062 381.878 215.46 384.16 208.619 385.926C203.889 387.234 199.116 388.361 194.25 389.024C190.834 389.541 187.388 389.853 183.964 390.31C183.082 390.445 182.193 390.513 181.303 390.538C184.72 397.028 188.216 403.474 191.848 409.845C196.758 418.266 201.905 426.536 207.272 434.674C207.62 435.227 207.965 435.783 208.313 436.337C208.754 436.73 208.997 437.137 209.056 437.524C213.435 444.517 217.765 451.54 222.134 458.539C226.284 465.028 230.514 471.468 234.764 477.894C234.85 476.766 234.944 475.638 235.06 474.513C234.099 470.123 233.069 465.739 232.38 461.297C231.878 456.314 231.607 451.297 231.655 446.287C231.799 439.366 233.119 425.081 240.019 421.733C241.878 420.812 244.238 420.32 246.16 421.314C251.531 425.391 250.95 433.258 249.866 439.212C249.082 443.751 247.059 447.89 245.527 452.191C243.429 458.034 242.028 464.084 240.097 469.98C239.597 471.517 238.92 473.007 238.342 474.524C238.29 476.417 238.285 478.31 238.278 480.204C238.19 481.232 238.336 482.225 238.103 482.938C239.901 485.65 241.7 488.361 243.497 491.072C256.644 508.829 269.521 526.791 281.557 545.326C273.053 535.292 264.703 525.123 256.827 514.586C251.063 506.871 245.433 499.057 239.727 491.299C238.499 489.455 237.276 487.608 236.053 485.762C230.881 486.664 225.704 487.636 220.443 487.807C213.397 488.002 206.397 486.871 199.46 485.764C195.395 484.806 191.337 483.812 187.299 482.749C184.482 482.014 181.931 480.525 179.596 478.817C176.095 476.435 172.967 473.358 171.222 469.445C170.164 467.037 169.58 463.798 171.282 461.561C173.587 459.41 177.312 458.977 180.35 458.854C195.675 458.613 206.992 462.502 219.97 470.377C222.322 471.723 224.615 473.171 226.942 474.563C227.882 475.078 228.819 475.609 229.743 476.163C221.787 464.002 213.959 451.759 206.349 439.377C204.501 439.389 201.987 439.178 199.301 438.706C197.086 438.306 194.92 437.651 192.671 437.448C190.978 437.208 187.264 437.157 184.494 437.367C174.834 437.777 163.478 439.917 155.53 433.007C151.243 428.968 152.067 421.527 156.431 417.867C158.435 416.304 161.036 415.92 163.513 415.976C165.875 415.934 168.264 415.984 170.577 416.511C177.592 418.269 184.036 421.809 190.269 425.39C193.663 427.447 197.055 429.509 200.449 431.566C195.024 425.466 189.587 419.378 183.874 413.546C179.462 409.052 175.375 404.247 170.945 399.776C169.235 398.088 167.508 396.414 165.775 394.745C165.764 394.745 165.754 394.743 165.743 394.742C164.185 394.985 162.597 394.918 161.03 395.091C160.899 395.117 160.681 395.16 160.499 395.203C159.445 395.522 158.419 395.926 157.385 396.305C154.562 397.34 149.938 398.015 148.292 398.515C142.22 400.634 135.86 401.586 129.505 402.388C125.585 402.8 124.256 403.297 120.285 403.801C118.286 403.93 116.299 403.625 114.332 403.301C112.683 403.058 111.02 402.864 109.416 402.394C101.905 400.364 100.201 392.646 105.303 387.053C111.269 380.345 126.16 380.561 134.522 381.524C142.915 382.577 150.564 386.293 157.953 390.276C159.292 390.552 160.63 390.835 161.967 391.126C153.139 382.786 143.999 374.694 134.52 366.827C132.529 367.021 130.533 367.171 128.537 367.304C125.281 367.431 123.369 367.541 120.887 368.048C115.657 369.141 113.196 370.207 107.049 371.727C98.0287 372.828 88.4409 374.265 79.6793 371.114C78.0687 370.391 76.3282 369.568 75.3751 368.011C74.5199 366.417 74.5298 364.315 75.9215 363.026C77.9094 361.379 80.3246 360.298 82.6795 359.277C86.723 357.484 91.0871 356.515 95.5116 356.464C103.168 356.172 110.825 357.201 118.222 359.154C122.011 360.128 125.797 361.209 129.436 362.657C126.605 360.362 123.753 358.082 120.86 355.827C116.77 352.944 112.68 350.061 108.59 347.179C106.112 347.037 105.098 347.061 102.786 347.24C99.376 347.533 96.8315 348.11 92.9226 348.831C90.9193 349.131 88.9053 349.385 86.8999 349.667C84.7123 349.987 82.5124 350.209 80.3146 350.443C71.0521 352.066 61.0047 353.352 52.2416 349.116C50.1592 348.152 47.8213 346.755 47.4863 344.273C47.3663 340.983 53.5316 339.648 54.8726 339.318C62.1527 337.134 69.818 336.49 77.3881 336.914C85.8119 337.392 94.011 339.703 101.791 342.975C97.3345 340.235 92.8798 337.491 88.4413 334.722C81.232 330.115 74.2714 325.128 67.2425 320.247C66.9288 320.254 66.6532 320.234 66.4754 320.188C64.6242 319.568 64.8727 319.339 62.704 319.311C57.7476 319.167 50.7068 319.738 44.0892 320.315C42.2428 320.508 40.3963 320.703 38.5497 320.894C34.791 321.465 31.06 322.292 27.2486 322.412C23.5049 322.601 19.8251 321.757 16.207 320.898C11.6307 319.874 6.76542 318.799 2.95641 315.928C-0.0933871 313.242 -0.472943 311.002 3.25246 308.69C3.95878 308.153 6.0814 306.591 7.4952 305.978C9.06746 305.234 10.7593 304.788 12.4546 304.425C15.4255 303.821 18.4412 303.361 21.4792 303.366C23.8061 303.355 26.1054 303.779 28.4091 304.058C33.1345 304.552 37.7213 305.76 42.1155 307.556C47.3584 309.507 52.598 311.513 57.6967 313.822C54.2343 311.546 50.7945 309.233 47.2389 307.107C40.7303 303.245 34.1006 299.553 27.9745 295.09C25.8933 293.54 23.8535 291.922 21.8907 290.217C18.1443 290.259 14.445 291.811 10.7901 292.385C1.37043 293.329 -8.68445 295.884 -17.7691 292.061C-19.7873 291.156 -21.9799 290.248 -23.336 288.417C-24.287 286.871 -24.9787 284.847 -24.3763 283.059C-23.548 281.529 -21.9592 280.62 -20.4678 279.833C-18.5414 278.8 -16.6195 277.701 -14.5106 277.084C-10.8443 275.965 -6.86969 275.683 -3.17442 276.827C3.38371 278.701 9.58382 281.556 15.8159 284.306C14.6775 283.05 13.5877 281.75 12.5646 280.392C8.09267 274.39 4.02495 268.1 0.0497789 261.752ZM-1.87493 258.66C-10.603 255.75 -18.968 251.778 -26.7932 246.945C-18.0346 250.385 -10.101 254.174 -2.02559 258.417C-2.94395 256.941 -3.86365 255.465 -4.78081 253.989C-8.47457 251.052 -12.4243 248.444 -16.489 246.037C-21.9032 242.676 -27.2451 241.094 -33.4443 240.049C-35.7771 239.7 -36.2636 239.478 -37.9111 242.637C-38.9582 245.148 -36.2022 248.06 -33.9356 249.799C-32.2079 251.225 -30.6054 252.554 -28.7638 253.16C-24.6342 254.542 -21.9532 255.392 -18.2117 256.212C-12.7129 257.161 -7.38903 258.916 -2.1227 260.726C-1.40539 260.941 -0.722026 261.23 -0.0629662 261.572C-0.669315 260.603 -1.27095 259.631 -1.87493 258.66ZM10.459 249.358C13.2452 246.88 16.0667 244.419 18.3618 241.46C18.0941 241.903 19.2164 240.245 19.396 239.847C19.6086 239.585 20.0333 238.369 20.1365 238.071C20.3588 237.053 20.141 236.01 19.9473 235.005C19.2442 230.442 16.3389 226.611 14.0401 225.922C13.9463 225.984 13.8119 226.074 13.5598 226.222C9.49131 229.184 6.51306 234.234 3.82609 239.362C2.07204 242.789 0.503385 246.334 -0.590361 250.029C-0.718274 250.678 -0.798291 251.334 -0.86474 251.992C-0.0786309 253.24 0.701842 254.494 1.48298 255.746C5.04666 250.022 9.172 244.671 13.8047 239.769C10.3555 245.595 6.12235 250.891 1.5719 255.888C1.86267 256.355 2.15574 256.821 2.447 257.287C5.11851 254.648 7.57753 251.784 10.459 249.358ZM98.8662 254.875C95.7822 252.937 92.9915 251.585 89.7515 250.118C86.6176 248.697 83.5355 247.154 80.3317 245.893C76.5473 244.48 73.7926 243.603 70.0852 242.922C68.31 242.538 63.4661 242.437 62.1973 242.357C62.1951 242.358 62.1947 242.358 62.1924 242.358C62.1497 242.366 62.1064 242.375 62.0635 242.385C62.0929 242.377 62.1145 242.372 62.1266 242.367C62.0896 242.372 62.0622 242.375 62.05 242.377C62.0234 242.384 61.9937 242.393 61.9602 242.406L61.9594 242.406L61.9578 242.407C61.9557 242.408 61.9537 242.408 61.9521 242.409C61.9537 242.408 61.9554 242.408 61.9569 242.408C61.8903 242.442 61.827 242.483 61.7623 242.521C61.5878 242.666 61.2782 242.927 61.1663 243.08C61.0965 243.172 61.0398 243.24 61.0033 243.279C60.9789 243.314 60.9519 243.347 60.9284 243.383C60.3917 244.225 60.5263 244.281 60.7375 245.528C62.608 251.776 71.9201 252.567 79.1351 255.554C82.7172 256.998 87.5018 258.986 90.3596 259.666C94.9783 260.666 98.6626 260.789 102.757 261.509C100.659 260.438 98.564 259.363 96.4781 258.269C94.3362 257.029 92.2696 255.635 89.9119 254.824C88.8023 254.385 87.6867 253.961 86.5739 253.531C87.4874 253.796 88.4009 254.062 89.3139 254.33C92.2883 255.075 95.0152 256.436 97.7437 257.798C101.73 259.509 105.683 261.298 109.717 262.893C106.301 259.961 102.706 257.23 98.8662 254.875ZM65.7502 163.456C57.5109 153.853 46.1707 144.753 34.5293 141.199C30.9641 140.159 26.2568 140.192 23.5865 140.038C23.5098 140.052 23.4519 140.059 23.4104 140.062C23.3822 140.068 23.3536 140.074 23.3251 140.081C22.0428 140.556 20.7264 141.132 20.1504 141.478C19.1446 142.184 19.561 143.102 20.3306 144.676C21.347 146.711 22.0631 148.018 23.5549 148.913C28.0256 151.893 32.3499 155.112 37.2206 157.437C38.6455 158.173 41.6063 159.557 43.8531 160.653C45.9807 161.791 50.0976 163.983 51.1152 164.505C54.2902 165.999 57.5017 167.406 60.8163 168.565C62.8893 169.348 65.0658 169.901 67.0497 170.895C68.1143 171.51 69.0522 172.316 70.0157 173.074C70.6088 173.547 71.2058 174.018 71.8019 174.491C69.1661 171.626 66.4406 168.845 63.5405 166.25C59.3869 162.558 54.7122 159.514 50.6964 155.662C50.155 155.175 49.6071 154.694 49.0661 154.207C49.6805 154.613 50.294 155.021 50.9061 155.431C55.3076 158.656 60.1172 161.283 64.3793 164.699C69.0853 168.464 72.8676 173.228 76.1969 178.25C77.0233 179.045 77.8133 179.877 78.5338 180.773C78.5326 180.77 78.5316 180.767 78.5304 180.763C74.7932 174.626 70.5442 168.817 65.7502 163.456ZM50.4599 57.3516C50.5753 57.8987 50.7023 58.4431 50.8202 58.9893C50.6138 55.4969 50.4364 51.9995 49.8822 48.5475C49.6365 46.9897 49.1364 43.8338 48.8265 43.1127C47.4279 39.7987 45.4333 37.0233 42.7934 35.5036C42.7887 35.5012 42.7868 35.5007 42.7813 35.498C42.7634 35.4902 42.7446 35.4851 42.7267 35.4773C42.7019 35.5191 42.6775 35.5641 42.6596 35.6115C42.0028 37.0626 42.3245 39.9761 43.0026 42.111C43.7073 45.1424 44.6134 47.0848 45.583 50.0333C46.3966 52.9486 47.4433 55.0578 48.4752 57.9727C49.5292 60.6533 50.2637 63.4361 51.1729 66.1639C50.874 63.2333 50.6309 60.2961 50.4599 57.3516ZM69.7463 121.083C70.4815 118.073 72.3961 115.637 74.5365 113.481C76.2512 111.583 77.2892 110.18 78.6282 108.43C81.3163 104.728 83.6707 100.788 86.117 96.9231C90.1108 90.8948 89.7901 84.9464 84.3762 81.0909C84.3291 81.074 84.2716 81.0532 84.2356 81.039C84.173 81.025 84.1098 81.0146 84.0467 81.0041C84.1004 81.0086 84.0522 80.9915 83.9509 80.9863C83.9419 80.9847 83.9326 80.9827 83.9235 80.9811L83.9224 80.981C83.9328 80.9832 83.9393 80.9839 83.9485 80.986C83.9206 80.9844 83.892 80.9836 83.8578 80.9852C83.763 81.0029 83.6875 81.0102 83.6426 81.0103C83.2356 81.097 83.3856 81.0104 82.7323 81.5015C79.283 85.0416 76.513 87.5702 74.3799 91.8168C73.3023 93.9101 72.6258 96.1741 71.8512 98.3892C70.8349 101.21 69.724 104.022 69.2705 107.002C68.7509 109.995 68.4718 113.019 68.0519 116.026C67.6344 119.198 67.1683 122.362 66.8769 125.548C67.2805 127.154 67.6888 128.76 68.1002 130.365C68.3393 127.228 68.8579 124.102 69.7463 121.083ZM59.4024 111.019C57.2783 107.446 54.9441 103.999 52.7411 100.471C50.7085 97.0331 48.3246 93.9422 45.6487 90.9848C43.9713 89.0697 42.4133 87.0219 40.4988 85.3325C37.2516 82.5354 33.5532 80.3418 30.0156 77.9432C27.4564 76.2683 25.0652 74.9723 22.3374 74.412C22.2992 74.4872 22.2625 74.5744 22.2141 74.7087C21.97 75.2091 22.6316 78.3042 22.9311 78.77C23.8937 80.7489 25.6431 82.2057 27.2026 83.7087C29.0003 85.2667 31.6844 88.0133 33.6375 90.1415C36.0329 92.8629 39.0202 94.8695 42.2919 97.4242C44.4353 99.1125 46.3727 101.052 48.5318 102.719C49.5856 103.515 50.7258 104.186 51.8697 104.851C50.7717 103.683 49.687 102.503 48.697 101.243C45.8476 97.0257 43.2908 92.6089 40.2573 88.5139C44.1872 92.1808 47.531 96.4007 50.6082 100.793C52.3272 102.971 54.1807 105.043 55.7951 107.303C55.8219 107.348 55.8508 107.398 55.878 107.444C56.3042 107.782 56.7196 108.135 57.107 108.528C58.1342 109.77 58.8554 111.228 59.7502 112.568C59.6321 112.052 59.5199 111.535 59.4024 111.019ZM90.4637 184.233C92.2694 180.591 93.9423 176.886 95.6473 173.196C97.9673 167.054 100.881 161.088 102.198 154.618C103.083 151.73 103.235 149.128 102.775 145.751C102.255 142.391 101.316 139.168 99.0789 137.649C98.9328 137.565 98.8614 137.517 98.8123 137.484C93.8014 139.856 89.6985 151.936 87.991 158.538C85.3875 168.665 85.8735 180.421 86.2071 191.598C86.4487 192.307 86.6917 193.019 86.935 193.731C87.4202 190.366 89.0045 187.273 90.4637 184.233ZM136.916 214.768C138.461 207.121 138.524 199.221 137.106 191.55C136.018 185.921 134.544 178.973 130.5 175.852C127.348 181.369 130.139 193.129 131.995 200.097C133.141 203.764 134.132 207.48 134.977 211.228C134.972 209.452 134.95 207.788 134.904 206.344C135.624 209.819 136.082 213.339 136.495 216.865C136.635 216.164 136.769 215.462 136.916 214.768ZM163.564 119.21C163.4 115.499 163.118 111.794 162.55 108.122C162.842 109.017 163.145 109.909 163.436 110.805C165.397 117.16 166.571 123.742 167.177 130.36C167.209 130.692 167.237 131.025 167.267 131.357C168.203 126.577 169.082 121.755 169.72 116.918C170.894 109.058 170.527 100.976 166.553 94.5443C164.957 91.6594 162.839 89.088 160.608 86.6735C159.156 85.2599 157.72 83.6877 155.706 82.9828C155.657 82.971 155.607 82.9645 155.558 82.954C152.683 84.8406 152.966 90.5951 153.993 95.1628C155.255 101.334 158.072 106.085 160.553 112.124C161.815 114.72 162.353 117.571 163.09 120.342C163.278 121.162 163.464 121.983 163.645 122.806C163.625 121.607 163.599 120.408 163.564 119.21ZM158.837 178.622C160.387 177.42 162.016 176.303 163.777 175.431C165.072 174.77 166.423 174.226 167.752 173.637C170.336 172.475 172.75 170.97 175.27 169.677C177.123 168.655 179.651 167.473 181.108 166.458C187.302 161.982 191.347 154.344 188.369 146.578C188.138 145.858 186.735 143.233 185.56 142.816C185.558 142.817 185.556 142.817 185.554 142.818C185.636 142.857 185.634 142.858 185.548 142.819C184.441 143.127 182.17 143.986 181.043 144.882C177.665 147.491 174.997 150.899 172.279 154.161C168.424 159.029 164.782 164.062 161.298 169.202C160.779 170.556 160.259 171.909 159.74 173.262C163.514 168.722 168.008 164.221 172.005 160.279C168.04 166.038 163.33 171.198 158.572 176.305C158.047 177.671 157.524 179.037 157 180.403C157.592 179.787 158.197 179.184 158.837 178.622ZM142.133 149.399C144.637 153.876 147.032 158.414 149.077 163.121C149.847 164.919 150.652 166.702 151.474 168.476C150.907 164.383 150.04 160.298 149.069 156.348C148.903 155.731 148.739 155.115 148.574 154.499C148.68 154.758 148.788 155.016 148.894 155.275C151.109 160.885 153.044 166.659 154.041 172.62C154.114 173.174 154.188 173.755 154.262 174.346C154.289 174.415 154.315 174.484 154.341 174.553C154.757 173.464 155.178 172.377 155.596 171.288C155.192 166.085 154.735 160.885 153.872 155.736C152.715 148.118 151.803 140.764 147.742 134.559C145.924 131.706 143.146 129.867 140.313 129.126C139.136 130.344 138.581 132.303 138.43 134.178C138.186 137.061 138.679 139.941 139.522 142.691C140.305 145.414 140.779 146.907 142.133 149.399ZM239.522 448.568C239.212 455.62 238.756 462.666 238.52 469.722C239.521 464.347 240.138 458.898 241.583 453.615C242.369 449.842 244.071 446.345 244.907 442.587C246.489 436.418 247.375 427.441 243.058 423.182C243.05 423.174 243.04 423.167 243.031 423.16C236.568 427.136 235.324 448.049 234.883 457.588C234.516 462.838 235.014 468.093 235.19 473.346C236.118 465.015 237.785 456.766 239.522 448.568ZM233.688 482.628C233.527 482.39 232.235 481.355 231.354 480.671C227.011 477.404 222.077 475.063 217.48 472.187C207.601 466.314 196.964 461.602 186.391 461.247C183.685 461.135 180.841 460.949 179.125 461.088C178.151 461.123 176.777 461.551 176.195 461.815C176.094 461.868 175.999 461.933 175.902 461.994C175.817 462.07 175.732 462.151 175.669 462.212C174.519 464 175.234 467.278 176.039 468.869C178.153 472.977 180.309 474.984 183.821 477.429C185.926 478.907 187.196 479.694 188.755 480.287C191.99 481.408 196.077 482.17 200.08 483.257C205.827 484.605 211.677 485.5 217.537 486.202C222.964 486.779 229.523 486.08 235.879 485.502C235.61 485.095 235.338 484.689 235.069 484.281C229.928 483.017 223.691 481.359 220.264 480.344C212.175 478.239 205.206 476.408 197.038 473.752C204.36 475.172 212.098 476.485 219.41 478.529C224.618 479.966 229.686 481.865 234.738 483.78C234.7 483.721 234.661 483.662 234.623 483.604C234.265 483.348 233.957 483.002 233.688 482.628ZM156.692 392.064C152.938 391.093 150.012 390.948 146.135 390.491C144.474 390.264 142.541 389.878 141.014 389.701C138.464 389.443 135.895 389.423 133.334 389.48C131.841 389.505 130.355 389.676 128.867 389.787C129.755 389.644 130.639 389.478 131.528 389.339C136.82 388.501 142.176 388.609 147.481 389.245C150.132 389.393 152.794 389.475 155.424 389.837C147.199 386.494 138.85 383.411 130.679 383.151C126.04 382.942 121.824 383.083 117.984 383.752C115.373 384.226 113.963 384.508 112.296 385.404C109.97 386.757 108.155 388.407 107.069 391.932C106.665 393.733 106.805 397.14 109.016 398.854C109.432 399.243 110.964 400.37 112.376 400.667C113.644 400.968 119.074 401.772 119.985 401.711C119.911 401.818 122.373 401.291 123.902 400.993C126.309 400.647 128.718 400.312 131.126 399.971C137.259 399.182 141.671 398.094 147.212 396.282C148.923 395.906 153.117 395.013 153.419 394.882C155.2 394.352 156.894 393.56 158.705 393.121C159.062 393.028 159.423 392.956 159.787 392.896C158.503 392.555 157.34 392.272 156.692 392.064ZM128.488 304.784C121.521 297.808 113.288 291.302 104.631 287.626C98.6566 285.269 93.5184 283.823 87.2871 282.973C83.9293 282.712 80.2656 282.65 76.881 286.012C74.9016 287.751 74.0495 287.971 74.4402 290.348C74.989 292.239 77.1541 294.259 78.8929 295.688C84.978 300.46 91.3004 301.922 98.8735 303.495C104.324 304.528 109.785 305.511 115.26 306.404C117.934 306.848 120.64 307.106 123.226 307.966C125.124 308.597 127.057 309.157 128.97 309.766C124.609 305.993 119.854 302.569 114.75 299.859C113.686 299.271 112.624 298.68 111.563 298.089C111.979 298.266 112.394 298.443 112.809 298.62C118.342 300.887 123.759 303.475 128.654 306.94C130.86 308.435 133.045 309.991 135.103 311.692C133.038 309.271 130.657 307.079 128.488 304.784ZM104.701 239.525C104.681 238.395 104.772 237.263 104.983 236.164C105.234 234.275 105.762 232.452 106.372 230.654C106.364 230.51 106.353 230.365 106.348 230.221C105.767 232.536 105.098 234.835 104.297 237.086C104.423 237.9 104.556 238.713 104.701 239.525ZM118.821 182.173C118.81 182.18 118.798 182.187 118.788 182.194C117.212 183.235 116.801 183.477 114.908 185.053C113.091 186.76 112.669 187.508 111.262 189.668C107.277 195.583 106.52 201.834 105.349 208.233C104.991 210.567 104.827 212.927 104.488 215.264C103.821 218.755 103.462 222.291 103.409 225.845C103.364 229.041 103.62 232.225 104.05 235.39C104.291 233.688 104.502 231.981 104.71 230.275C104.868 227.166 105.001 224.043 105.636 220.984C106.907 215.343 109.816 210.205 111.019 204.535C111.093 210.355 108.96 215.839 107.853 221.474C107.573 222.904 107.333 224.341 107.099 225.779C107.466 225.127 107.962 224.587 108.557 224.167C108.723 223.667 108.881 223.165 109.06 222.67C111.278 217.008 114.338 211.721 116.341 205.971C117.516 202.012 119.828 198.516 121.071 194.582C122.609 190.074 122.336 184.069 118.821 182.173ZM131.372 247.772C131.725 244.146 132.257 240.537 132.964 236.964C133.548 233.948 134.26 230.961 135.072 228.001C134.933 227.913 134.815 227.804 134.75 227.648C134.488 226.335 134.246 225.018 133.94 223.714C132.93 219.37 132.01 215.006 130.954 210.672C129.54 204.58 126.991 197.105 125.923 189.888C125.585 194.335 123.422 198.583 121.503 202.557C119.582 207.915 117.368 213.16 114.408 218.042C113.534 219.663 112.747 221.322 111.988 222.995C112.683 222.933 113.394 222.95 114.092 223.049C118.708 224.021 122.363 227.573 125.037 231.292C128.652 236.097 130.332 241.923 131.372 247.772ZM137.973 273.247C138.779 271.2 139.559 269.119 140.72 267.241C143.355 263.434 147.651 261.273 151.448 258.813C153.981 257.364 156.433 255.789 158.87 254.185C160.448 253.005 162.017 251.815 163.613 250.658C166.589 248.71 170.637 246.2 172.238 244.079C174.399 240.862 174.507 238.422 172.242 235.455C170.635 233.269 168.991 231.796 166.64 230.791C166.601 230.777 166.561 230.766 166.521 230.754C166.529 230.75 166.498 230.74 166.445 230.73C166.429 230.726 166.412 230.72 166.395 230.715C166.393 230.715 166.392 230.715 166.387 230.715C166.398 230.719 166.406 230.722 166.415 230.726C166.398 230.723 166.391 230.721 166.37 230.718C166.354 230.715 166.337 230.713 166.321 230.711C166.242 230.713 166.195 230.714 166.176 230.712C164.677 230.893 161.161 231.725 159.705 232.422C157.339 233.547 155.608 235.06 153.653 236.916C150.584 239.895 148.545 243.687 146.593 247.488C143.01 254.438 139.256 261.297 135.676 268.247C135.689 268.478 135.7 268.709 135.715 268.939C135.765 270.605 135.836 272.27 135.916 273.935C136.588 271.678 137.313 269.44 138.45 267.363C142.686 259.234 148.503 252.062 154.435 245.121C151.11 250.609 147.739 256.071 144.253 261.458C142.43 264.271 140.516 267.03 138.849 269.939C137.802 271.797 136.973 273.765 136.002 275.664C136.018 275.961 136.03 276.258 136.047 276.555C137.076 275.735 137.547 274.47 137.973 273.247ZM128.685 261.601C128.37 260.188 128.029 258.781 127.642 257.386C126.059 252.056 123.477 247.11 120.944 242.185C120.61 241.52 120.276 240.854 119.945 240.188C120.294 240.698 120.643 241.207 120.991 241.718C124.62 246.952 128.262 252.29 130.407 258.334C130.59 258.852 130.765 259.371 130.934 259.892C130.912 258.974 130.892 258.056 130.883 257.137C130.097 253.795 129.24 250.469 128.285 247.17C127.272 243.831 126.468 241.357 125.131 238.464C123.077 234.274 119.681 229.791 116.813 227.457C115.482 226.255 113.192 225.134 112.52 224.949C112.417 224.944 112.356 224.932 112.318 224.92C111.821 225.05 111.709 225.017 110.971 226.344C109.271 231.519 112.128 237.688 115.215 242.582C118.588 248.483 122.915 253.729 126.925 259.194C127.519 259.932 128.108 260.745 128.685 261.601ZM131.72 277.916C131.686 277.121 131.643 276.325 131.605 275.529C131.21 275.352 131.032 274.925 130.867 274.539C130.457 273.559 130.532 273.711 130.26 273.035C129.367 270.812 128.342 268.64 127.224 266.52C125.152 262.733 122.446 259.338 119.874 255.885C116.862 251.962 113.934 247.971 111.45 243.687C109.683 240.807 107.935 237.675 107.01 234.372C106.189 236.648 105.599 239.015 105.575 241.377C108.311 247.109 111.33 252.7 114.601 258.155C117.105 262.644 119.572 267.154 122.04 271.662C122.28 271.916 122.526 272.177 122.778 272.448C122.933 272.598 123.09 272.759 123.252 272.93C123.26 272.937 123.267 272.945 123.274 272.953C123.423 273.259 123.346 273.505 123.158 273.702C124.086 275.397 125.016 277.09 125.949 278.782C129.044 284.16 131.649 289.786 134.248 295.416C132.966 289.652 132.033 283.805 131.72 277.916ZM153.458 312.686C161.398 310.07 170.501 306.88 177.32 303.798C179.32 302.666 179.396 302.464 181.267 301.128C182.956 299.997 185.365 298.255 186.029 297.318C187.977 294.904 188.774 292.69 187.6 290.768C185.965 287.806 183.951 287.426 180.867 286.008C178.681 285.215 177.57 284.964 175.685 284.457C175.709 284.464 176.148 284.581 175.846 284.5C174.818 284.25 174.217 284.096 173.805 284.079C173.679 284.086 173.552 284.092 173.426 284.104C173.362 284.115 173.315 284.122 173.277 284.127C172.937 284.187 172.599 284.259 172.264 284.346C171.291 284.647 165.285 286.582 164.121 287.14C159.296 289.357 155.793 294.371 152.382 298.721C148.837 303.603 145.588 308.709 142.89 314.1C142.993 314.327 143.095 314.555 143.198 314.783C151.088 306.987 160.906 301.42 170.555 296.073C165.166 300.286 159.609 304.278 153.929 308.09C150.175 310.585 146.789 312.764 143.399 315.227C143.562 315.586 143.724 315.944 143.885 316.303C147.037 314.996 150.23 313.786 153.458 312.686ZM156.213 349.121C152.461 341.779 148.661 334.461 144.853 327.147C143.925 325.074 142.983 323.008 142.045 320.939C141.531 321.185 140.857 321.305 140.49 321.338C139.302 321.433 138.678 321.208 138.216 320.716C138.2 320.719 138.184 320.722 138.168 320.726C138.029 320.539 137.885 320.357 137.749 320.169C136.929 318.718 134.688 315.734 134.347 315.6C133.248 314.733 131.914 314.214 130.685 313.557C128.946 312.723 122.195 310.529 118.672 309.49C117.649 309.165 113.247 308.625 111.085 308.203C106.909 307.458 102.726 306.74 98.5617 305.928C98.8322 306.174 99.0973 306.424 99.3522 306.675C103.276 310.794 105.317 316.394 106.34 321.906C106.765 324.339 107.544 326.681 108.059 329.093C108.231 329.986 108.377 330.883 108.514 331.783C108.87 331.412 109.298 331.089 109.75 330.816C112.608 329.063 116.08 328.942 119.341 328.892C120.676 328.895 122.027 328.934 123.377 329.026C123.122 328.314 122.872 327.6 122.688 326.868C122.428 325.043 122.485 323.17 122.824 321.359C123.181 319.754 123.475 317.969 124.708 316.778C125.993 315.716 127.832 315.346 129.443 315.739C131.568 316.346 133.42 317.631 135.188 318.918C136.652 319.872 137.415 321.508 138.028 323.085C138.913 325.461 139.583 327.905 139.917 330.421C140.133 331.735 140.008 333.074 140.207 334.392C140.299 335.045 140.418 335.696 140.516 336.349C141.26 336.938 142.005 337.525 142.76 338.09C147.96 342.254 153.064 346.613 157.481 351.6C157.058 350.772 156.637 349.946 156.213 349.121ZM128.938 319.347C130.203 323.007 130.972 326.784 131.571 330.599C132.009 330.757 132.443 330.925 132.87 331.113C135.243 332.267 137.352 333.853 139.424 335.484C139.079 334.666 138.749 333.837 138.549 332.958C137.622 329.059 136.22 325.235 134.307 321.71C133.759 320.679 132.947 319.986 131.977 319.365C130.91 318.522 129.567 317.662 128.461 317.099C128.439 317.089 128.389 317.066 128.387 317.065C128.203 316.979 128.015 316.903 127.821 316.841C127.815 316.839 127.817 316.84 127.813 316.838C127.775 316.831 127.728 316.823 127.691 316.816C127.688 316.816 127.687 316.815 127.683 316.815C126.652 316.833 125.461 318.579 124.668 320.971C123.962 322.924 123.471 325 123.455 327.083C123.52 327.739 123.608 328.394 123.697 329.048C126.273 329.24 128.833 329.656 131.259 330.492C129.79 326.971 129.118 323.147 128.938 319.347ZM160.52 357.541C160.366 357.61 160.21 357.676 160.052 357.736C160.191 357.638 160.331 357.542 160.471 357.444C160.429 357.362 160.387 357.281 160.346 357.2C151.153 352.961 142.697 347.333 134.606 341.281C143.546 345.653 151.848 351.136 160.085 356.689C159.544 355.631 159.004 354.574 158.464 353.517C154.415 349.714 150.024 346.305 145.497 343.075C140.561 339.645 135.744 335.974 130.509 333.01C127.464 331.543 123.727 331.11 119.675 331.039C117.539 331.076 114.749 331.076 113.537 331.936C110.323 333.524 115.007 338.161 118.034 340.727C123.362 345.377 127.919 347.759 134.082 349.955C140.153 351.919 146.36 353.488 152.35 355.705C155.285 356.918 158.454 357.658 161.302 359.069C161.041 358.56 160.781 358.05 160.52 357.541ZM175.519 356.462C178.726 356.026 183.465 355.151 185.845 354.488C189.426 353.504 192.805 351.945 196.216 350.501C200.008 349.113 204.531 346.235 206.48 343.837C209.757 339.518 209.157 335.724 205.987 332.966C203.508 331.083 201.463 330.905 198.222 330.192C194.933 329.309 190.541 331.456 185.921 335.001C179.147 340.476 172.391 346.201 166.961 353.042C167.672 352.585 168.386 352.135 169.109 351.697C176.2 347.217 183.743 343.521 191.184 339.669C183.201 345.845 174.352 350.689 165.343 355.177C165.08 355.538 164.817 355.899 164.562 356.267C164.722 355.948 164.889 355.634 165.056 355.32C164.594 355.549 164.133 355.778 163.67 356.006C164.076 356.807 164.484 357.607 164.889 358.409C168.406 357.624 171.963 357.048 175.519 356.462ZM180.606 386.684C182.52 385.473 184.307 384.062 186.287 382.955C190.385 380.806 194.765 379.121 199.27 378.058C199.866 377.922 200.463 377.789 201.057 377.644C200.149 377.962 199.23 378.246 198.323 378.564C194.902 379.859 191.589 381.485 188.493 383.434C186.733 384.587 185.12 386.141 183.38 387.428C182.743 387.92 182.179 388.259 181.68 388.588C183.582 388.379 185.927 387.966 188.583 387.585C194.027 386.857 200.106 385.85 206.913 383.916C213.647 382.359 222.426 380.088 225.685 376.262C226.877 374.749 226.891 373.879 226.367 372.957C225.253 370.683 222.467 370.121 220.381 369.41C216.5 368.53 214.941 368.639 210.636 369.114C206.34 369.605 199.482 371.5 194.655 373.981C191.39 375.662 188.587 377.894 185.825 380.327C183.613 382.411 181.266 384.549 179.756 387.189C180.061 387.014 180.354 386.843 180.606 386.684ZM169.622 418.878C166.872 418.035 163.813 418.13 161.841 418.194C161.729 418.201 161.617 418.215 161.505 418.226C161.449 418.241 161.4 418.252 161.364 418.259C161.319 418.275 161.273 418.289 161.228 418.305C161.178 418.325 161.067 418.369 160.993 418.398C160.869 418.468 160.689 418.567 160.621 418.602C158.982 419.526 156.532 423.956 157.419 427.762C158.505 433.071 164.343 435.12 169.166 435.688C170.629 435.99 175.483 435.692 179.294 435.443C184.152 435.158 189.029 434.594 193.893 435.093C197.068 435.272 200.084 436.309 203.201 436.831C203.344 436.861 203.482 436.885 203.62 436.909C197.759 433.688 186.767 431.771 178.808 430.034C178.454 429.959 178.1 429.883 177.746 429.808C178.099 429.853 178.453 429.897 178.806 429.942C187.052 431.058 195.576 431.992 202.651 434.045C202.469 433.84 202.286 433.635 202.104 433.431C191.199 428.344 179.86 422.011 169.622 418.878ZM146.678 373.326C148.983 375.339 151.28 377.361 153.569 379.39C158.526 383.788 163.407 388.276 168.185 392.87C168.279 392.942 168.361 393.02 168.426 393.103C171.246 395.819 174.031 398.573 176.772 401.367C181.987 407.075 187.062 412.909 192.054 418.812C194.72 422.239 197.32 425.716 199.864 429.234C195.101 421.775 190.514 414.208 186.027 406.577C183.085 401.164 180.199 395.722 177.343 390.265C177.164 390.151 177.021 389.997 176.939 389.78C176.905 389.664 176.897 389.549 176.909 389.439C171.692 379.453 166.581 369.412 161.459 359.376C158.361 358.236 155.029 357.787 151.864 356.849C148.173 355.823 144.399 355.005 140.287 354.002C141.902 358.893 143.609 363.768 144.605 368.827C144.828 370.144 145.565 371.267 146.339 372.316C146.456 372.652 146.564 372.99 146.678 373.326ZM140.916 368.346C142.116 369.371 143.315 370.396 144.507 371.43C144.244 371.151 143.996 370.858 143.793 370.529C141.276 365.376 140.171 359.58 139.7 353.859C139.218 353.74 138.735 353.621 138.243 353.496C137.139 353.271 136.038 353.024 134.943 352.755C136.087 355.405 137.245 358.05 138.252 360.756C139.138 363.315 140.006 365.846 140.916 368.346ZM135.437 363.732C136.829 364.884 138.212 366.048 139.591 367.216C137.031 362.704 135.359 357.716 134.385 352.614C131.647 351.921 128.948 351.079 126.336 350.017C129.002 353.82 132.34 359.005 135.437 363.732ZM118.974 360.527C112.458 359.209 106.659 358.314 100.097 358.242C97.8408 358.177 93.5658 358.375 91.932 358.625C89.298 358.918 86.1578 360.209 84.1108 361.09C82.6595 361.747 81.2665 362.53 79.9221 363.383C79.4907 363.768 78.721 364.43 78.9415 365.829C79.0617 367.769 80.5091 368.583 82.1254 369.381C85.0985 370.689 87.3255 370.718 90.5823 370.997C95.0176 371.272 99.9801 370.537 105.2 369.939C106.399 369.805 111.486 368.134 114.658 367.274C118.903 365.844 123.311 365.368 127.742 365.085C126.085 364.587 124.484 364.114 123.054 363.79C116.032 362.221 109.076 361.73 101.823 361.73C101.211 361.727 100.598 361.723 99.9858 361.72C100.514 361.679 101.043 361.638 101.572 361.598C111.114 360.806 120.853 361.006 130.158 363.439C130.27 363.464 130.381 363.489 130.494 363.515C130.424 363.458 130.353 363.401 130.283 363.344C126.582 362.158 122.783 361.283 118.974 360.527ZM114.305 347.708C114.103 347.481 113.905 347.251 113.706 347.021C113.644 347.067 113.581 347.114 113.507 347.155C113.774 347.337 114.039 347.523 114.305 347.708ZM111.383 344.242C111.536 344.599 111.689 344.956 111.847 345.312C112.012 345.343 112.183 345.375 112.368 345.414C112.002 344.956 111.643 344.493 111.289 344.025C111.32 344.097 111.351 344.17 111.383 344.242ZM118.099 350.38C123.011 353.839 127.772 357.5 132.439 361.278C129.827 357.841 127.69 354.062 126.262 349.987C124.569 349.295 122.909 348.523 121.305 347.626C118.205 345.994 115.554 343.67 112.921 341.388C111.765 340.249 110.472 339.137 109.439 337.857C109.509 338.259 109.569 338.662 109.648 339.062C109.803 339.94 110.043 340.793 110.333 341.63C112.995 344.482 115.54 347.437 118.099 350.38ZM109.092 344.268C109.275 344.383 109.458 344.5 109.641 344.616C108.93 343.788 108.239 342.942 107.572 342.076C108.068 342.814 108.573 343.545 109.092 344.268ZM95.7879 341.962C89.3581 340.056 83.0908 338.778 76.6072 338.613C69.5353 338.337 62.3703 339.066 55.9762 341.069C54.5837 341.381 53.3789 341.804 52.6473 342.357C51.8634 343.052 51.8751 342.864 51.6234 343.556C51.6289 343.748 51.6257 344.231 51.7128 344.366C51.7265 344.417 51.7457 344.467 51.762 344.518C51.7422 344.496 51.7472 344.545 51.8087 344.663C51.8133 344.676 51.8169 344.691 51.822 344.704C51.8198 344.691 51.8167 344.687 51.8145 344.675C51.8214 344.687 51.8214 344.693 51.8299 344.706C52.5354 345.976 52.5617 345.9 53.4814 346.596C60.5889 351.171 70.1888 350.146 76.5755 348.973C81.996 348.086 88.8464 347.421 91.6844 346.909C93.5575 346.556 95.451 346.188 97.3547 345.868C95.8962 345.767 94.434 345.66 93.0364 345.533C86.061 344.823 79.7553 344.055 72.367 343.126C71.486 342.981 70.6051 342.831 69.7258 342.678C70.6705 342.771 71.615 342.86 72.5604 342.947C81.042 343.379 89.511 344.066 97.9982 344.383C100.035 344.462 102.072 344.548 104.108 344.659C101.359 343.686 98.5758 342.809 95.7879 341.962ZM103.001 340.488C103.602 340.86 104.2 341.236 104.801 341.606C105.406 341.976 106.009 342.349 106.612 342.72C105.721 341.78 104.867 340.806 104.096 339.763C100.367 334.449 97.6238 328.48 95.3156 322.432C97.9166 326.442 100.621 330.39 103.011 334.531C104.26 336.852 105.614 339.102 107.058 341.296C108.227 342.369 109.364 343.475 110.466 344.615C110.396 344.509 110.325 344.404 110.255 344.299C107.238 340.111 106.275 334.961 104.848 330.101C103.664 326.484 102.338 322.922 101.47 319.207C100.272 315.036 97.0822 308.831 93.7086 306.376C93.602 306.264 93.3397 306.096 93.1051 305.956C91.6979 307.182 91.1537 307.794 90.6088 309.884C88.3904 320.479 95.8562 331.215 103.001 340.488ZM63.2853 313.864C64.3128 314.553 65.3343 315.253 66.3553 315.952C61.4835 308.453 57.749 300.293 55.2001 291.718C60.1713 299.475 63.9246 307.633 66.7206 316.201C66.8664 316.301 67.0143 316.399 67.16 316.5C67.0371 315.51 66.8822 314.525 66.6827 313.545C66.1997 310.918 65.1311 308.402 64.9323 305.726C64.747 303.555 64.5645 301.384 64.3998 299.212C64.1299 297.985 63.7456 296.783 63.449 295.561C60.9236 287.768 59.3167 279.355 52.0699 275.608L52.0685 275.607C49.334 278.251 50.6442 284.023 51.2068 288.653C51.8875 293.35 53.3836 296.797 55.3291 300.966C57.2605 304.984 59.3433 308.922 61.6036 312.76C62.163 313.128 62.7223 313.499 63.2853 313.864ZM39.9147 308.734C35.8115 307.358 32.333 306.428 27.9286 305.998C23.5205 305.407 19.7499 305.028 16.4302 305.669C12.4652 306.263 9.93115 306.92 7.14725 309.123C6.17317 309.865 5.71774 309.999 4.85297 310.983C4.73184 311.202 4.62528 311.501 4.57022 311.659C4.53448 313.422 6.39667 314.955 8.19825 315.958C11.1458 317.399 14.7756 318.469 18.3773 319.146C21.6794 319.961 25.3137 320.606 27.2094 320.448C31.0726 320.269 33.5243 319.576 37.6429 318.948C41.8817 318.402 46.1397 318.027 50.3988 317.678C53.5358 317.312 56.6946 317.296 59.8462 317.149C59.8418 317.148 59.838 317.147 59.8341 317.145C57.7749 316.55 54.5017 315.884 51.0606 315.049C43.1027 313.059 35.0301 311.336 26.8106 310.989C25.6603 310.955 24.5094 310.999 23.3589 311.002C24.5464 310.909 25.7317 310.776 26.9222 310.728C35.3875 310.497 43.8155 311.703 52.0788 313.451C54.0685 313.905 56.0996 314.25 58.1184 314.641C52.1114 312.496 46.0008 310.637 39.9147 308.734ZM22.5941 285.822C23.3988 284.75 24.3863 283.797 25.2577 282.786C27.2024 280.59 29.3671 278.606 31.3643 276.46C32.9295 274.825 34.7141 273.075 36.0476 271.393C37.2118 269.837 38.112 268.105 39.0603 266.414C39.8154 265.044 40.5018 263.638 41.1499 262.213C41.9869 260.418 42.3639 259.781 42.1056 257.958C41.2301 252.414 36.7136 250.831 33.5192 250.838C31.9825 250.483 28.968 252.991 27.4922 254.965C22.9896 260.769 21.707 268.279 21.0093 275.413C20.84 277.527 20.6217 279.646 20.618 281.767C20.639 282.146 20.6689 282.524 20.7027 282.902C24.5337 276.262 29.9683 269.026 35.0001 262.94C31.2471 270.501 26.2522 277.329 20.7848 283.732C20.7918 283.796 20.7971 283.86 20.8041 283.924C21.3926 284.575 21.9888 285.207 22.5941 285.822ZM-4.80216 278.386C-8.26711 277.583 -9.65739 277.836 -12.5373 278.715C-13.8957 279.159 -15.203 279.977 -16.908 280.923C-18.7269 281.974 -19.3038 282.159 -19.9574 283.389C-20.1448 284.402 -19.8188 286.737 -18.5413 288.018C-17.5959 288.933 -15.9392 289.816 -13.9934 290.585C-10.0945 292.185 -7.33402 292.211 -2.58547 292.111C0.664969 292.023 6.46249 291.496 10.7163 291.229C14.0468 290.808 17.8116 289.73 21.4716 289.849C21.1132 289.533 20.7599 289.213 20.4073 288.891C10.7302 288.406 1.31589 285.566 -8.09047 283.422C-2.36937 284.063 3.31177 285.038 8.93828 286.253C12.7226 287.028 16.4412 288.178 20.2615 288.76C18.9707 287.574 17.7224 286.344 16.5252 285.067C9.36224 282.725 2.27368 280.079 -4.80216 278.386Z" fill="#B1C5AA" fill-opacity="0.24"/>
<path d="M87.5815 177.681C88.2683 173.911 89.2982 170.201 90.2303 166.483C91.4822 162.828 93.0922 159.309 94.489 155.709C93.4036 161.267 91.7097 166.006 91.0764 171.508C90.4017 175.04 89.5482 177.82 89.0158 181.083C88.4996 184.123 88.151 187.191 87.3749 190.182C87.1789 191.051 86.9577 191.913 86.7222 192.772C86.7541 192.195 86.7848 191.619 86.8064 191.042C87.0652 186.588 86.7216 182.083 87.5815 177.681Z" fill="#B1C5AA" fill-opacity="0.24"/>
<path d="M77.6841 95.1665C76.5831 100.738 74.8638 106.161 72.7215 111.418C70.4973 116.633 68.088 121.92 67.5846 127.635C66.788 121.59 68.7712 115.622 71.1157 110.128C73.2508 105.116 75.5609 100.183 77.6841 95.1665Z" fill="#B1C5AA" fill-opacity="0.24"/>
</svg>
