<svg width="127" height="446" viewBox="0 0 127 446" fill="none" xmlns="http://www.w3.org/2000/svg">
<path d="M123.167 42.6266C121.106 42.8665 119.223 44.3075 118.546 46.287C118.121 47.2954 117.901 48.558 118.548 49.5102C118.041 50.1741 117.558 51.0441 117.326 51.5331C117.199 51.7252 116.552 52.5257 116.25 52.894C115.253 54.1522 113.652 55.2322 112.124 56.4513C110.014 58.2136 108.034 59.6785 105.913 61.2325C106.39 60.7626 106.859 60.2855 107.32 59.8002C110.749 56.1094 113.901 51.8478 115.042 46.8529C115.831 43.2926 114.972 39.2804 112.403 36.7208C113.334 35.8145 114.19 34.8121 114.842 33.7106C116.483 33.4078 118.105 32.3811 118.654 30.7382C119.043 29.8289 118.935 28.6272 117.985 28.1227C117.597 27.984 117.157 27.9497 116.701 27.9952C116.23 27.7559 115.62 27.7397 115.1 27.8534C113.587 28.1508 112.103 29.188 111.74 30.7559C111.456 32.1832 112.283 33.397 113.51 33.7153C113.159 34.6719 112.682 35.5932 112.113 36.4523C111.624 36.0071 111.086 35.6058 110.483 35.2723C108.314 34.0097 106.117 32.5785 103.569 32.2915C102.074 32.0517 100.576 31.9367 99.0813 31.9213C100.712 31.342 102.284 30.6059 103.656 29.5675C103.889 29.5788 104.129 29.5677 104.371 29.535C105.234 29.6291 106.292 29.2188 107.018 28.5668C107.192 28.4173 107.336 28.2521 107.454 28.0779C107.479 28.0543 107.507 28.0321 107.531 28.0087C108.666 26.9032 109.226 24.1518 107.008 24.0228C105.936 23.9231 104.878 24.3449 103.941 24.8298C102.503 25.5695 101.163 26.5993 100.357 28.0293C99.907 28.9629 100.011 29.5904 100.414 29.9212C99.6436 30.3957 98.7377 30.7836 97.4567 31.3068C96.9149 31.5522 96.3762 31.8048 95.8353 32.052C91.282 32.4632 86.8131 33.7942 82.6381 35.7234C84.5649 34.1509 86.5089 32.5995 88.4595 31.0566C91.0121 28.942 92.672 27.4136 95.3277 25.8483C95.556 25.7124 97.775 24.5618 98.8506 24.0187C99.4065 23.738 100.023 23.5169 100.596 23.2327C101.194 23.1835 101.82 22.9647 102.361 22.6458C103.601 22.603 104.719 21.4532 104.8 20.1984C104.801 19.9117 104.739 19.6168 104.632 19.3425C104.875 18.0572 104.462 16.8407 102.773 16.5779C100.617 16.4287 97.7473 17.2965 97.0696 19.5859C96.7756 20.7049 97.293 21.7508 98.1052 22.4833C95.7179 23.5541 92.3259 25.3443 90.3173 26.9919C86.1199 30.3627 81.9841 33.8163 77.823 37.2347C76.5395 38.3631 75.2701 39.5098 74.0172 40.6737C72.4342 41.7676 70.7912 43.0034 69.2998 44.2584C73.496 39.0659 77.5038 33.6235 82.1986 29.2988C83.7733 27.8357 85.5323 26.618 87.0377 25.5617C87.3457 25.6046 87.6926 25.5982 88.0757 25.5307C90.2523 25.0935 92.5085 23.4445 93.2327 21.298C93.4939 18.9853 90.9054 19.0983 89.3651 19.6455C87.7834 20.1997 85.3425 21.7678 85.5354 23.639C85.5173 23.7778 85.5131 23.9105 85.521 24.0385C84.4317 24.8426 82.5561 26.1737 80.6831 27.8523C79.1475 29.3133 77.7641 30.9009 76.4792 32.5676C78.6449 28.8762 80.8737 24.232 81.7084 20.2101C81.8802 19.2053 82.0347 18.1316 81.8255 17.126C82.8109 16.5611 83.8107 16.0287 84.8313 15.5201C85.0639 17.5974 87.8588 16.8283 89.4504 15.7091C90.9242 14.7843 93.8263 11.9468 92.1921 10.2001C91.3727 9.94096 90.4733 9.98301 89.5959 10.1863C88.943 10.2233 88.2815 10.4752 87.7039 10.7343C86.2443 11.4239 85.1432 12.7507 84.9132 14.3713C84.8825 14.5155 84.87 14.6417 84.8537 14.7712C83.8004 15.4393 82.7694 16.1405 81.7712 16.8867C81.7202 16.698 81.6594 16.5122 81.5772 16.33C80.5954 14.7165 78.9958 13.3423 77.1236 12.9375C75.3492 12.5803 73.5968 13.0176 71.914 13.5699C68.2042 14.4917 64.6308 15.9431 61.3122 17.84C59.156 19.1385 57.0627 20.5844 55.0961 22.1823C55.1172 21.7726 55.139 21.3634 55.1823 20.9551C57.4275 18.6469 59.7099 16.3531 62.3208 14.5825C64.7006 12.9315 66.4017 11.9065 68.4021 11.0616C68.4889 11.5839 68.8079 12.1313 69.3215 12.3104C72.0374 13.1735 75.0005 10.7656 75.8017 8.24665C76.3882 5.73711 74.0176 5.35113 72.1508 6.01454C71.0692 6.21714 67.9206 8.00733 68.4401 9.35872C66.8548 10.1302 64.9439 11.0778 63.3303 12.3514C60.206 14.4829 57.6484 17.2186 55.3023 20.142C55.4483 18.8828 56.0839 17.7563 56.2988 16.5153C56.9843 12.8515 56.7799 9.16608 53.6929 6.63185C48.6842 2.0647 40.3963 6.11708 35.6906 9.38226C34.7626 10.0241 33.891 10.7206 33.0474 11.4422C33.0469 11.439 33.0464 11.4359 33.0459 11.4327C32.9309 10.6545 32.8566 9.86041 32.5751 9.12045C32.0209 8.05168 31.3248 7.06039 30.6748 6.04778C29.2757 3.74746 27.5285 1.51907 24.8642 0.675212C21.7123 -0.489875 18.3009 0.0714652 15.1019 0.728523C10.3095 1.95141 5.72314 4.70824 3.38305 9.20429C1.98591 11.981 0.299533 14.6496 -0.524208 17.6736C-2.88858 25.669 -1.94956 34.3694 1.06062 42.0656C3.03228 47.0279 4.68081 52.1692 7.40688 56.787C9.74594 60.594 12.6252 64.0537 15.5372 67.4309C17.1851 69.24 19.0045 70.8865 20.6631 72.6899C22.6844 74.9707 25.0368 77.5821 27.5014 80.2239C27.0321 79.8465 26.5613 79.4714 26.0984 79.0865C20.5921 74.4773 15.4849 69.415 10.3455 64.4066C8.12332 62.0522 5.36556 57.8037 2.92515 54.4051C1.69462 52.4361 0.950967 50.2291 -0.115214 48.1776C-1.17954 46.0987 -2.54254 44.1674 -3.3854 41.977C-4.13136 39.5905 -5.0459 37.2498 -5.56457 34.798C-6.18153 31.7483 -6.44423 28.6399 -6.76856 25.5489C-6.92204 30.0607 -7.22263 34.6425 -6.26987 39.0912C-5.86641 40.6975 -5.74339 42.3676 -5.21425 43.9419C-4.64075 45.6768 -3.85265 47.3286 -3.11949 48.9993C-2.19271 51.336 -1.72076 53.8286 -0.638922 56.1083C0.291721 58.1793 1.65084 60.018 2.78547 61.9772C4.86134 65.8431 8.17194 68.7293 11.4587 71.5385C16.2383 75.8019 21.3714 79.6898 26.9256 82.8862C28.6916 83.9976 30.7682 84.7285 32.1867 86.3128C33.2541 87.9093 33.8773 89.7711 34.6486 91.5228C34.7899 91.8535 34.9232 92.1869 35.0584 92.52C34.9869 92.6174 34.9154 92.7147 34.8554 92.8186C31.5357 92.0354 28.2425 91.1178 24.9813 90.1327C21.0922 88.9372 17.5319 86.9764 14.0474 84.9098C9.30961 82.3055 4.85756 79.1185 1.29982 75.0119C-0.847547 72.8803 -3.45829 69.2935 -5.09109 65.5751C-8.61149 58.9062 -9.51847 52.7429 -9.14499 45.3101C-8.41419 38.8885 -10.5792 32.0138 -7.70441 25.9392C-11.1601 31.3169 -10.8488 37.9551 -11.8045 44.0483C-13.6029 52.104 -13.6509 60.816 -9.93469 68.357C-7.65912 73.8692 -3.43876 78.3395 1.15718 82.0231C4.37162 84.4124 7.99447 86.1648 11.6514 87.7582C15.7473 89.7682 20.1066 91.0958 24.5707 91.9239C21.6432 91.8362 18.7089 91.9697 15.8782 92.737C5.23958 96.1944 -0.823557 103.117 -4.18447 113.625C-5.83586 118.329 -7.61727 123.031 -8.58394 127.933C-9.02317 130.193 -9.20245 132.494 -9.36875 134.787C-9.51879 136.065 -9.85585 137.979 -10.1451 139.319C-10.7808 140.657 -11.1725 142.087 -8.88501 141.368C-7.8284 141.02 -6.93348 140.266 -6.77345 139.118C-6.694 138.856 -6.62795 138.592 -6.55583 138.328C-6.51938 138.253 -6.48294 138.178 -6.44702 138.103C-2.89261 131.396 0.217537 126.684 4.46406 120.582C6.03408 118.374 7.92525 116.003 9.56424 114.496C10.659 113.402 11.8634 112.429 13.0219 111.407C14.4353 110.114 15.4535 108.909 16.7686 107.862C19.9492 105.762 24.3685 101.843 27.2241 99.8797C29.5794 98.194 31.5541 95.913 34.3186 94.9161C34.3025 95.0437 34.2785 95.1699 34.2657 95.2976C33.1646 96.7977 32.07 98.3019 31.0078 99.8297C29.0785 102.601 27.0959 105.359 25.7288 108.465C21.9392 116.947 18.1252 125.437 14.7442 134.092C12.7115 139.602 11.5766 145.376 10.3146 151.097C9.24877 154.877 9.16997 158.821 8.89819 162.716C8.46218 169.586 8.53607 176.48 8.33925 183.36C7.8149 197.57 8.77339 211.78 9.75875 225.965C8.9524 222.279 8.00112 218.621 6.86732 215.002C4.21458 207.028 0.457897 199.461 -3.52247 192.077C-6.75391 186.251 -9.54204 180.08 -13.9778 175.037C-16.7398 171.599 -19.7344 168.353 -22.4229 164.857C-24.7206 161.697 -26.7092 158.325 -29.0412 155.188C-30.543 153.068 -32.4088 151.234 -33.8204 149.043C-36.7516 144.869 -39.0816 140.303 -41.1712 135.658C-44.1697 128.918 -46.5839 121.923 -48.2213 114.726C-49.0502 111.398 -49.9273 108.078 -50.6155 104.719C-50.2168 101.389 -49.7757 98.0659 -49.1044 94.7796C-49.885 97.1709 -50.5319 99.5981 -51.1164 102.043C-51.1918 101.593 -51.2678 101.143 -51.3337 100.692C-51.4793 99.6191 -51.3867 101.096 -51.3967 101.541C-51.3789 102.017 -51.3531 102.494 -51.3319 102.971C-52.2242 106.808 -52.9854 110.679 -53.876 114.513C-55.5794 122.327 -57.6589 130.108 -57.7916 138.157C-58.0261 144.003 -57.2203 149.817 -56.5273 155.609C-55.7619 161.416 -54.877 167.217 -53.4599 172.907C-52.3266 177.652 -50.6554 182.242 -48.1455 186.437C-46.3576 189.821 -44.5982 193.232 -42.367 196.353C-38.1352 202.428 -31.873 206.621 -26.4829 211.572C-24.3836 213.61 -22.2699 216.349 -19.6681 218.97C-15.9355 222.525 -12.3677 226.322 -8.17308 229.337C-3.89349 232.662 -1.48103 238.147 1.10209 243.588C4.94125 250.88 6.88343 259.884 8.21991 267.728C8.52136 270.764 8.79548 273.802 9.06898 276.84C9.13096 277.549 9.19378 278.259 9.25545 278.969C9.26146 280.057 9.25083 281.145 9.19791 282.232C9.19317 284.742 8.85166 287.662 9.2529 290.122C9.24504 290.198 9.23706 290.274 9.2292 290.35C9.24877 290.344 9.26833 290.337 9.28853 290.331C9.30949 290.444 9.32231 290.563 9.34672 290.674C9.53399 290.936 9.93434 290.91 10.2221 290.878C10.2595 290.874 10.2959 290.86 10.3338 290.855C9.77821 296.97 9.00651 303.063 8.35144 309.17C7.17443 321.199 5.55405 333.176 3.61194 345.105C2.33478 352.615 1.31781 360.18 -0.331234 367.621C-1.65737 373.309 -3.1429 377.346 -5.18371 383.077C-7.65863 390.632 -10.8769 397.943 -15.0352 404.726C-17.8108 409.204 -19.9807 413.564 -22.5483 417.219C-29.3592 427.056 -34.6043 436.999 -43.0956 445.419C-35.6998 439.311 -29.9152 431.581 -24.2783 423.883C-21.655 420.222 -18.8049 416.705 -16.4091 412.888C-13.3806 407.788 -10.1718 402.782 -7.44093 397.513C-4.99981 392.938 -3.16486 388.105 -1.42261 383.235C-0.0120719 383.166 1.2065 382.147 1.63173 380.786C2.9133 378.348 3.68725 375.713 4.66982 373.151C6.9468 367.266 8.66355 362.074 11.0429 355.782C12.4366 351.764 13.7748 347.688 15.9505 344.01C17.6354 341.37 19.2091 338.665 20.7611 335.946C22.4007 333.387 24.2266 330.931 25.5969 328.21C27.0994 325.01 29.7118 319.716 30.8549 318.193C34.4324 313.23 39.3329 309.467 43.4602 304.999C49.9928 298.081 55.762 290.518 61.6409 283.047C63.6665 280.384 65.8434 277.842 67.905 275.208C69.7793 272.59 71.3387 269.765 72.9176 266.963C78.4688 256.759 84.3409 246.6 87.9874 235.516C89.4869 230.665 90.1321 225.601 90.8096 220.583C91.7503 214.436 92.1147 208.224 92.2499 202.012C92.1631 194.98 91.9343 187.96 91.2955 180.954C90.2181 171.941 88.7191 162.984 86.8503 154.101C85.6203 148.538 84.498 142.935 83.0381 137.428C82.6389 136.213 82.2303 135 81.8796 133.77C81.8094 133.633 81.7021 133.547 81.5583 133.514C80.8337 133.246 79.9883 133.591 79.342 133.937C78.8023 134.23 78.2032 134.669 78.0737 135.306C78.1253 139.424 77.2662 143.492 76.3627 147.489C75.392 151.339 73.7474 157.839 72.8785 160.459C70.3603 168.738 67.3024 176.871 63.4864 184.641C58.9656 192.889 54.1646 201.133 49.419 208.075C44.4176 215.82 38.5798 222.693 33.1881 230.802C30.1738 235.332 27.8004 240.242 25.3881 245.108C21.7959 252.187 18.3639 259.382 16.0819 267.006C16.0952 255.898 15.5617 244.787 15.2187 233.688C13.9429 214.822 12.5588 195.916 13.4245 177.005C13.7691 166.935 13.3568 156.681 15.9559 146.87C16.7421 143.109 18.0639 137.668 18.8056 135.368C20.2076 130.93 22.1563 126.694 23.8464 122.364C26.2948 116.176 28.0018 109.678 30.8173 103.647C31.7169 101.95 32.6587 100.277 33.6133 98.6124C33.7995 98.3173 33.9873 98.02 34.1746 97.7241C34.1719 98.1126 34.1704 98.5003 34.1625 98.8884C33.9427 101.602 33.9621 104.303 34.2649 107.012C34.5604 113.563 33.9868 120.129 32.841 126.578C32.4462 128.518 32.3991 130.525 31.8594 132.431C31.8303 132.528 31.7983 132.633 31.7697 132.728C31.6878 132.868 31.1991 134.073 31.4179 134.435C31.9068 135.211 33.127 134.864 33.837 134.579C35.2012 134.09 35.8123 133.068 35.9541 132.858C36.8578 131.729 37.7255 130.57 38.5678 129.394C43.7817 122.504 45.4363 113.479 44.7902 104.993C44.7431 104.643 44.6821 104.294 44.6147 103.946C45.7305 105.103 46.9468 106.159 48.3068 107.043C52.2042 109.632 54.1675 109.934 58.0908 111.387C63.8456 113.611 70.0582 114.026 75.9295 111.991C80.5811 110.502 85.1723 108.409 88.866 105.157C88.601 105.336 88.3394 105.52 88.0763 105.703C83.9645 108.429 79.2176 110.074 74.5118 110.924C70.3439 111.805 65.8746 110.757 61.619 108.981C57.9415 107.418 57.5703 107.599 53.9241 105.673C49.7743 103.362 47.1634 100.517 44.5595 97.2178C44.0411 96.6475 43.4972 96.0906 42.9891 95.5704C47.2486 97.2814 51.0848 100.064 55.2056 102.072C59.9229 104.203 64.9093 106.152 70.1219 106.458C72.4781 106.496 74.883 106.532 77.1928 106.011C78.8177 105.676 80.3013 104.914 81.8906 104.463C83.3126 104.096 84.7758 104.005 87.1125 103.912C88.2294 103.993 91.0082 103.143 91.4198 104.494C91.5454 105.197 90.8096 105.19 90.2914 105.465C89.104 106.007 88.1493 106.944 86.9585 107.485C86.7526 107.588 86.5455 107.69 86.3402 107.793C86.5504 107.715 86.761 107.639 86.9706 107.56C88.1125 107.183 89.1014 106.473 90.2064 106.021C90.8216 105.813 91.4816 105.706 92.0368 105.352C93.4872 104.395 93.3222 102.798 91.5202 102.438C88.4702 102.179 85.3117 101.791 82.2897 102.476C81.292 102.69 79.4319 103.332 78.904 103.518C78.9015 103.518 78.9002 103.518 78.8978 103.519C77.3536 103.908 76.6885 103.885 75.0235 103.918C71.8463 104.071 69.3392 103.771 66.2213 103.018C62.685 102.294 59.2031 101.287 55.858 99.9244C52.9019 98.8222 49.6939 97.2648 46.3387 96.0969C47.3477 96.2584 48.3585 96.3962 49.3729 96.5127C50.9851 96.8648 52.5971 97.2155 54.2054 97.5825C59.2181 98.9842 64.4671 98.937 69.6272 98.7876C77.363 98.722 84.9683 97.0646 92.3484 94.8454C103.159 91.8163 113.55 86.5215 121.313 78.2683C124.758 74.6717 128.372 68.0723 122.927 64.5348C120.902 62.952 118.706 61.5361 116.068 61.3572C113.802 60.9382 111.486 61.1666 109.267 61.7389C107.77 62.1451 106.295 62.5637 104.732 62.6057C107.801 60.792 110.858 58.9595 113.754 56.8721C116.578 55.0523 119.397 53.014 121.119 50.0606C121.238 49.899 121.462 49.6337 121.639 49.4282C123.057 49.3465 124.416 48.4849 125.305 47.4129C126.923 45.5235 125.848 42.3786 123.167 42.6266ZM-2.58569 228.185C-3.7981 226.925 -5.29374 226.024 -6.62666 224.912C-10.8784 221.136 -16.2426 215.966 -19.2554 212.518C-22.5413 208.316 -26.9863 205.275 -30.9155 201.725C-33.7599 199.268 -35.8232 197.399 -37.7219 194.744C-41.1075 190.047 -43.8016 184.887 -46.5161 179.784C-49.8024 172.208 -51.178 164.459 -52.3463 156.905C-53.1672 151.275 -53.9929 145.624 -54.1821 139.93C-54.2797 135.437 -54.1022 130.934 -53.627 126.466C-53.0992 122.643 -52.3974 118.845 -51.9175 115.013C-51.5686 112.738 -51.2907 110.452 -51.0226 108.165C-50.0069 121.641 -47.2525 135.18 -40.3951 146.923C-38.4291 150.342 -35.9958 153.439 -33.4561 156.44C-31.0373 159.702 -28.9022 163.159 -26.5375 166.457C-22.2005 172.178 -16.8419 177.138 -13.1122 183.311C-7.09485 194.016 -0.877207 204.742 3.17307 216.383C4.61557 220.63 5.64747 224.997 6.53463 229.389C7.33233 233.032 8.19859 236.656 8.74744 240.347C9.51026 244.576 10.2707 248.805 11.0374 253.033C11.1247 255.477 11.2023 257.92 11.2625 260.363C10.9717 258.655 10.6339 256.951 10.2441 255.261C9.5255 249.355 8.61364 243.478 7.36489 237.66C6.00746 231.64 3.82262 225.853 1.26432 220.248C-1.24346 214.533 -4.04745 208.919 -7.80567 203.912C-13.7489 195.872 -22.7337 185.484 -29.1357 180.357C-24.7692 185.349 -20.9685 190.789 -17.1637 196.213C-13.7882 201.169 -10.3175 206.082 -7.44641 211.357C-3.86988 218.38 -0.419347 225.526 2.164 232.982C2.65262 234.465 3.07265 235.924 3.46368 237.375C1.86137 234.035 0.0583144 230.799 -2.58569 228.185ZM20.103 264.447C22.4063 257.286 25.8102 250.566 29.1965 243.873C31.9942 238.201 34.9008 232.555 38.6462 227.442C44.0507 220.006 49.7209 212.773 54.7292 205.053C58.7139 199.061 62.2034 192.756 65.8648 186.564C71.2411 176.622 74.9988 165.869 78.1035 155.022C78.9743 151.447 80.0043 147.878 80.7791 144.269C82.344 150.514 83.847 156.778 85.0323 163.107C87.6219 176.719 88.8432 190.69 88.5115 205.06C88.2307 213.797 87.1011 222.476 85.4915 231.062C83.9008 239.498 79.3414 247.971 75.0094 256.248C71.3021 262.739 67.3231 270.685 63.7906 275.604C56.32 284.525 49.5186 294.015 41.6235 302.572C36.8716 308.444 28.5196 313.95 24.3461 322.202C22.6243 325.284 21.3857 328.617 19.5296 331.622C17.6269 334.59 15.6309 337.495 13.9876 340.622C12.5118 343.091 10.9434 345.512 9.82105 348.171C8.20223 352.191 6.86795 356.325 5.51336 360.446C7.49709 353.557 10.0683 346.565 12.9394 339.648C16.0062 332.03 18.902 324.344 21.982 316.732C24.0585 311.611 26.1003 306.475 28.1949 301.361C31.3896 294.13 34.7437 286.966 37.8424 279.693C46.8062 258.349 55.2408 236.778 62.285 214.711C63.7887 210.051 65.2575 205.379 66.6944 200.698C65.803 202.66 64.293 206.365 63.1857 208.988C56.9168 224.02 50.881 239.15 45.2972 254.453C41.6029 263.615 37.8194 272.742 34.0946 281.891C26.1374 299.131 19.023 316.726 12.2239 334.454C10.7331 338.263 9.21403 342.061 7.69837 345.86C8.04302 343.729 8.39387 341.6 8.77067 339.48C10.4239 328.821 11.9022 318.143 12.9693 307.406C13.8495 299.996 14.7046 292.586 15.3395 285.154C16.4444 277.914 17.969 270.562 20.103 264.447ZM68.6733 44.8039C68.5005 44.9551 68.3171 45.1055 68.1507 45.2563C68.8542 44.227 69.542 43.1882 70.2302 42.1486C69.7092 43.034 69.1915 43.9208 68.6733 44.8039ZM63.0873 19.5838C65.3069 18.3096 68.4439 16.9359 71.9281 16.0693C73.1871 15.7083 72.5566 15.7286 73.7282 15.7819C73.8207 15.7987 73.9519 15.8227 74.0928 15.8502C74.1786 15.8655 74.2888 15.8988 74.3872 15.9315C75.8609 16.6935 76.7575 17.4902 77.2646 18.3935C78.1233 20.3167 76.8896 23.61 76.523 24.7276C74.8212 29.6658 72.3158 34.0033 69.414 38.1834C66.1115 43.3271 63.2048 47.7396 59.1181 53.0775C56.3761 56.5045 53.1962 59.5599 50.6259 63.1256C50.5034 63.2884 50.3811 63.4557 50.2587 63.6231C49.2098 64.9262 48.1713 66.2638 47.1672 67.5956C51.3381 57.1204 55.5566 46.6676 61.7616 37.2098C62.3569 36.3009 62.9492 35.3899 63.5388 34.4781C62.9301 35.2068 62.3228 35.936 61.7171 36.6668C52.7704 47.1999 48.1315 57.848 44.3753 69.6611C44.7308 68.1999 45.1265 66.7475 45.5868 65.3109C48.6323 55.7596 52.6606 46.556 55.8281 37.0432C51.5451 45.6356 46.8373 54.1201 43.768 63.2445C43.8069 61.8778 43.8606 60.5112 43.9611 59.1464C44.4675 53.3737 45.5561 44.6226 46.8846 40.5114C49.9082 30.7834 55.0774 24.4705 63.0873 19.5838ZM57.2632 59.4636C54.5728 63.0786 51.9751 66.7654 49.2161 70.322C50.6247 68.1184 51.9653 65.9792 53.3189 64.0597C54.6957 62.4022 55.9912 60.8908 57.2632 59.4636ZM23.207 71.0974C21.998 69.4612 20.7495 67.8549 19.4545 66.2868C17.6072 63.7272 15.9177 61.0609 14.3302 58.333C11.8025 54.2711 10.223 49.7347 8.51273 45.2919C7.32166 41.4821 5.68231 37.7978 4.92549 33.8634C4.44732 31.2374 3.99562 29.2084 3.96565 25.0733C3.93837 21.7055 4.94701 16.4411 5.56531 14.7645C6.07968 13.1803 6.88612 11.7173 7.54124 10.191C8.50573 7.91829 9.07042 6.66137 10.1001 5.57102C11.9219 3.57566 18.9177 0.631708 24.4499 2.71349C26.977 3.62884 28.6383 5.83023 30.443 7.70424C31.0096 8.35376 31.7055 8.9473 32.1613 9.78678C32.4443 10.37 32.6561 10.9832 32.8685 11.5957C24.7765 18.6151 20.4963 29.1274 18.2487 39.4724C17.6943 42.5974 17.1563 45.7896 16.982 48.9829C16.5925 47.8529 16.22 46.7162 15.8888 45.5642C14.224 39.9024 12.6684 34.1253 12.3684 28.2057C12.2478 26.334 12.293 24.4617 12.4644 22.5955C12.154 23.8175 11.7889 25.0287 11.5939 26.2767C9.89587 36.3375 11.8043 47.81 15.9446 57.0955C19.2599 63.9314 23.3714 70.3371 27.7954 76.5002C28.9918 78.273 30.2866 79.9706 31.6536 81.61C31.8816 82.3771 32.0835 83.1543 32.2893 83.9316C29.1993 79.7 26.1916 75.4049 23.207 71.0974ZM31.3306 71.6738C29.1482 68.6782 26.6424 65.8486 24.9911 62.5092C24.0162 60.3706 23.4389 58.0814 22.8659 55.8101C21.9414 52.6781 21.8999 50.1231 22.3325 46.3522C23.5643 33.5631 27.869 20.8548 35.7535 12.9549C38.2457 10.4456 40.8075 8.77441 42.7965 8.00837C44.6012 7.34374 45.5855 6.87673 47.3086 6.95406C49.4789 7.07674 51.6494 8.39078 53.1873 10.0172C54.5055 11.6739 54.9799 13.8381 54.9678 15.9195C55.156 17.3853 54.5886 18.7643 54.5652 20.2157C54.5449 20.5031 54.5523 20.7897 54.5679 21.0755C53.976 21.8351 53.3922 22.6004 52.8178 23.3719C53.4149 22.7745 54.008 22.1648 54.6015 21.5537C54.6306 21.8735 54.6666 22.1922 54.6969 22.5118C50.974 25.6058 47.743 29.2693 45.5059 33.5941C42.5966 38.9158 40.9863 44.858 40.3448 50.8727C39.9131 54.7566 39.3869 58.6472 39.435 62.5632C39.395 65.6525 39.6782 68.733 39.9277 71.8093C39.9423 73.6296 39.968 75.1161 39.999 76.6147C39.9513 76.4881 39.9019 76.3625 39.8548 76.2359C36.9142 68.4498 36.3813 60.1082 36.2806 51.8642C36.0524 43.7807 35.7414 35.7033 35.7876 27.6159C34.2535 35.5077 33.4377 43.5178 33.3904 51.5601C33.3052 60.147 34.7874 68.9414 39.3893 76.3204C39.591 76.6572 39.8014 76.988 40.0143 77.3184C40.0266 77.8771 40.039 78.4442 40.0527 79.0383C39.9603 79.2148 39.8678 79.3914 39.7841 79.5736C38.8944 81.6106 38.1636 83.7103 37.2897 85.7532C37.2321 85.9407 37.1791 86.11 37.1252 86.2853C36.8153 85.5067 36.5436 84.714 36.3367 83.8994C36.1931 83.439 36.0804 82.9709 35.9821 82.4997C36.2875 79.1835 36.3337 75.8571 35.4863 72.5957C32.9474 65.651 30.9308 58.4751 27.8718 51.7166C29.0676 57.5035 30.0335 63.3406 31.5277 69.0633C32.0039 71.0494 33.0325 72.842 33.4735 74.8378C32.8559 73.7182 32.1468 72.6534 31.3306 71.6738ZM41.4538 84.1169C41.465 84.3032 41.475 84.4897 41.4876 84.6765C41.4888 84.6996 41.4901 84.7226 41.4914 84.7457C41.2003 85.3895 40.9425 86.0466 40.7478 86.7266C40.6207 86.8113 40.491 86.8925 40.367 86.9812C40.5351 86.5242 40.7089 86.0702 40.8798 85.6146C41.0671 85.1531 41.2441 84.6876 41.4114 84.2184C41.4251 84.1844 41.4407 84.1507 41.4538 84.1169ZM34.6417 93.3039C34.6213 93.3707 34.612 93.4389 34.5935 93.5054C34.1265 93.3805 33.6603 93.253 33.1943 93.1267C33.6763 93.1869 34.1582 93.2504 34.6417 93.3039ZM27.6043 98.5503C25.0904 100.068 20.6969 103.282 19.4216 104.262C17.6025 105.538 15.6708 106.666 13.9418 108.063C11.6916 110.264 9.19321 112.178 6.88148 114.309C2.02779 118.891 -1.45461 124.722 -5.03432 130.319C-4.84843 129.175 -4.64924 128.033 -4.40021 126.899C-3.49221 122.652 -2.11805 119.307 -0.451553 114.721C0.905441 111.115 2.18112 107.444 4.11907 104.1C5.21507 102.3 7.20659 99.6265 9.64333 97.8683C11.0405 96.7985 14.8114 94.569 16.694 94.2192C20.7089 93.2761 24.817 93.0585 28.971 93.1074C30.8317 93.251 32.6765 93.542 34.5272 93.7804C34.4632 94.0453 34.4063 94.3109 34.3646 94.5779C31.7979 95.3179 28.938 97.4905 27.6043 98.5503ZM42.2917 103.193C42.7405 106.14 42.2001 109.122 41.6226 112.012C41.0864 115.92 39.1464 121.305 37.2762 125C37.9765 121.12 38.5026 117.214 38.7746 113.278C39.161 109.115 38.8095 104.942 38.6555 100.779C38.7843 99.5213 38.8269 98.258 38.836 96.9946C39.5782 97.8256 40.4011 98.7452 41.0456 99.5168C41.2879 99.8688 41.5356 100.218 41.7885 100.564C42.0451 101.405 42.2238 102.279 42.2917 103.193ZM106.621 63.0161C108.994 62.6327 111.476 62.1494 113.821 62.9472C115.206 63.3043 116.553 63.8632 117.586 64.8841C118.643 66.0632 119.757 66.9159 120.244 67.6894C121.779 70.1913 121.237 71.5771 120.23 73.8167C117.179 79.4261 109.342 84.8963 102.554 88.2841C93.1801 92.4163 81.4919 95.5276 70.248 96.2548C66.9765 96.5263 63.6906 96.7309 60.4071 96.5949C64.8081 96.2571 69.1786 95.5098 73.4007 94.2544C76.8234 93.2061 79.9291 91.3907 83.1611 89.8899C84.1462 89.4202 85.1303 88.948 86.1134 88.4735C84.9131 88.9036 83.7134 89.3375 82.5156 89.7749C79.7005 90.7894 76.7669 92.1716 73.9615 92.8701C70.0958 93.8251 66.147 94.2152 62.2742 94.5383C58.8222 94.8302 55.3602 95.0818 51.8934 95.0154C48.6585 94.8964 45.4304 94.6406 42.2002 94.4226C42.0808 94.407 41.961 94.3934 41.8416 94.3779C41.6448 94.1631 41.4657 93.961 41.3225 93.7806C40.7645 93.1704 40.4377 92.3876 39.8485 91.8033C40.2355 92.2559 39.8393 91.7175 39.6924 91.5733C39.6 91.453 39.4937 91.3466 39.3806 91.2498C39.5474 90.9773 39.7037 90.7157 39.8595 90.4975C39.928 90.4097 40.0023 90.3171 40.0769 90.2231C43.5154 91.2683 49.0481 90.9038 54.5831 90.0364C57.3769 89.8076 60.1504 89.3809 62.8767 88.6763C63.7601 88.397 64.6345 88.0946 65.5048 87.7792C67.149 87.3666 68.6023 86.9704 69.7553 86.6355C70.4479 86.4309 71.1227 86.1735 71.8041 85.9365C71.0901 86.0982 70.3795 86.2767 69.6578 86.4041C69.2892 86.4737 68.9196 86.5369 68.5497 86.6028C75.1986 83.8729 81.5046 80.2787 87.7476 76.7488C89.2148 75.904 90.5543 75.0793 91.9869 74.325C90.8598 74.772 89.7614 75.2827 88.6624 75.7935C79.9303 79.7179 71.0567 84.2811 62.5571 87.1239C55.953 88.9233 47.7338 89.5401 40.4234 89.883C41.8622 89.9937 43.307 90.0866 44.7544 90.152C43.2392 90.2481 41.7315 90.231 40.2503 90.0058C40.8558 89.2543 41.5792 88.4093 42.0867 88.0591C43.6793 86.9268 47.6696 85.4166 50.4283 84.7939C56.0102 83.5629 61.6298 82.5189 67.1755 81.1219C71.206 79.9213 75.2472 78.735 79.2084 77.317C88.3244 74.3658 96.8881 69.4987 103.996 63.0415C104.015 63.0305 104.033 63.019 104.052 63.0081C104.909 63.0261 105.767 63.0783 106.621 63.0161ZM85.2488 72.4661C81.8918 74.0143 77.376 75.5861 73.0173 77.0273C71.3575 77.5551 69.698 78.0842 68.0382 78.612C65.7101 79.1807 63.382 79.75 61.0539 80.3187C55.1248 81.5923 49.0494 82.5633 43.5275 85.1923C43.4964 85.2072 43.4655 85.2234 43.4345 85.2383C53.2028 79.4307 63.287 74.144 73.5668 69.3083C74.2462 68.99 74.9245 68.6694 75.602 68.3476C75.0078 68.5539 74.4144 68.7614 73.8206 68.9702C62.2849 72.8948 51.3989 78.6781 41.7018 86.0629C41.7066 86.0259 41.7119 85.9881 41.7166 85.9511C45.0122 82.106 48.9584 78.8847 52.7832 75.5789C60.0258 69.5078 67.1743 63.8955 75.5932 59.4848C76.4627 59.0571 77.3422 58.6503 78.208 58.2155C77.055 58.6584 75.8861 59.0599 74.7433 59.5296C64.8882 63.833 56.0483 70.2267 48.4578 77.8199C46.0654 80.1935 43.7075 82.6261 41.7902 85.3961C41.7936 85.3703 41.7969 85.3439 41.8004 85.3181C42.77 83.6039 43.967 82.0328 45.0858 80.4152C47.5679 76.5163 50.5579 72.9934 53.7738 69.6862C55.7798 67.6691 57.4578 65.4552 59.4324 63.7628C63.2964 60.8373 68.3754 57.9112 72.784 55.0108C74.2909 54.0753 75.8173 53.1643 77.4402 52.4435C75.7543 53.0119 74.1494 53.7821 72.5678 54.5911C67.432 57.4206 62.0587 59.962 57.3492 63.482C54.6948 65.7714 52.5115 68.5525 50.1581 71.1395C47.5387 74.0809 45.3557 77.3683 43.5564 80.8695C43.0441 81.7877 42.5071 82.7056 42.0211 83.646C42.0722 83.219 42.1259 82.7921 42.179 82.3654C42.2 82.3173 42.2182 82.2683 42.2392 82.2201C43.0943 79.8493 43.983 77.7678 45.4965 75.8777C46.8032 74.0599 48.0093 72.2046 49.1701 70.3905C55.0845 63.6823 60.5603 56.5755 66.7704 50.1212C67.3437 49.5284 67.9846 48.8841 68.6663 48.2098C68.6921 48.1867 68.7163 48.1652 68.7421 48.1421C73.9565 43.3894 77.1714 41.1315 82.1466 38.6116C86.7379 36.3157 93.1483 34.7512 97.9468 35.6099C101.09 35.9298 101.84 36.4581 104.593 38.0677C111.173 41.5352 110.424 49.016 106.612 54.8953C102.401 61.4989 93.8065 68.4448 85.2488 72.4661Z" fill="#B1C5AA" fill-opacity="0.24"/>
</svg>
